<svg width="182" height="146" viewBox="0 0 182 146" fill="none" xmlns="http://www.w3.org/2000/svg">
<path d="M0 145.793V67.9736C2.76498 67.4879 9.26746 66.5163 13.1575 66.5163C18.0201 66.5163 34.0379 67.9736 37.1843 67.9736C40.3306 67.9736 63.4993 64.7676 65.7875 67.9736C68.0758 71.1797 82.9495 67.9736 90.3863 66.5163C97.8232 65.0591 102.4 69.4309 106.976 70.3053C111.553 71.1797 108.978 81.3807 114.127 84.2953C119.276 87.2098 118.99 99.1596 122.136 104.114C125.568 104.989 129.859 119.27 129.859 123.642C132.719 124.808 134.435 130.928 134.435 133.843C134.435 136.175 135.77 142.781 136.438 145.793H0Z" fill="#595353"/>
<path d="M150.523 87.8122L154.068 89.2726L159.959 86.1697L156.643 80.6562L150.163 84.0694L145.989 82.3365C144.084 81.5521 141.765 82.1177 140.705 83.794C139.921 85.0354 139.985 86.4932 140.665 87.6238C141.08 88.314 141.729 88.8896 142.564 89.2336L143.62 89.669C145.041 87.5664 147.973 86.762 150.523 87.8122ZM162.315 84.9285C162.722 84.7143 163.163 84.6213 163.6 84.6157C163.571 84.5119 163.552 84.4062 163.493 84.308L160.841 79.8972C160.475 79.2883 159.65 79.0724 159 79.4151L157.822 80.0357L161.137 85.5491L162.315 84.9285ZM167.472 90.9241L164.819 86.5133C164.453 85.9045 163.629 85.6886 162.978 86.0312L161.8 86.6518L165.778 93.268L166.957 92.6474C167.607 92.3047 167.838 91.533 167.472 90.9241ZM154.142 90.6856L149.978 88.9706C148.073 88.1862 145.754 88.7518 144.695 90.4281C143.91 91.6694 143.964 93.1094 144.644 94.24C145.059 94.9302 145.708 95.5057 146.543 95.8497L152.111 98.1438C152.879 98.4604 153.716 98.6052 154.554 98.5668C155.393 98.5283 156.21 98.3077 156.942 97.9223L164.6 93.8885L160.622 87.2724L154.142 90.6856Z" fill="black"/>
<path d="M146.049 124.794L149.594 126.254L155.485 123.152L152.17 117.638L145.69 121.051L141.515 119.318C139.611 118.534 137.291 119.1 136.232 120.776C135.447 122.017 135.512 123.475 136.192 124.606C136.607 125.296 137.256 125.871 138.091 126.215L139.147 126.651C140.567 124.548 143.5 123.744 146.049 124.794ZM157.842 121.91C158.248 121.696 158.689 121.603 159.126 121.598C159.098 121.494 159.079 121.388 159.02 121.29L156.367 116.879C156.001 116.27 155.177 116.054 154.526 116.397L153.348 117.018L156.663 122.531L157.842 121.91ZM162.998 127.906L160.346 123.495C159.98 122.886 159.155 122.67 158.505 123.013L157.326 123.634L161.305 130.25L162.483 129.629C163.134 129.287 163.364 128.515 162.998 127.906ZM149.668 127.667L145.505 125.952C143.6 125.168 141.28 125.734 140.221 127.41C139.437 128.651 139.49 130.091 140.17 131.222C140.585 131.912 141.234 132.488 142.069 132.832L147.637 135.126C148.406 135.442 149.242 135.587 150.081 135.549C150.919 135.51 151.737 135.29 152.468 134.904L160.127 130.87L156.148 124.254L149.668 127.667Z" fill="black"/>
<path fill-rule="evenodd" clip-rule="evenodd" d="M138.034 96.4269C143.282 95.3537 141.93 95.5025 147.224 97.0874L146.487 101.152L145.627 101.165L152.601 109.731L142.758 116.724L135.816 108.135L135.572 108.907L131.191 108.479C130.983 103.28 130.466 104.46 132.981 100.017C133.566 100.01 136.278 101.338 137.333 100.597C138.431 99.8256 137.863 96.9735 138.034 96.4269Z" fill="black"/>
<path fill-rule="evenodd" clip-rule="evenodd" d="M137.077 128.974C139.57 124.52 138.822 125.586 143.521 122.806L146.376 125.947L145.834 126.572L157.329 127.072L156.732 138.625L145.239 138.085L145.714 138.756L142.55 141.624C138.159 138.434 138.793 139.562 136.77 134.904C137.141 134.48 139.971 133.388 140.041 132.155C140.115 130.872 137.415 129.447 137.077 128.974Z" fill="black"/>
<path fill-rule="evenodd" clip-rule="evenodd" d="M165.04 110.026C169.767 112.415 168.638 111.702 171.548 116.134L168.157 118.766L167.496 118.251L166.817 129.002L154.482 128.299L155.202 117.55L154.48 117.987L151.455 114.989C154.919 110.92 153.706 111.499 158.708 109.665C159.156 110.017 160.287 112.679 161.603 112.76C162.973 112.845 164.53 110.336 165.04 110.026Z" fill="black"/>
<path d="M144.315 72.4773L144.881 71.6704L142.782 70.3943L142.216 71.2012L144.315 72.4773Z" fill="black"/>
<path d="M139.051 79.9946L141.293 76.8008L139.213 75.538L136.971 78.7319L139.051 79.9946Z" fill="black"/>
<path d="M141.813 76.0385L143.777 73.241L141.695 71.9771L139.731 74.7746L141.813 76.0385Z" fill="black"/>
<path d="M137.967 81.5772L138.533 80.7703L136.433 79.4942L135.867 80.3011L137.967 81.5772Z" fill="black"/>
<path d="M125.047 73.8263L125.033 73.8466L134.814 79.7859L141.995 69.559L137.415 63.5615L121.435 57.1611L114.178 67.4966C114.499 67.5152 114.808 67.6099 115.076 67.772L125.047 73.8263Z" fill="black"/>
<path d="M123.235 82.8485L124.12 74.1515L123.5 73.7751L123.517 73.7506L114.65 68.3665C114.494 68.2718 114.31 68.2253 114.122 68.2333C113.934 68.2412 113.751 68.3033 113.598 68.4111C113.446 68.5189 113.331 68.6672 113.268 68.8361C113.206 69.0049 113.2 69.1862 113.25 69.3554L119.171 82.8506L123.235 82.8485Z" fill="black"/>
<path d="M152.322 134.214L152.259 135.172L154.772 135.286L154.835 134.328L152.322 134.214Z" fill="black"/>
<path d="M152.867 125.249L152.617 129.039L155.109 129.152L155.358 125.361L152.867 125.249Z" fill="black"/>
<path d="M152.588 129.966L152.37 133.285L154.864 133.398L155.083 130.079L152.588 129.966Z" fill="black"/>
<path d="M152.956 123.362L152.893 124.32L155.406 124.434L155.469 123.476L152.956 123.362Z" fill="black"/>
<path d="M168.315 124.074L168.317 124.05L156.599 123.52L155.799 135.645L163.007 138.653L180.383 136.685L181.191 124.432C180.901 124.566 180.58 124.629 180.26 124.615L168.315 124.074Z" fill="black"/>
<path d="M164.996 115.402L168.875 123.276L169.617 123.31L169.616 123.339L180.237 123.819C180.423 123.828 180.609 123.782 180.769 123.687C180.929 123.592 181.056 123.454 181.131 123.29C181.207 123.126 181.228 122.945 181.192 122.771C181.156 122.598 181.065 122.439 180.93 122.317L168.544 113.503L164.996 115.402Z" fill="black"/>
<path d="M20.2223 67.406C24.3124 67.406 27.6281 64.2882 27.6281 60.4421C27.6281 56.596 24.3124 53.4781 20.2223 53.4781C16.1322 53.4781 12.8165 56.596 12.8165 60.4421C12.8165 64.2882 16.1322 67.406 20.2223 67.406Z" fill="#1D1D1B"/>
<path d="M66.7728 67.406C70.8629 67.406 74.1786 64.2882 74.1786 60.4421C74.1786 56.596 70.8629 53.4781 66.7728 53.4781C62.6827 53.4781 59.3671 56.596 59.3671 60.4421C59.3671 64.2882 62.6827 67.406 66.7728 67.406Z" fill="#1D1D1B"/>
<path d="M86.8742 67.406C90.9643 67.406 94.2799 64.2882 94.2799 60.4421C94.2799 56.596 90.9643 53.4781 86.8742 53.4781C82.7841 53.4781 79.4684 56.596 79.4684 60.4421C79.4684 64.2882 82.7841 67.406 86.8742 67.406Z" fill="#1D1D1B"/>
<path d="M101.876 51.8815C101.739 51.6846 101.551 51.5235 101.33 51.413C101.109 51.3026 100.862 51.2464 100.612 51.2497H36.3563C35.9354 51.2497 35.5317 51.0925 35.2341 50.8127C34.9365 50.5328 34.7693 50.1532 34.7693 49.7575V33.0838C34.7693 32.6881 34.6021 32.3085 34.3045 32.0286C34.0069 31.7488 33.6032 31.5916 33.1824 31.5916H14.4034C14.1575 31.591 13.9148 31.6442 13.6945 31.7469C13.4742 31.8496 13.2822 31.9991 13.1339 32.1835L2.55418 45.3702C2.34606 45.6275 2.23445 45.9423 2.23679 46.2656V57.2089C2.23679 57.6046 2.40399 57.9842 2.7016 58.2641C2.99921 58.5439 3.40286 58.7011 3.82374 58.7011H11.8802C12.2998 56.9146 13.3553 55.3162 14.8722 54.1705C16.3892 53.0247 18.2766 52.4002 20.2222 52.4002C22.1679 52.4002 24.0553 53.0247 25.5723 54.1705C27.0892 55.3162 28.1447 56.9146 28.5643 58.7011H58.4308C58.8503 56.9146 59.9059 55.3162 61.4228 54.1705C62.9397 53.0247 64.8271 52.4002 66.7728 52.4002C68.7185 52.4002 70.6059 53.0247 72.1228 54.1705C73.6398 55.3162 74.6953 56.9146 75.1149 58.7011H78.5321C78.9517 56.9146 80.0073 55.3162 81.5242 54.1705C83.0411 53.0247 84.9285 52.4002 86.8742 52.4002C88.8199 52.4002 90.7073 53.0247 92.2242 54.1705C93.7411 55.3162 94.7967 56.9146 95.2163 58.7011H99.3C99.481 58.7055 99.661 58.6751 99.829 58.6116C101.739 57.8804 104.384 55.6818 101.876 51.8815ZM28.157 45.2707H8.5846L15.1969 36.3171H28.157V45.2707Z" fill="#595353"/>
<path d="M122.105 48.648L112.895 29.6912C113.002 29.1599 112.922 28.6104 112.667 28.1257C112.412 27.641 111.996 27.2476 111.483 27.0051L54.0772 0.258583C53.4487 -0.0342748 52.7222 -0.080361 52.0575 0.130462C51.3929 0.341285 50.8445 0.791749 50.533 1.38276L41.498 18.5539C41.1865 19.1449 41.1375 19.828 41.3617 20.453C41.5859 21.078 42.065 21.5937 42.6935 21.8866L51.6862 26.0749L47.9093 35.0285C47.3373 35.1447 46.8064 35.3962 46.3667 35.7591C45.927 36.1221 45.5931 36.5846 45.3966 37.1028L40.8526 49.0957C40.5468 49.9038 40.5948 50.7929 40.9862 51.5677C41.3775 52.3424 42.0801 52.9392 42.9394 53.2268C43.7988 53.5144 44.7444 53.4692 45.5683 53.1012C46.3921 52.7332 47.0268 52.0725 47.3327 51.2645L51.8661 39.2815C52.0578 38.777 52.1133 38.2356 52.0274 37.706C51.9415 37.1764 51.717 36.6751 51.3741 36.2472L55.0029 27.6318L100.099 48.6381C100.727 48.9309 101.454 48.977 102.118 48.7662C102.783 48.5554 103.332 48.1049 103.643 47.5139L110.837 33.8298L118.735 50.0955C118.939 50.5157 119.312 50.8424 119.773 51.0038C120.233 51.1652 120.743 51.148 121.189 50.9561C121.636 50.7641 121.984 50.4131 122.155 49.9803C122.327 49.5474 122.309 49.0682 122.105 48.648Z" fill="#1D1D1B"/>
</svg>
