<svg width="151" height="154" viewBox="0 0 151 154" fill="none" xmlns="http://www.w3.org/2000/svg">
<circle cx="130.579" cy="26.5" r="4.5" fill="#247BA0"/>
<circle cx="135.579" cy="41.5" r="4.5" fill="#247BA0"/>
<circle cx="142.579" cy="30.5" r="3.5" fill="#247BA0"/>
<circle cx="145.079" cy="2" r="2" fill="#247BA0"/>
<path d="M143.579 18C143.579 19.1046 142.683 20 141.579 20C140.474 20 139.579 19.1046 139.579 18C139.579 16.8954 140.474 16 141.579 16C142.683 16 143.579 16.8954 143.579 18Z" fill="#247BA0"/>
<path d="M46.2105 105.783C45.6211 104.207 45.025 102.805 44.4175 101.479C44.4042 101.438 44.3828 101.387 44.3586 101.354C41.8909 95.9762 39.376 92.5942 37.5523 90.6285C36.4218 89.4184 36.0973 87.6975 36.6934 86.1247C44.2623 66.2352 55.9243 52.9397 71.3529 46.5975C96.8238 36.1168 124.13 48.281 124.404 48.4C124.604 48.4884 124.811 48.5389 125.026 48.5323C125.132 48.5385 127.785 50.0225 129.079 51.9571C131.056 54.9083 131.918 62.0507 121.782 86.3373C105.951 124.262 69.1669 122.31 67.0036 122.15C65.6547 121.811 50.6801 117.761 46.2105 105.783ZM110.382 60.9032C113.116 58.8839 113.691 54.9943 111.664 52.2494C109.628 49.4936 105.75 48.9105 103.016 50.9298C100.282 52.9492 99.7066 56.8388 101.734 59.5836C103.761 62.3285 107.637 62.9307 110.382 60.9032ZM90.3288 52.6778C90.0077 51.9684 89.1726 51.6387 88.4443 51.957C85.6507 53.2091 84.8227 54.5137 84.0113 55.7721C83.288 56.898 82.6221 57.9645 80.0942 59.3245C79.0787 59.8718 77.587 60.0947 75.9973 60.3224C73.8714 60.6249 71.4461 60.9797 69.3864 62.2644C67.6491 63.3447 66.4507 65.1089 65.2907 66.8107C64.2711 68.2906 63.3199 69.703 62.0951 70.6077C62.0842 70.6158 62.0732 70.6239 62.0732 70.6239C60.9278 71.453 59.3771 71.9392 57.7284 72.4302C55.6599 73.0622 53.5097 73.7208 51.8892 75.1881C50.1456 76.7633 49.265 78.9349 48.4229 81.0443C47.8192 82.5381 47.2569 83.9507 46.4337 84.9643C45.9425 85.5807 46.0311 86.4786 46.6474 86.9699C47.1583 87.3869 47.8789 87.3786 48.382 87.0071C48.4804 86.9344 48.5707 86.8507 48.6421 86.7642C49.7287 85.4208 50.41 83.7345 51.0636 82.1023C51.8224 80.2235 52.5399 78.426 53.799 77.2931C54.9649 76.263 56.7201 75.7102 58.5651 75.1419C60.3692 74.5868 62.2333 74.0212 63.7614 72.9094C65.4374 71.6546 66.5479 70.0231 67.6556 68.4106C68.7028 66.8765 69.6896 65.4208 70.9106 64.6711C72.4757 63.701 74.4737 63.4083 76.4199 63.1371C78.2572 62.8786 79.9966 62.6249 81.4681 61.8253C84.6321 60.1137 85.6361 58.544 86.4366 57.2936C87.1243 56.2109 87.6194 55.4396 89.6299 54.5461C90.3283 54.2331 90.639 53.3952 90.3288 52.6778ZM58.9857 99.7614C59.4542 100.396 60.3478 100.53 60.9821 100.062C63.2786 98.3653 63.9617 96.7959 64.5701 95.4C65.1039 94.1776 65.5629 93.1286 67.2361 91.8928C68.9202 90.6489 70.0578 90.5185 71.3722 90.3759C72.8853 90.2048 74.5862 90.0133 76.8827 88.317C79.1792 86.6208 79.8623 85.0514 80.4707 83.6555C81.0045 82.4331 81.4526 81.3922 83.1367 80.1483C84.8208 78.9044 85.9474 78.7821 87.2728 78.6314C88.7749 78.4684 90.4867 78.2688 92.7723 76.5807C95.0688 74.8844 95.7519 73.315 96.3604 71.9191C96.8832 70.7048 97.3422 69.6558 99.0263 68.4119C99.6606 67.9434 99.795 67.0498 99.3265 66.4155C98.858 65.7813 97.9644 65.6469 97.3301 66.1154C95.0336 67.8117 94.3505 69.381 93.753 70.7689C93.2192 71.9913 92.7711 73.0322 91.087 74.2761C89.4138 75.5119 88.2763 75.6423 86.9509 75.793C85.4488 75.956 83.737 76.1556 81.4514 77.8437C79.1549 79.54 78.4718 81.1093 77.8633 82.5053C77.3296 83.7277 76.8815 84.7685 75.1974 86.0125C73.5132 87.2564 72.3757 87.3867 71.0613 87.5294C69.5482 87.7005 67.8473 87.892 65.5508 89.5882C63.2543 91.2844 62.5712 92.8538 61.9627 94.2497C61.429 95.4722 60.9699 96.5211 59.2968 97.7569C58.6516 98.2335 58.5172 99.1271 58.9857 99.7614ZM68.8394 116.535C70.8875 115.715 72.3792 114.004 73.8434 112.348C74.9704 111.06 76.037 109.849 77.277 109.102C78.495 108.372 80.0828 108.027 81.7714 107.659C83.8712 107.206 86.0228 106.733 87.7725 105.44C87.7834 105.432 87.7944 105.424 87.8053 105.416C89.6126 104.064 90.7146 102.101 91.7672 100.208C92.5938 98.7187 93.3763 97.3295 94.3833 96.4504C95.6914 95.3152 97.4775 94.6213 99.2009 93.9569C101.099 93.2312 102.885 92.5373 104.186 91.2552C106.955 88.5509 107.346 86.7918 107.705 85.2417C107.963 84.1043 108.191 83.1081 109.565 81.5356C110.08 80.952 110.022 80.0488 109.43 79.5224C108.846 79.0069 107.943 79.0656 107.417 79.6572C105.571 81.781 105.22 83.2739 104.933 84.6015C104.635 85.9371 104.366 87.0826 102.2 89.2067C101.312 90.0649 99.7933 90.6629 98.1736 91.2846C96.3057 92.0051 94.2006 92.8163 92.5121 94.2831C91.1356 95.4858 90.1824 97.1701 89.2759 98.8031C88.317 100.525 87.4133 102.139 86.0981 103.128C86.0872 103.136 86.0872 103.136 86.0763 103.144C84.8186 104.073 83.0402 104.457 81.161 104.864C79.3227 105.259 77.4326 105.675 75.8104 106.636C74.1772 107.606 72.9294 109.052 71.7011 110.432C70.4096 111.91 69.1922 113.282 67.7741 113.857C67.0595 114.148 66.6918 114.977 66.9801 115.711C67.2736 116.474 68.1058 116.823 68.8394 116.535Z" fill="#247BA0"/>
<path d="M35.2514 82.1362C33.442 81.5628 30.1986 80.3753 29.1939 76.8412C27.9746 72.536 31.901 65.495 33.5089 63.1411C51.4912 36.7094 71.3422 38.3911 80.172 40.8949C76.8956 41.6078 73.5873 42.5978 70.2818 43.9576C54.894 50.2866 43.1238 63.1381 35.2514 82.1362Z" fill="#247BA0"/>
<path d="M23.1978 109.935C26.6092 106.385 37.2862 104.296 42.2672 103.625C42.6923 104.613 43.1198 105.649 43.5439 106.772C44.4985 109.346 45.8554 111.572 47.4509 113.504C44.6773 119.085 40.2968 122.422 37.0315 124.225C34.921 125.395 32.2592 124.995 30.5371 123.259C24.2208 116.904 21.4113 111.796 23.1978 109.935Z" fill="#247BA0"/>
<path d="M66.4474 124.944C66.5125 124.963 66.5696 124.972 66.6376 124.972C66.8876 124.991 81.875 126.174 97.4208 117.954C92.1304 125.597 78.9844 139.194 56.6789 129.59C57.3877 127.849 58.5334 124.755 58.9411 122.172C62.9377 124.105 66.1461 124.879 66.4474 124.944Z" fill="#247BA0"/>
<path d="M104.695 53.2044C106.172 52.1139 108.271 52.4393 109.37 53.9265C110.468 55.4138 110.162 57.5162 108.686 58.6066C107.209 59.6971 105.11 59.3717 104.011 57.8844C102.913 56.3972 103.219 54.2948 104.695 53.2044Z" fill="#247BA0"/>
</svg>
