<svg width="317" height="243" viewBox="0 0 317 243" fill="none" xmlns="http://www.w3.org/2000/svg">
<path d="M210.178 58.3725C213.934 62.0985 219.011 64.1893 224.301 64.1893C229.592 64.1893 234.668 62.0985 238.424 58.3725L240.603 56.0492C244.703 51.6756 245.738 45.732 243.303 40.5378L224.301 0L205.3 40.5372C202.865 45.7314 203.9 51.675 208 56.0486L210.178 58.3725Z" fill="#247BA0"/>
<path d="M7.04444 162.949L91.5778 217.778C92.3069 218.251 92.8986 218.864 93.3062 219.569C93.7137 220.274 93.9259 221.052 93.9259 221.84V242.377H152.63V196.335C152.622 193.996 151.994 191.69 150.796 189.592C149.598 187.495 147.86 185.663 145.717 184.236L71.4718 135.138C68.0765 132.907 63.8629 131.812 59.6079 132.056C55.3528 132.3 51.3432 133.867 48.3183 136.466L43.8076 140.364L86.0486 172.328C87.2204 173.215 87.9369 174.468 88.0405 175.811C88.1442 177.155 87.6264 178.479 86.6012 179.492C85.576 180.505 84.1272 181.125 82.5737 181.215C81.0202 181.304 79.4891 180.857 78.3174 179.97L31.3544 144.433L31.3639 144.423C30.7654 143.973 30.2787 143.423 29.9333 142.806C29.588 142.188 29.3911 141.517 29.3548 140.832L25.473 63.5384L24.2256 43.7708C24.1123 41.1451 22.826 38.6597 20.6371 36.8374C18.4483 35.0151 15.5275 33.998 12.4892 34H11.7407C8.62804 34.0032 5.64388 35.074 3.44286 36.9774C1.24184 38.8809 0.00368977 41.4616 0 44.1535V150.765C0.00566727 153.129 0.644711 155.459 1.86696 157.573C3.08922 159.687 4.86141 161.527 7.04444 162.949Z" fill="#237CA1"/>
<path d="M234.815 181.226C233.62 181.226 232.454 180.911 231.472 180.324C230.489 179.736 229.738 178.902 229.317 177.935C228.897 176.968 228.828 175.914 229.119 174.912C229.41 173.91 230.048 173.008 230.947 172.328L273.192 140.364L268.684 136.466C265.659 133.866 261.648 132.3 257.393 132.056C253.137 131.812 248.923 132.908 245.528 135.14L171.282 184.237C169.139 185.664 167.402 187.496 166.204 189.593C165.005 191.69 164.378 193.996 164.37 196.335V241.377H223.074V221.84C223.074 221.052 223.286 220.274 223.694 219.569C224.101 218.864 224.693 218.251 225.422 217.778L309.956 162.949C312.139 161.527 313.911 159.687 315.133 157.573C316.355 155.459 316.994 153.129 317 150.765V44.1535C316.996 41.4616 315.758 38.8809 313.557 36.9774C311.356 35.074 308.372 34.0032 305.259 34H304.511C301.483 33.9953 298.57 35.0041 296.383 36.8151C294.196 38.6261 292.905 41.0987 292.779 43.715L290.891 76.1891L287.643 140.832C287.607 141.517 287.41 142.189 287.064 142.806C286.719 143.423 286.232 143.973 285.634 144.423L285.643 144.433L238.68 179.97C237.611 180.781 236.237 181.227 234.815 181.226Z" fill="#237CA1"/>
<path d="M79.2679 126.857L153.261 175.994C155.394 177.416 157.289 179.089 158.892 180.964C160.495 179.089 162.39 177.417 164.523 175.996L238.513 126.858C244.059 123.198 250.922 121.369 257.878 121.699C264.833 122.029 271.426 124.495 276.48 128.658L278.674 69.7609L263.296 77.554C249.689 84.4347 233 86.2775 218.275 86.2775C203.55 86.2775 186.5 84.554 170.5 77.554C162.16 74.4473 149.99 66.9957 136.946 57.2116C123.5 48 112.962 44.7656 99.0129 44.0591C85.0636 43.3526 71.2266 46.5926 59.5769 53.2932L38.1587 65.6938L41.3032 128.658C46.3566 124.496 52.9496 122.029 59.9043 121.699C66.859 121.369 73.7223 123.197 79.2679 126.857Z" fill="#247BA0"/>
<path d="M63.1835 91.08C66.6135 91.08 69.2968 92.13 71.2335 94.23C73.1702 96.3067 74.1385 99.305 74.1385 103.225C74.1385 106.002 73.6135 108.382 72.5635 110.365C71.5368 112.348 70.0785 113.853 68.1885 114.88C66.2985 115.907 64.1168 116.42 61.6435 116.42C60.3368 116.42 59.0885 116.28 57.8985 116C56.7085 115.697 55.6935 115.277 54.8535 114.74L56.9535 110.575C58.1435 111.392 59.6718 111.8 61.5385 111.8C63.6152 111.8 65.2602 111.193 66.4735 109.98C67.6868 108.743 68.3402 106.97 68.4335 104.66C66.9635 106.13 64.9335 106.865 62.3435 106.865C60.7802 106.865 59.3568 106.55 58.0735 105.92C56.7902 105.29 55.7752 104.403 55.0285 103.26C54.2818 102.093 53.9085 100.752 53.9085 99.235C53.9085 97.6017 54.3168 96.1667 55.1335 94.93C55.9502 93.6933 57.0585 92.7483 58.4585 92.095C59.8818 91.4183 61.4568 91.08 63.1835 91.08ZM63.6035 102.63C64.8402 102.63 65.8435 102.292 66.6135 101.615C67.4068 100.915 67.8035 100.028 67.8035 98.955C67.8035 97.8817 67.4185 97.0067 66.6485 96.33C65.9018 95.6533 64.8635 95.315 63.5335 95.315C62.3202 95.315 61.3285 95.6417 60.5585 96.295C59.8118 96.9483 59.4385 97.835 59.4385 98.955C59.4385 100.075 59.8118 100.973 60.5585 101.65C61.3285 102.303 62.3435 102.63 63.6035 102.63ZM93.3858 96.12H85.5458V91.5H106.896V96.12H99.0558V116H93.3858V96.12ZM125.557 116L120.832 109.175H120.552H115.617V116H109.947V91.5H120.552C122.722 91.5 124.6 91.8617 126.187 92.585C127.797 93.3083 129.033 94.335 129.897 95.665C130.76 96.995 131.192 98.57 131.192 100.39C131.192 102.21 130.748 103.785 129.862 105.115C128.998 106.422 127.762 107.425 126.152 108.125L131.647 116H125.557ZM125.452 100.39C125.452 99.0133 125.008 97.9633 124.122 97.24C123.235 96.4933 121.94 96.12 120.237 96.12H115.617V104.66H120.237C121.94 104.66 123.235 104.287 124.122 103.54C125.008 102.793 125.452 101.743 125.452 100.39ZM135.684 91.5H141.354V116H135.684V91.5ZM147.168 91.5H152.838V111.38H165.123V116H147.168V91.5ZM168.291 91.5H173.961V111.38H186.246V116H168.291V91.5ZM189.414 91.5H195.084V116H189.414V91.5ZM212.764 116.42C210.22 116.42 207.922 115.872 205.869 114.775C203.839 113.678 202.24 112.173 201.074 110.26C199.93 108.323 199.359 106.153 199.359 103.75C199.359 101.347 199.93 99.1883 201.074 97.275C202.24 95.3383 203.839 93.8217 205.869 92.725C207.922 91.6283 210.22 91.08 212.764 91.08C215.307 91.08 217.594 91.6283 219.624 92.725C221.654 93.8217 223.252 95.3383 224.419 97.275C225.585 99.1883 226.169 101.347 226.169 103.75C226.169 106.153 225.585 108.323 224.419 110.26C223.252 112.173 221.654 113.678 219.624 114.775C217.594 115.872 215.307 116.42 212.764 116.42ZM212.764 111.59C214.21 111.59 215.517 111.263 216.684 110.61C217.85 109.933 218.76 109 219.414 107.81C220.09 106.62 220.429 105.267 220.429 103.75C220.429 102.233 220.09 100.88 219.414 99.69C218.76 98.5 217.85 97.5783 216.684 96.925C215.517 96.2483 214.21 95.91 212.764 95.91C211.317 95.91 210.01 96.2483 208.844 96.925C207.677 97.5783 206.755 98.5 206.079 99.69C205.425 100.88 205.099 102.233 205.099 103.75C205.099 105.267 205.425 106.62 206.079 107.81C206.755 109 207.677 109.933 208.844 110.61C210.01 111.263 211.317 111.59 212.764 111.59ZM252.9 91.5V116H248.245L236.03 101.125V116H230.43V91.5H235.12L247.3 106.375V91.5H252.9Z" fill="white"/>
</svg>
