<svg width="111" height="124" viewBox="0 0 111 124" fill="none" xmlns="http://www.w3.org/2000/svg">
<g filter="url(#filter0_d)">
<path d="M58.589 108.004C41.029 110.034 23.0899 100.558 17.8219 97.8523H14C19.268 103.434 31.9128 117.348 58.589 115.11C82.4691 113.108 94.4153 100.891 98.22 93.2799H107L91.7123 83.1321L74.8611 93.2799H84.7055C82.5629 97.9929 76.1491 105.975 58.589 108.004Z" fill="#4CAF50"/>
<path d="M49.6124 8.41458C66.0697 6.18199 83.0979 15.3537 88.097 17.9713L91.6871 17.9235C86.6343 12.4546 74.4964 -1.18527 49.4797 1.36745C27.0852 3.65261 16.0917 15.9174 12.6599 23.5125L4.41236 23.6225L18.9625 33.4943L34.6022 23.22L25.3549 23.3433C27.2795 18.6427 33.1552 10.6472 49.6124 8.41458Z" fill="#4CAF50"/>
<path d="M58.589 105.99C41.029 108.02 23.0899 98.5446 17.8219 95.8385H14C19.268 101.42 31.9128 115.334 58.589 113.097C82.4691 111.094 94.4153 98.877 98.22 91.2662H107L91.7123 81.1184L74.8611 91.2662H84.7055C82.5629 95.9792 76.1491 103.961 58.589 105.99Z" fill="#388E3C"/>
<path d="M49.6503 10.4283C66.1075 8.19573 83.1357 17.3675 88.1348 19.9851L91.725 19.9372C86.6722 14.4684 74.5342 0.828462 49.5175 3.38119C27.123 5.66635 16.1295 17.9312 12.6978 25.5263L4.4502 25.6362L19.0004 35.5081L34.6401 25.2337L25.3927 25.357C27.3173 20.6564 33.193 12.6609 49.6503 10.4283Z" fill="#388E3C"/>
<path d="M38.3115 74.4003C34.1585 75.8895 24.8557 78.3573 20.8689 76.315C19.623 75.8568 20.2459 53.9772 20.2459 53.339C20.2459 52.7008 19.623 50.5733 19 49.5096L45.7869 41.851C45.7869 43.3401 47.0328 45.0421 47.6557 46.3185C48.3244 47.6885 54.5082 59.9339 57 66.7417C53.2623 69.2946 45.0393 74.0174 42.0492 72.4857L37 64.0018L38.3115 74.4003Z" fill="#247BA0"/>
<path fill-rule="evenodd" clip-rule="evenodd" d="M75.2206 25.7413C87.0839 31.2808 84.2274 29.5863 92 40.7382L84.1775 48.1233L82.4905 46.8752L82.5402 75.0773H52.4595L52.5095 46.8752L50.8223 48.1233L43 40.7382C50.7723 29.5863 47.9161 31.2808 59.7791 25.7413C60.9227 26.5943 64.0932 33.3839 67.304 33.4009C70.6455 33.4186 74.0307 26.629 75.2206 25.7413Z" fill="#EE5D5D"/>
<path d="M56.8482 80.4619L60.3932 82.0331L66.2843 78.6949L62.9689 72.7635L56.4888 76.4354L52.3144 74.5712C50.4096 73.7273 48.0901 74.3358 47.0309 76.1392C46.2464 77.4746 46.311 79.043 46.9908 80.2593C47.4059 81.0018 48.055 81.621 48.8896 81.9911L49.9461 82.4595C51.3666 80.1975 54.2988 79.3321 56.8482 80.4619ZM68.6407 77.3597C69.0475 77.1292 69.4885 77.0291 69.9254 77.0232C69.8969 76.9115 69.8779 76.7977 69.8189 76.6921L67.1666 71.9469C66.8004 71.2919 65.9759 71.0596 65.3253 71.4283L64.1471 72.0959L67.4625 78.0273L68.6407 77.3597ZM73.7973 83.8098L71.145 79.0647C70.7789 78.4096 69.9543 78.1773 69.3037 78.546L68.1255 79.2136L72.104 86.3313L73.2822 85.6637C73.9328 85.295 74.1635 84.4648 73.7973 83.8098ZM60.4672 83.5532L56.3036 81.7082C54.3989 80.8643 52.0794 81.4728 51.0202 83.2762C50.2356 84.6116 50.2894 86.1607 50.9693 87.377C51.3843 88.1195 52.0334 88.7387 52.8681 89.1088L58.4363 91.5768C59.2047 91.9174 60.0413 92.0732 60.8798 92.0318C61.7184 91.9905 62.5358 91.7531 63.2675 91.3385L70.9258 86.9989L66.9473 79.8812L60.4672 83.5532Z" fill="#029C66"/>
</g>
<defs>
<filter id="filter0_d" x="0" y="0.569763" width="111" height="122.782" filterUnits="userSpaceOnUse" color-interpolation-filters="sRGB">
<feFlood flood-opacity="0" result="BackgroundImageFix"/>
<feColorMatrix in="SourceAlpha" type="matrix" values="0 0 0 0 0 0 0 0 0 0 0 0 0 0 0 0 0 0 127 0"/>
<feOffset dy="4"/>
<feGaussianBlur stdDeviation="2"/>
<feColorMatrix type="matrix" values="0 0 0 0 0 0 0 0 0 0 0 0 0 0 0 0 0 0 0.25 0"/>
<feBlend mode="normal" in2="BackgroundImageFix" result="effect1_dropShadow"/>
<feBlend mode="normal" in="SourceGraphic" in2="effect1_dropShadow" result="shape"/>
</filter>
</defs>
</svg>
