<svg width="109" height="108" viewBox="0 0 109 108" fill="none" xmlns="http://www.w3.org/2000/svg">
<g filter="url(#filter0_d)">
<path d="M92.2282 73.2377C91.776 73.2377 91.3384 73.2965 90.9142 73.3914C89.7944 70.5726 87.061 68.5774 83.8608 68.5774C79.6631 68.5774 76.2621 72.004 76.2621 76.2294C76.2621 77.6371 76.6458 78.951 77.3045 80.083C76.9196 81.0015 76.7075 82.0104 76.7075 83.069C76.7075 87.3181 80.1299 90.7628 84.35 90.7628C87.7904 90.7628 90.6988 88.4739 91.657 85.3263C91.8489 85.3455 92.0341 85.3851 92.2304 85.3851C95.5619 85.3851 98.2616 82.6657 98.2616 79.3114C98.2616 75.9571 95.5596 73.2377 92.2282 73.2377Z" fill="white"/>
<path d="M101.603 91.8677C101.038 90.6904 99.8494 89.8702 98.4625 89.8702C96.5292 89.8702 94.9639 91.4474 94.9639 93.3917C94.9639 94.3035 95.3162 95.1259 95.8806 95.7518C95.7044 96.1134 95.5967 96.5156 95.5967 96.946C95.5967 98.4554 96.8119 99.6789 98.3122 99.6789C99.1122 99.6789 99.8236 99.3242 100.321 98.7695C100.629 98.8587 100.949 98.922 101.286 98.922C103.228 98.922 104.805 97.3358 104.805 95.3779C104.805 93.5318 103.395 92.0315 101.603 91.8677Z" fill="white"/>
<path d="M83.5085 18.4526C82.8453 18.4526 82.19 18.4911 81.5448 18.56C80.8749 8.20105 72.3393 0 61.8803 0C54.3186 0 47.7578 4.28863 44.4454 10.577C40.8637 7.18086 36.05 5.084 30.7426 5.084C19.6912 5.084 10.7325 14.1041 10.7325 25.2313C10.7325 28.3111 11.4383 31.218 12.6658 33.8278C7.42123 37.6803 4 43.8963 4 50.9337C4 62.6326 13.4199 72.117 25.039 72.117C30.0132 72.117 34.5767 70.3693 38.1775 67.4635C43.008 72.0944 49.5408 74.9415 56.7378 74.9415C68.9281 74.9415 79.221 66.7845 82.5401 55.5974C82.8621 55.6155 83.1808 55.6472 83.5085 55.6472C93.7116 55.6472 101.976 47.315 101.976 37.0476C101.976 26.7791 93.7116 18.4526 83.5085 18.4526Z" fill="white"/>
</g>
<path d="M35.8668 35.2674C34.6068 35.2674 33.4668 34.9914 32.4468 34.4394C31.4388 33.8754 30.6468 33.1074 30.0708 32.1354C29.4948 31.1514 29.2068 30.0474 29.2068 28.8234C29.2068 27.5994 29.4948 26.5014 30.0708 25.5294C30.6468 24.5454 31.4448 23.7774 32.4648 23.2254C33.4848 22.6614 34.6248 22.3794 35.8848 22.3794C36.8688 22.3794 37.7688 22.5474 38.5848 22.8834C39.4008 23.2074 40.0968 23.6934 40.6728 24.3414L39.5028 25.4754C38.5548 24.4794 37.3728 23.9814 35.9568 23.9814C35.0208 23.9814 34.1748 24.1914 33.4188 24.6114C32.6628 25.0314 32.0688 25.6134 31.6368 26.3574C31.2168 27.0894 31.0068 27.9114 31.0068 28.8234C31.0068 29.7354 31.2168 30.5634 31.6368 31.3074C32.0688 32.0394 32.6628 32.6154 33.4188 33.0354C34.1748 33.4554 35.0208 33.6654 35.9568 33.6654C37.3608 33.6654 38.5428 33.1614 39.5028 32.1534L40.6728 33.2874C40.0968 33.9354 39.3948 34.4274 38.5668 34.7634C37.7508 35.0994 36.8508 35.2674 35.8668 35.2674ZM42.9886 21.7674H44.7166V35.1234H42.9886V21.7674ZM48.0159 25.5834H49.7439V35.1234H48.0159V25.5834ZM48.8799 23.7474C48.5439 23.7474 48.2619 23.6394 48.0339 23.4234C47.8179 23.2074 47.7099 22.9434 47.7099 22.6314C47.7099 22.3194 47.8179 22.0554 48.0339 21.8394C48.2619 21.6114 48.5439 21.4974 48.8799 21.4974C49.2159 21.4974 49.4919 21.6054 49.7079 21.8214C49.9359 22.0254 50.0499 22.2834 50.0499 22.5954C50.0499 22.9194 49.9359 23.1954 49.7079 23.4234C49.4919 23.6394 49.2159 23.7474 48.8799 23.7474ZM57.2013 35.2314C56.2293 35.2314 55.3593 35.0214 54.5913 34.6014C53.8353 34.1814 53.2413 33.6054 52.8093 32.8734C52.3773 32.1294 52.1613 31.2894 52.1613 30.3534C52.1613 29.4174 52.3773 28.5834 52.8093 27.8514C53.2413 27.1074 53.8353 26.5314 54.5913 26.1234C55.3593 25.7034 56.2293 25.4934 57.2013 25.4934C58.0653 25.4934 58.8333 25.6674 59.5053 26.0154C60.1893 26.3634 60.7173 26.8674 61.0893 27.5274L59.7753 28.3734C59.4753 27.9174 59.1033 27.5754 58.6593 27.3474C58.2153 27.1194 57.7233 27.0054 57.1833 27.0054C56.5593 27.0054 55.9953 27.1434 55.4913 27.4194C54.9993 27.6954 54.6093 28.0914 54.3213 28.6074C54.0453 29.1114 53.9073 29.6934 53.9073 30.3534C53.9073 31.0254 54.0453 31.6194 54.3213 32.1354C54.6093 32.6394 54.9993 33.0294 55.4913 33.3054C55.9953 33.5814 56.5593 33.7194 57.1833 33.7194C57.7233 33.7194 58.2153 33.6054 58.6593 33.3774C59.1033 33.1494 59.4753 32.8074 59.7753 32.3514L61.0893 33.1794C60.7173 33.8394 60.1893 34.3494 59.5053 34.7094C58.8333 35.0574 58.0653 35.2314 57.2013 35.2314ZM66.9114 30.6774L64.9314 32.5134V35.1234H63.2034V21.7674H64.9314V30.3354L70.1334 25.5834H72.2214L68.2074 29.5254L72.6174 35.1234H70.4934L66.9114 30.6774ZM36.4722 47.4934C37.6842 47.4934 38.6442 47.8474 39.3522 48.5554C40.0722 49.2514 40.4322 50.2774 40.4322 51.6334V57.1234H38.7042V51.8314C38.7042 50.9074 38.4822 50.2114 38.0382 49.7434C37.5942 49.2754 36.9582 49.0414 36.1302 49.0414C35.1942 49.0414 34.4562 49.3174 33.9162 49.8694C33.3762 50.4094 33.1062 51.1894 33.1062 52.2094V57.1234H31.3782V43.7674H33.1062V48.9334C33.4662 48.4774 33.9342 48.1234 34.5102 47.8714C35.0982 47.6194 35.7522 47.4934 36.4722 47.4934ZM52.3049 52.4074C52.3049 52.5394 52.2929 52.7134 52.2689 52.9294H44.5289C44.6369 53.7694 45.0029 54.4474 45.6269 54.9634C46.2629 55.4674 47.0489 55.7194 47.9849 55.7194C49.1249 55.7194 50.0429 55.3354 50.7389 54.5674L51.6929 55.6834C51.2609 56.1874 50.7209 56.5714 50.0729 56.8354C49.4369 57.0994 48.7229 57.2314 47.9309 57.2314C46.9229 57.2314 46.0289 57.0274 45.2489 56.6194C44.4689 56.1994 43.8629 55.6174 43.4309 54.8734C43.0109 54.1294 42.8009 53.2894 42.8009 52.3534C42.8009 51.4294 43.0049 50.5954 43.4129 49.8514C43.8329 49.1074 44.4029 48.5314 45.1229 48.1234C45.8549 47.7034 46.6769 47.4934 47.5889 47.4934C48.5009 47.4934 49.3109 47.7034 50.0189 48.1234C50.7389 48.5314 51.2969 49.1074 51.6929 49.8514C52.1009 50.5954 52.3049 51.4474 52.3049 52.4074ZM47.5889 48.9514C46.7609 48.9514 46.0649 49.2034 45.5009 49.7074C44.9489 50.2114 44.6249 50.8714 44.5289 51.6874H50.6489C50.5529 50.8834 50.2229 50.2294 49.6589 49.7254C49.1069 49.2094 48.4169 48.9514 47.5889 48.9514ZM56.3604 49.1854C56.6604 48.6334 57.1044 48.2134 57.6924 47.9254C58.2804 47.6374 58.9944 47.4934 59.8344 47.4934V49.1674C59.7384 49.1554 59.6064 49.1494 59.4384 49.1494C58.5024 49.1494 57.7644 49.4314 57.2244 49.9954C56.6964 50.5474 56.4324 51.3394 56.4324 52.3714V57.1234H54.7044V47.5834H56.3604V49.1854ZM70.4983 52.4074C70.4983 52.5394 70.4863 52.7134 70.4623 52.9294H62.7223C62.8303 53.7694 63.1963 54.4474 63.8203 54.9634C64.4563 55.4674 65.2423 55.7194 66.1783 55.7194C67.3183 55.7194 68.2363 55.3354 68.9323 54.5674L69.8863 55.6834C69.4543 56.1874 68.9143 56.5714 68.2663 56.8354C67.6303 57.0994 66.9163 57.2314 66.1243 57.2314C65.1163 57.2314 64.2223 57.0274 63.4423 56.6194C62.6623 56.1994 62.0563 55.6174 61.6243 54.8734C61.2043 54.1294 60.9943 53.2894 60.9943 52.3534C60.9943 51.4294 61.1983 50.5954 61.6063 49.8514C62.0263 49.1074 62.5963 48.5314 63.3163 48.1234C64.0483 47.7034 64.8703 47.4934 65.7823 47.4934C66.6943 47.4934 67.5043 47.7034 68.2123 48.1234C68.9323 48.5314 69.4903 49.1074 69.8863 49.8514C70.2943 50.5954 70.4983 51.4474 70.4983 52.4074ZM65.7823 48.9514C64.9543 48.9514 64.2583 49.2034 63.6943 49.7074C63.1423 50.2114 62.8183 50.8714 62.7223 51.6874H68.8423C68.7463 50.8834 68.4163 50.2294 67.8523 49.7254C67.3003 49.2094 66.6103 48.9514 65.7823 48.9514Z" fill="#333333"/>
<defs>
<filter id="filter0_d" x="0" y="0" width="108.805" height="107.679" filterUnits="userSpaceOnUse" color-interpolation-filters="sRGB">
<feFlood flood-opacity="0" result="BackgroundImageFix"/>
<feColorMatrix in="SourceAlpha" type="matrix" values="0 0 0 0 0 0 0 0 0 0 0 0 0 0 0 0 0 0 127 0"/>
<feOffset dy="4"/>
<feGaussianBlur stdDeviation="2"/>
<feColorMatrix type="matrix" values="0 0 0 0 0 0 0 0 0 0 0 0 0 0 0 0 0 0 0.25 0"/>
<feBlend mode="normal" in2="BackgroundImageFix" result="effect1_dropShadow"/>
<feBlend mode="normal" in="SourceGraphic" in2="effect1_dropShadow" result="shape"/>
</filter>
</defs>
</svg>
