<svg width="107" height="167" viewBox="0 0 107 167" fill="none" xmlns="http://www.w3.org/2000/svg">
<path d="M53.3982 94.1672C51.9051 94.1672 50.4457 94.6091 49.2043 95.437C47.9629 96.2649 46.9953 97.4417 46.424 98.8185C45.8526 100.195 45.7031 101.71 45.9944 103.172C46.2857 104.633 47.0046 105.976 48.0604 107.03C49.1161 108.083 50.4611 108.801 51.9255 109.092C53.3898 109.383 54.9076 109.233 56.2869 108.663C57.6663 108.093 58.8453 107.127 59.6747 105.888C60.5042 104.649 60.9469 103.192 60.9469 101.702C60.9469 99.7036 60.1516 97.7871 58.7359 96.374C57.3203 94.961 55.4002 94.1672 53.3982 94.1672Z" fill="#EB3825"/>
<path d="M89.4026 39.2369H79.6623V28.473H27.1339V39.2369H17.3935C12.7805 39.2369 8.35636 41.066 5.09444 44.3218C1.83252 47.5776 0 51.9935 0 56.598L0 149.306C0 153.911 1.83252 158.327 5.09444 161.582C8.35636 164.838 12.7805 166.667 17.3935 166.667H89.4026C94.0157 166.667 98.4398 164.838 101.702 161.582C104.964 158.327 106.796 153.911 106.796 149.306V56.598C106.796 51.9935 104.964 47.5776 101.702 44.3218C98.4398 41.066 94.0157 39.2369 89.4026 39.2369ZM53.3981 69.0285C57.8489 69.0323 62.2522 69.9421 66.3388 71.7021C65.4377 74.2374 63.8183 76.4569 61.6774 78.091C59.0213 77.1322 56.2223 76.6275 53.3981 76.598C50.5849 76.6247 47.7968 77.1296 45.1535 78.091C43.0255 76.4521 41.4185 74.2331 40.5269 71.7021C44.589 69.942 48.9697 69.032 53.3981 69.0285ZM98.0298 105.001C97.7796 105.163 97.4784 105.228 97.1834 105.183C96.8884 105.138 96.6201 104.987 96.4296 104.758C95.1523 103.155 93.6113 101.782 91.8725 100.695C89.73 99.4351 87.3569 98.6146 84.8926 98.282C82.4282 97.9493 79.922 98.1111 77.5211 98.7579C75.1202 99.4047 72.8729 100.524 70.9109 102.049C68.9488 103.574 67.3117 105.475 66.0953 107.64C63.6007 112.069 62.9319 117.294 64.2306 122.207C65.5293 127.12 68.6935 131.335 73.0527 133.959C74.7829 134.983 76.6779 135.7 78.6534 136.077C78.9388 136.14 79.1942 136.298 79.3775 136.526C79.5609 136.753 79.6613 137.035 79.6623 137.327C79.6693 137.625 79.5725 137.916 79.3885 138.15C79.2045 138.384 78.9447 138.548 78.6534 138.612C73.9921 139.54 69.1639 139.155 64.7095 137.499C60.2552 135.843 56.3505 132.982 53.4328 129.237C50.5454 133.038 46.6495 135.957 42.1862 137.663C37.7228 139.369 32.8702 139.794 28.1775 138.89C27.8862 138.825 27.6264 138.662 27.4424 138.428C27.2584 138.193 27.1616 137.903 27.1687 137.605C27.1696 137.313 27.2701 137.03 27.4534 136.803C27.6368 136.576 27.8921 136.418 28.1775 136.355C30.1477 135.959 32.0397 135.243 33.7782 134.237C38.1374 131.613 41.3016 127.397 42.6003 122.484C43.8991 117.571 43.2302 112.347 40.7356 107.917C39.5193 105.752 37.8821 103.852 35.9201 102.326C33.958 100.801 31.7107 99.6825 29.3098 99.0357C26.9089 98.3889 24.4028 98.2271 21.9384 98.5597C19.474 98.8924 17.1009 99.7128 14.9584 100.973C13.2536 101.979 11.7258 103.258 10.4361 104.758C10.2456 104.987 9.97732 105.138 9.68233 105.183C9.38733 105.228 9.08613 105.163 8.8359 105.001C8.59176 104.84 8.40808 104.602 8.31364 104.326C8.21921 104.049 8.21937 103.749 8.3141 103.473C10.3567 97.4206 14.4868 92.2891 19.9677 88.9938C22.656 87.4411 25.6016 86.3826 28.6645 85.8688C27.6443 83.0392 27.1149 80.0566 27.0991 77.0494C27.1036 70.619 29.3828 64.3968 33.5347 59.4799C33.7184 59.2542 33.9753 59.0995 34.261 59.0424C34.5468 58.9854 34.8435 59.0296 35.1001 59.1674C35.3551 59.319 35.5498 59.5538 35.6513 59.8323C35.7527 60.1107 35.7546 60.4155 35.6567 60.6952C35.0061 62.6441 34.6657 64.6827 34.6479 66.7369C34.5386 69.274 34.9449 71.8069 35.8423 74.1831C36.7397 76.5593 38.1096 78.7297 39.8696 80.5635C41.6295 82.3973 43.7431 83.8567 46.0831 84.8536C48.423 85.8505 50.9409 86.3645 53.485 86.3645C56.0292 86.3645 58.5471 85.8505 60.887 84.8536C63.2269 83.8567 65.3405 82.3973 67.1005 80.5635C68.8604 78.7297 70.2304 76.5593 71.1278 74.1831C72.0252 71.8069 72.4315 69.274 72.3222 66.7369C72.3043 64.6827 71.9639 62.6441 71.3134 60.6952C71.2154 60.4155 71.2174 60.1107 71.3188 59.8323C71.4202 59.5538 71.6149 59.319 71.87 59.1674C72.1266 59.0296 72.4233 58.9854 72.709 59.0424C72.9948 59.0995 73.2516 59.2542 73.4354 59.4799C76.505 63.06 78.5721 67.3862 79.4273 72.0204C80.2826 76.6545 79.8956 81.432 78.3056 85.8688C81.37 86.3767 84.3167 87.4355 87.0023 88.9938C92.4907 92.272 96.6147 97.4112 98.6212 103.473C98.7094 103.757 98.6991 104.062 98.5917 104.34C98.4844 104.617 98.2864 104.85 98.0298 105.001ZM85.9935 103.716C85.7082 108.427 84.4037 113.021 82.1697 117.181C79.9358 121.341 76.8254 124.968 73.0527 127.813C71.1958 125.972 69.8631 123.671 69.1914 121.147C71.7687 119.067 73.9029 116.493 75.4681 113.577C77.0334 110.661 77.9982 107.461 78.3056 104.167C79.6486 103.701 81.0582 103.455 82.48 103.438C83.6583 103.375 84.8398 103.469 85.9935 103.716ZM20.8722 103.751C22.0025 103.424 23.174 103.26 24.3509 103.265C25.7601 103.335 27.1476 103.64 28.4558 104.167C28.7708 107.504 29.7518 110.743 31.341 113.695C32.9303 116.647 35.0955 119.252 37.7091 121.355C37.0707 123.875 35.7464 126.171 33.8825 127.987C30.078 125.135 26.9428 121.489 24.6957 117.303C22.4486 113.117 21.1438 108.492 20.8722 103.751Z" fill="#EB3825"/>
<path d="M25.0464 21.5278H82.0971C84.9572 21.5278 87.7001 20.3937 89.7225 18.3751C91.7449 16.3565 92.8811 13.6187 92.8811 10.7639C92.8811 7.90913 91.7449 5.17129 89.7225 3.15267C87.7001 1.13405 84.9572 0 82.0971 0H25.0464C22.1863 0 19.4434 1.13405 17.421 3.15267C15.3986 5.17129 14.2625 7.90913 14.2625 10.7639C14.2625 13.6187 15.3986 16.3565 17.421 18.3751C19.4434 20.3937 22.1863 21.5278 25.0464 21.5278Z" fill="#EB3825"/>
</svg>
