<svg width="207" height="241" viewBox="0 0 207 241" fill="none" xmlns="http://www.w3.org/2000/svg">
<path fill-rule="evenodd" clip-rule="evenodd" d="M40.0658 213.16H63.0642V175.273H89.2099V156.269H115.356V175.273H141.501V137.023H166.921V88.7257L174.062 93.9306L206.986 62.9432C174.183 16.0989 186.167 23.2406 136.054 0C130.97 3.75238 116.687 32.1979 102.646 32.0768C89.0888 32.0768 75.6529 3.63134 70.9321 0C20.8197 23.2406 32.8031 16.22 0 62.9432L33.0452 93.9306L40.1868 88.7257L40.0658 213.16Z" fill="#029C66"/>
<path d="M166.436 145.133H145.737V165.831H166.436V145.133Z" fill="#029C66"/>
<path d="M110.513 174.668H93.8091V191.372H110.513V174.668Z" fill="#029C66"/>
<path d="M80.3732 179.51H69.9634V189.92H80.3732V179.51Z" fill="#029C66"/>
<path d="M135.691 186.288H125.281V196.698H135.691V186.288Z" fill="#029C66"/>
<path d="M78.4365 205.17H69.9634V213.643H78.4365V205.17Z" fill="#029C66"/>
<path d="M107.85 218.485H96.4722V229.863H107.85V218.485Z" fill="#029C66"/>
<path d="M87.0309 233.253H80.2524V240.031H87.0309V233.253Z" fill="#029C66"/>
<path d="M166.557 182.899H159.778V189.677H166.557V182.899Z" fill="#029C66"/>
<path d="M107.85 198.634H96.4722V210.012H107.85V198.634Z" fill="#029C66"/>
<path d="M56.4065 228.29H43.6968V241H56.4065V228.29Z" fill="#029C66"/>
<path d="M89.7164 100.248V105H70.6724V101.22L80.3924 92.04C81.4244 91.056 82.1204 90.216 82.4804 89.52C82.8404 88.8 83.0204 88.092 83.0204 87.396C83.0204 86.388 82.6724 85.62 81.9764 85.092C81.3044 84.54 80.3084 84.264 78.9884 84.264C77.8844 84.264 76.8884 84.48 76.0004 84.912C75.1124 85.32 74.3684 85.944 73.7684 86.784L69.5204 84.048C70.5044 82.584 71.8604 81.444 73.5884 80.628C75.3164 79.788 77.2964 79.368 79.5284 79.368C81.4004 79.368 83.0324 79.68 84.4244 80.304C85.8404 80.904 86.9324 81.768 87.7004 82.896C88.4924 84 88.8884 85.308 88.8884 86.82C88.8884 88.188 88.6004 89.472 88.0244 90.672C87.4484 91.872 86.3324 93.24 84.6764 94.776L78.8804 100.248H89.7164ZM102.852 105.432C100.764 105.432 98.9044 104.916 97.2724 103.884C95.6404 102.852 94.3564 101.364 93.4204 99.42C92.5084 97.452 92.0524 95.112 92.0524 92.4C92.0524 89.688 92.5084 87.36 93.4204 85.416C94.3564 83.448 95.6404 81.948 97.2724 80.916C98.9044 79.884 100.764 79.368 102.852 79.368C104.94 79.368 106.8 79.884 108.432 80.916C110.064 81.948 111.336 83.448 112.248 85.416C113.184 87.36 113.652 89.688 113.652 92.4C113.652 95.112 113.184 97.452 112.248 99.42C111.336 101.364 110.064 102.852 108.432 103.884C106.8 104.916 104.94 105.432 102.852 105.432ZM102.852 100.5C104.388 100.5 105.588 99.84 106.452 98.52C107.34 97.2 107.784 95.16 107.784 92.4C107.784 89.64 107.34 87.6 106.452 86.28C105.588 84.96 104.388 84.3 102.852 84.3C101.34 84.3 100.14 84.96 99.2524 86.28C98.3884 87.6 97.9564 89.64 97.9564 92.4C97.9564 95.16 98.3884 97.2 99.2524 98.52C100.14 99.84 101.34 100.5 102.852 100.5ZM127.286 105.432C125.198 105.432 123.338 104.916 121.706 103.884C120.074 102.852 118.79 101.364 117.854 99.42C116.942 97.452 116.486 95.112 116.486 92.4C116.486 89.688 116.942 87.36 117.854 85.416C118.79 83.448 120.074 81.948 121.706 80.916C123.338 79.884 125.198 79.368 127.286 79.368C129.374 79.368 131.234 79.884 132.866 80.916C134.498 81.948 135.77 83.448 136.682 85.416C137.618 87.36 138.086 89.688 138.086 92.4C138.086 95.112 137.618 97.452 136.682 99.42C135.77 101.364 134.498 102.852 132.866 103.884C131.234 104.916 129.374 105.432 127.286 105.432ZM127.286 100.5C128.822 100.5 130.022 99.84 130.886 98.52C131.774 97.2 132.218 95.16 132.218 92.4C132.218 89.64 131.774 87.6 130.886 86.28C130.022 84.96 128.822 84.3 127.286 84.3C125.774 84.3 124.574 84.96 123.686 86.28C122.822 87.6 122.39 89.64 122.39 92.4C122.39 95.16 122.822 97.2 123.686 98.52C124.574 99.84 125.774 100.5 127.286 100.5Z" fill="white"/>
<path d="M75.4666 52.172C76.9666 52.172 78.1186 52.532 78.9226 53.252C79.7266 53.96 80.1286 55.034 80.1286 56.474V62H77.5006V60.794C76.9726 61.694 75.9886 62.144 74.5486 62.144C73.8046 62.144 73.1566 62.018 72.6046 61.766C72.0646 61.514 71.6506 61.166 71.3626 60.722C71.0746 60.278 70.9306 59.774 70.9306 59.21C70.9306 58.31 71.2666 57.602 71.9386 57.086C72.6226 56.57 73.6726 56.312 75.0886 56.312H77.3206C77.3206 55.7 77.1346 55.232 76.7626 54.908C76.3906 54.572 75.8326 54.404 75.0886 54.404C74.5726 54.404 74.0626 54.488 73.5586 54.656C73.0666 54.812 72.6466 55.028 72.2986 55.304L71.2906 53.342C71.8186 52.97 72.4486 52.682 73.1806 52.478C73.9246 52.274 74.6866 52.172 75.4666 52.172ZM75.2506 60.254C75.7306 60.254 76.1566 60.146 76.5286 59.93C76.9006 59.702 77.1646 59.372 77.3206 58.94V57.95H75.3946C74.2426 57.95 73.6666 58.328 73.6666 59.084C73.6666 59.444 73.8046 59.732 74.0806 59.948C74.3686 60.152 74.7586 60.254 75.2506 60.254ZM88.394 52.172C89.294 52.172 90.11 52.382 90.842 52.802C91.586 53.21 92.168 53.792 92.588 54.548C93.008 55.292 93.218 56.162 93.218 57.158C93.218 58.154 93.008 59.03 92.588 59.786C92.168 60.53 91.586 61.112 90.842 61.532C90.11 61.94 89.294 62.144 88.394 62.144C87.158 62.144 86.186 61.754 85.478 60.974V65.492H82.67V52.316H85.352V53.432C86.048 52.592 87.062 52.172 88.394 52.172ZM87.908 59.84C88.628 59.84 89.216 59.6 89.672 59.12C90.14 58.628 90.374 57.974 90.374 57.158C90.374 56.342 90.14 55.694 89.672 55.214C89.216 54.722 88.628 54.476 87.908 54.476C87.188 54.476 86.594 54.722 86.126 55.214C85.67 55.694 85.442 56.342 85.442 57.158C85.442 57.974 85.67 58.628 86.126 59.12C86.594 59.6 87.188 59.84 87.908 59.84ZM100.822 52.172C101.722 52.172 102.538 52.382 103.27 52.802C104.014 53.21 104.596 53.792 105.016 54.548C105.436 55.292 105.646 56.162 105.646 57.158C105.646 58.154 105.436 59.03 105.016 59.786C104.596 60.53 104.014 61.112 103.27 61.532C102.538 61.94 101.722 62.144 100.822 62.144C99.5858 62.144 98.6138 61.754 97.9058 60.974V65.492H95.0978V52.316H97.7798V53.432C98.4758 52.592 99.4898 52.172 100.822 52.172ZM100.336 59.84C101.056 59.84 101.644 59.6 102.1 59.12C102.568 58.628 102.802 57.974 102.802 57.158C102.802 56.342 102.568 55.694 102.1 55.214C101.644 54.722 101.056 54.476 100.336 54.476C99.6158 54.476 99.0218 54.722 98.5538 55.214C98.0978 55.694 97.8698 56.342 97.8698 57.158C97.8698 57.974 98.0978 58.628 98.5538 59.12C99.0218 59.6 99.6158 59.84 100.336 59.84ZM110.207 53.594C110.543 53.126 110.993 52.772 111.557 52.532C112.133 52.292 112.793 52.172 113.537 52.172V54.764C113.225 54.74 113.015 54.728 112.907 54.728C112.103 54.728 111.473 54.956 111.017 55.412C110.561 55.856 110.333 56.528 110.333 57.428V62H107.525V52.316H110.207V53.594ZM119.727 62.144C118.707 62.144 117.789 61.934 116.973 61.514C116.169 61.082 115.539 60.488 115.083 59.732C114.627 58.976 114.399 58.118 114.399 57.158C114.399 56.198 114.627 55.34 115.083 54.584C115.539 53.828 116.169 53.24 116.973 52.82C117.789 52.388 118.707 52.172 119.727 52.172C120.747 52.172 121.659 52.388 122.463 52.82C123.267 53.24 123.897 53.828 124.353 54.584C124.809 55.34 125.037 56.198 125.037 57.158C125.037 58.118 124.809 58.976 124.353 59.732C123.897 60.488 123.267 61.082 122.463 61.514C121.659 61.934 120.747 62.144 119.727 62.144ZM119.727 59.84C120.447 59.84 121.035 59.6 121.491 59.12C121.959 58.628 122.193 57.974 122.193 57.158C122.193 56.342 121.959 55.694 121.491 55.214C121.035 54.722 120.447 54.476 119.727 54.476C119.007 54.476 118.413 54.722 117.945 55.214C117.477 55.694 117.243 56.342 117.243 57.158C117.243 57.974 117.477 58.628 117.945 59.12C118.413 59.6 119.007 59.84 119.727 59.84ZM132.771 62L130.647 59.03L128.451 62H125.391L129.117 57.122L125.517 52.316H128.667L130.719 55.142L132.825 52.316H135.813L132.213 57.05L135.957 62H132.771ZM138.382 62.144C137.89 62.144 137.476 61.976 137.14 61.64C136.804 61.304 136.636 60.884 136.636 60.38C136.636 59.864 136.804 59.45 137.14 59.138C137.476 58.814 137.89 58.652 138.382 58.652C138.874 58.652 139.288 58.814 139.624 59.138C139.96 59.45 140.128 59.864 140.128 60.38C140.128 60.884 139.96 61.304 139.624 61.64C139.288 61.976 138.874 62.144 138.382 62.144Z" fill="white"/>
<path d="M80.7354 129.536V134H77.8194V129.5L72.9414 121.4H76.0374L79.4034 126.998L82.7694 121.4H85.6314L80.7354 129.536ZM96.4844 131.66V134H86.7284V121.4H96.2504V123.74H89.6264V126.476H95.4764V128.744H89.6264V131.66H96.4844ZM107.103 131.3H101.253L100.137 134H97.1485L102.765 121.4H105.645L111.279 134H108.219L107.103 131.3ZM106.185 129.086L104.187 124.262L102.189 129.086H106.185ZM120.614 134L118.184 130.49H118.04H115.502V134H112.586V121.4H118.04C119.156 121.4 120.122 121.586 120.938 121.958C121.766 122.33 122.402 122.858 122.846 123.542C123.29 124.226 123.512 125.036 123.512 125.972C123.512 126.908 123.284 127.718 122.828 128.402C122.384 129.074 121.748 129.59 120.92 129.95L123.746 134H120.614ZM120.56 125.972C120.56 125.264 120.332 124.724 119.876 124.352C119.42 123.968 118.754 123.776 117.878 123.776H115.502V128.168H117.878C118.754 128.168 119.42 127.976 119.876 127.592C120.332 127.208 120.56 126.668 120.56 125.972ZM129.962 134.216C128.966 134.216 128 134.084 127.064 133.82C126.14 133.544 125.396 133.19 124.832 132.758L125.822 130.562C126.362 130.958 127.004 131.276 127.748 131.516C128.492 131.756 129.236 131.876 129.98 131.876C130.808 131.876 131.42 131.756 131.816 131.516C132.212 131.264 132.41 130.934 132.41 130.526C132.41 130.226 132.29 129.98 132.05 129.788C131.822 129.584 131.522 129.422 131.15 129.302C130.79 129.182 130.298 129.05 129.674 128.906C128.714 128.678 127.928 128.45 127.316 128.222C126.704 127.994 126.176 127.628 125.732 127.124C125.3 126.62 125.084 125.948 125.084 125.108C125.084 124.376 125.282 123.716 125.678 123.128C126.074 122.528 126.668 122.054 127.46 121.706C128.264 121.358 129.242 121.184 130.394 121.184C131.198 121.184 131.984 121.28 132.752 121.472C133.52 121.664 134.192 121.94 134.768 122.3L133.868 124.514C132.704 123.854 131.54 123.524 130.376 123.524C129.56 123.524 128.954 123.656 128.558 123.92C128.174 124.184 127.982 124.532 127.982 124.964C127.982 125.396 128.204 125.72 128.648 125.936C129.104 126.14 129.794 126.344 130.718 126.548C131.678 126.776 132.464 127.004 133.076 127.232C133.688 127.46 134.21 127.82 134.642 128.312C135.086 128.804 135.308 129.47 135.308 130.31C135.308 131.03 135.104 131.69 134.696 132.29C134.3 132.878 133.7 133.346 132.896 133.694C132.092 134.042 131.114 134.216 129.962 134.216Z" fill="white"/>
</svg>
