<svg width="234" height="307" viewBox="0 0 234 307" fill="none" xmlns="http://www.w3.org/2000/svg">
<g clip-path="url(#clip0)" filter="url(#filter0_d)">
<path d="M183.215 287.647V299.068H143C143 299.068 143.243 295.549 147.009 291.386C150.774 287.223 167.872 292.755 167.872 292.755L173.738 287.277C173.738 287.277 174.596 291.509 183.215 287.647Z" fill="url(#paint0_linear)"/>
<path d="M184.559 261.696L183.279 287.593H183.151C174.531 291.454 173.673 287.264 173.673 287.264L172.008 261.641L184.559 261.696Z" fill="#FFEBC7"/>
<path d="M230 299.069H189.798V287.716C198.404 291.578 199.262 287.387 199.262 287.387L205.141 292.865C205.141 292.865 222.239 287.291 226.004 291.496C229.769 295.7 230 299.069 230 299.069Z" fill="#237CA1"/>
<path d="M229.091 135.199C226.824 143.238 219.139 143.238 219.139 143.238C219.139 143.238 229.962 151.879 224.045 159.48C219.242 165.656 213.952 160.397 213.799 160.206C213.94 160.658 215.771 166.355 213.53 168.792L212.518 167.423C210.789 165.095 206.934 162.232 204.193 160.356C202.439 159.151 201.132 158.357 201.132 158.357V151.263C206.575 147.949 208.151 140.677 208.151 136.596L209.431 96.1974C189.273 95.0196 186.545 78.189 186.545 78.189C186.545 78.189 183.727 95.0196 163.62 96.1974L164.901 136.596C164.901 140.705 167.334 149.195 171.932 151.263V158.357C171.932 158.357 170.715 159.11 169.037 160.247C166.284 162.123 162.301 165.04 160.546 167.423L159.534 168.792C157.28 166.355 159.112 160.658 159.252 160.206C159.048 160.397 153.771 165.684 149.007 159.48C143 151.879 153.873 143.238 153.873 143.238C153.873 143.238 146.189 143.238 143.922 135.199C141.655 127.161 152.08 125.408 152.08 125.408C150.142 125.218 148.318 124.338 146.904 122.907C145.489 121.477 144.566 119.579 144.281 117.52C141.924 105.784 154.975 102.319 154.975 102.319C144.934 94.7047 151.811 80.6951 160.162 83.6532C168.538 72.944 171.637 69 186.545 69C201.453 69 204.475 72.944 212.851 83.6532C221.189 80.6951 228.066 94.7047 218.076 102.319C218.076 102.319 231.14 105.784 228.783 117.52C228.496 119.588 227.565 121.491 226.14 122.923C224.715 124.355 222.88 125.23 220.932 125.408C220.932 125.408 231.37 127.161 229.091 135.199Z" fill="url(#paint1_radial)"/>
<path d="M220.843 261.696H152.157L161.186 222.42H211.826L220.843 261.696Z" fill="#0D395E"/>
<path d="M200.927 261.696L199.262 287.319C199.262 287.319 198.404 291.509 189.798 287.647H189.657L188.453 261.751L200.927 261.696Z" fill="#FFEBC7"/>
<path d="M186.545 78.189C186.545 78.189 183.727 95.0196 163.62 96.1973L164.9 136.596C164.9 140.705 167.372 149.346 171.932 151.263V158.357C171.932 158.357 177.054 171.517 185.571 172.421C185.883 172.442 186.195 172.442 186.506 172.421C186.86 172.442 187.215 172.442 187.569 172.421C196.061 171.394 201.081 158.371 201.081 158.371V151.263C206.588 148.017 208.099 140.677 208.099 136.596L209.38 96.1973C189.273 95.0196 186.545 78.189 186.545 78.189Z" fill="#FFEBC7"/>
<path d="M221.829 180.049L219.165 181.912L211.827 187.02V202.851H193.474C193.474 202.851 191.322 203.823 193.474 205.042H196.419C196.419 205.042 193.858 206.507 195.472 207.466C195.472 207.466 194.678 210.876 198.968 210.999C198.968 210.999 197.854 212.368 200.864 212.45H211.827V222.379H161.187V212.409H172.137C175.159 212.286 174.045 210.958 174.045 210.958C178.336 210.835 177.542 207.425 177.542 207.425C179.13 206.466 176.594 205.001 176.594 205.001H179.539C181.678 203.782 179.539 202.81 179.539 202.81H161.187V187.02L153.848 181.912L151.184 180.049L159.534 168.792L160.546 167.423C162.301 165.04 166.284 162.123 169.037 160.247C169.524 163.657 173.11 185.089 185.572 172.421C185.883 172.442 186.195 172.442 186.507 172.421C186.861 172.442 187.216 172.442 187.57 172.421C199.788 184.623 203.566 164.081 204.142 160.37C206.883 162.246 210.738 165.108 212.467 167.436L213.479 168.806L221.829 180.049Z" fill="#EB3825"/>
<path d="M179.539 202.851H161.186V187.02L153.848 181.912L143.512 212.45H172.137C175.159 212.327 174.045 210.999 174.045 210.999C178.335 210.876 177.541 207.466 177.541 207.466C179.129 206.507 176.593 205.042 176.593 205.042H179.539C181.678 203.823 179.539 202.851 179.539 202.851Z" fill="#FFEBC7"/>
<path d="M219.165 181.912L211.826 187.02V202.851H193.473C193.473 202.851 191.322 203.823 193.473 205.042H196.419C196.419 205.042 193.858 206.507 195.471 207.466C195.471 207.466 194.677 210.876 198.968 210.999C198.968 210.999 197.853 212.368 200.863 212.45H229.487L219.165 181.912Z" fill="#FFEBC7"/>
<path d="M185.571 172.421C173.11 185.089 169.524 163.657 169.037 160.247C170.715 159.11 171.932 158.357 171.932 158.357C171.932 158.357 177.003 171.517 185.571 172.421Z" fill="#951F1E"/>
<path d="M204.142 160.356C203.566 164.068 199.787 184.609 187.569 172.408C196.061 171.381 201.081 158.357 201.081 158.357C201.081 158.357 202.387 159.151 204.142 160.356Z" fill="#951F1E"/>
<path d="M197.7 133.501C196.266 134.829 194.586 135.819 192.769 136.404C190.95 137.02 189.055 137.339 187.147 137.349C185.24 137.336 183.346 137.023 181.525 136.418C179.708 135.827 178.027 134.833 176.594 133.501C178.243 134.354 179.986 134.984 181.781 135.377C185.319 136.181 188.975 136.181 192.513 135.377C194.308 134.984 196.051 134.354 197.7 133.501Z" fill="#E30613"/>
<path d="M173.148 117.684C172.713 115.429 172.678 113.106 173.046 110.837C173.222 109.623 173.66 108.469 174.327 107.468C174.702 106.93 175.19 106.492 175.752 106.191C176.313 105.89 176.932 105.733 177.561 105.733C178.189 105.733 178.808 105.89 179.37 106.191C179.931 106.492 180.419 106.93 180.794 107.468C181.461 108.474 181.899 109.632 182.075 110.851C182.416 113.124 182.36 115.446 181.909 117.698C181.872 115.45 181.601 113.213 181.102 111.029C180.577 108.92 179.411 106.92 177.541 107.043C175.672 107.167 174.506 108.933 173.955 111.029C173.464 113.21 173.194 115.441 173.148 117.684Z" fill="#51524F"/>
<path d="M192.475 117.684C192.039 115.429 192.004 113.106 192.372 110.837C192.548 109.623 192.986 108.469 193.653 107.468C194.028 106.94 194.512 106.512 195.068 106.218C195.623 105.923 196.235 105.77 196.855 105.77C197.475 105.77 198.086 105.923 198.642 106.218C199.197 106.512 199.681 106.94 200.057 107.468C200.727 108.472 201.166 109.631 201.337 110.851C201.678 113.124 201.622 115.446 201.171 117.698C201.134 115.45 200.863 113.213 200.364 111.029C199.839 108.92 198.673 106.92 196.804 107.044C194.934 107.167 193.755 108.933 193.217 111.029C192.748 113.212 192.499 115.444 192.475 117.684Z" fill="#51524F"/>
<path d="M159.867 290.852C160.243 291.985 160.467 293.17 160.533 294.371" stroke="white" stroke-linecap="round" stroke-linejoin="round"/>
<path d="M162.762 291.55C163.299 292.578 163.485 293.774 163.287 294.933" stroke="white" stroke-linecap="round" stroke-linejoin="round"/>
<path d="M213.146 290.852C212.772 291.987 212.543 293.17 212.467 294.371" stroke="white" stroke-linecap="round" stroke-linejoin="round"/>
<path d="M210.251 291.55C209.715 292.579 209.525 293.773 209.713 294.933" stroke="white" stroke-linecap="round" stroke-linejoin="round"/>
</g>
<g filter="url(#filter1_d)">
<path d="M118.656 94.0462C118.069 94.0462 117.5 94.1216 116.949 94.2435C115.494 90.6238 111.941 88.0618 107.783 88.0618C102.328 88.0618 97.9077 92.462 97.9077 97.8878C97.9077 99.6955 98.4064 101.383 99.2624 102.836C98.7622 104.016 98.4866 105.311 98.4866 106.671C98.4866 112.127 102.934 116.551 108.418 116.551C112.889 116.551 116.669 113.611 117.914 109.569C118.164 109.594 118.404 109.645 118.659 109.645C122.989 109.645 126.497 106.153 126.497 101.846C126.497 97.5382 122.986 94.0462 118.656 94.0462Z" fill="white"/>
<path d="M130.84 117.969C130.105 116.458 128.56 115.404 126.758 115.404C124.246 115.404 122.211 117.43 122.211 119.926C122.211 121.097 122.669 122.153 123.403 122.957C123.174 123.421 123.034 123.938 123.034 124.491C123.034 126.429 124.613 128 126.563 128C127.602 128 128.527 127.544 129.173 126.832C129.574 126.947 129.989 127.028 130.427 127.028C132.951 127.028 135 124.991 135 122.477C135 120.106 133.168 118.18 130.84 117.969Z" fill="white"/>
<path d="M107.325 23.6955C106.463 23.6955 105.612 23.7448 104.773 23.8333C103.902 10.5312 92.81 0 79.2181 0C69.3914 0 60.8653 5.50713 56.5607 13.5821C51.9061 9.22111 45.6505 6.52848 38.7532 6.52848C24.3914 6.52848 12.7492 18.1114 12.7492 32.4001C12.7492 36.3549 13.6664 40.0877 15.2617 43.439C8.44604 48.3862 4 56.3683 4 65.4052C4 80.4279 16.2416 92.6071 31.3412 92.6071C37.8054 92.6071 43.7359 90.3628 48.4152 86.6314C54.6927 92.5781 63.1824 96.2341 72.5352 96.2341C88.3771 96.2341 101.753 85.7595 106.066 71.394C106.485 71.4172 106.899 71.4578 107.325 71.4578C120.584 71.4578 131.324 60.7583 131.324 47.5737C131.324 34.3877 120.584 23.6955 107.325 23.6955Z" fill="white"/>
</g>
<path d="M31.288 46.692C31.084 46.584 30.832 46.494 30.532 46.422C30.244 46.35 29.962 46.314 29.686 46.314C29.122 46.314 28.606 46.446 28.138 46.71C27.682 46.962 27.322 47.298 27.058 47.718C26.794 48.138 26.662 48.594 26.662 49.086V54H24.79V44.55H26.662V46.512C27.022 45.876 27.508 45.36 28.12 44.964C28.732 44.556 29.374 44.352 30.046 44.352C30.382 44.352 30.706 44.388 31.018 44.46C31.342 44.52 31.594 44.61 31.774 44.73L31.288 46.692ZM44.4959 52.758H44.4779C44.1659 52.998 43.7699 53.232 43.2899 53.46C42.8219 53.676 42.2999 53.85 41.7239 53.982C41.1599 54.114 40.5839 54.18 39.9959 54.18C38.8439 54.18 37.8299 53.976 36.9539 53.568C36.0899 53.148 35.4119 52.578 34.9199 51.858C34.4399 51.126 34.1999 50.298 34.1999 49.374C34.1999 48.318 34.4579 47.418 34.9739 46.674C35.4899 45.918 36.1739 45.342 37.0259 44.946C37.8779 44.538 38.8139 44.334 39.8339 44.334C40.7699 44.334 41.6219 44.532 42.3899 44.928C43.1579 45.312 43.7699 45.846 44.2259 46.53C44.6819 47.214 44.9099 48.012 44.9099 48.924L44.8919 49.824H36.0899C36.2339 50.64 36.6839 51.288 37.4399 51.768C38.1959 52.236 39.1379 52.47 40.2659 52.47C41.1059 52.47 41.7899 52.344 42.3179 52.092C42.8579 51.84 43.2959 51.6 43.6319 51.372L44.4959 52.758ZM39.8339 46.044C38.9099 46.044 38.1059 46.218 37.4219 46.566C36.7499 46.914 36.3179 47.508 36.1259 48.348H43.0199V48.114C42.9719 47.706 42.7919 47.346 42.4799 47.034C42.1679 46.722 41.7779 46.482 41.3099 46.314C40.8419 46.134 40.3499 46.044 39.8339 46.044ZM60.4937 41.4L55.0757 54H52.9337L47.4617 41.4H49.6757L52.8797 48.978C53.0597 49.422 53.2577 49.896 53.4737 50.4C53.7017 50.904 53.9117 51.39 54.1037 51.858C54.2717 51.39 54.4577 50.91 54.6617 50.418C54.8657 49.914 55.0577 49.44 55.2377 48.996L58.2077 41.4H60.4937ZM72.8793 44.55V54H71.0073V52.434C70.7913 52.722 70.4853 52.998 70.0893 53.262C69.6933 53.526 69.2373 53.748 68.7213 53.928C68.2053 54.096 67.6593 54.18 67.0833 54.18C66.0873 54.18 65.2113 53.97 64.4553 53.55C63.6993 53.13 63.1053 52.548 62.6733 51.804C62.2533 51.06 62.0433 50.214 62.0433 49.266C62.0433 48.306 62.2653 47.46 62.7093 46.728C63.1533 45.984 63.7653 45.402 64.5453 44.982C65.3373 44.562 66.2493 44.352 67.2813 44.352C68.1093 44.352 68.8473 44.508 69.4953 44.82C70.1553 45.12 70.6593 45.468 71.0073 45.864V44.55H72.8793ZM67.4973 52.47C68.2173 52.47 68.8413 52.332 69.3693 52.056C69.9093 51.768 70.3293 51.384 70.6293 50.904C70.9293 50.424 71.0793 49.878 71.0793 49.266C71.0793 48.654 70.9293 48.108 70.6293 47.628C70.3293 47.148 69.9093 46.77 69.3693 46.494C68.8413 46.218 68.2173 46.08 67.4973 46.08C66.8013 46.08 66.1833 46.218 65.6433 46.494C65.1153 46.77 64.6953 47.148 64.3833 47.628C64.0833 48.108 63.9333 48.654 63.9333 49.266C63.9333 49.878 64.0833 50.424 64.3833 50.904C64.6953 51.384 65.1153 51.768 65.6433 52.056C66.1833 52.332 66.8013 52.47 67.4973 52.47ZM83.6627 44.388C84.4787 44.388 85.1687 44.562 85.7327 44.91C86.3087 45.246 86.7107 45.744 86.9387 46.404C87.1667 46.116 87.4787 45.816 87.8747 45.504C88.2707 45.192 88.7267 44.928 89.2427 44.712C89.7587 44.496 90.3167 44.388 90.9167 44.388C91.8527 44.388 92.5847 44.574 93.1127 44.946C93.6527 45.306 94.0307 45.792 94.2467 46.404C94.4747 47.016 94.5887 47.694 94.5887 48.438V54H92.7167V48.636C92.7167 47.88 92.5487 47.268 92.2127 46.8C91.8767 46.332 91.3007 46.098 90.4847 46.098C89.8607 46.098 89.3027 46.23 88.8107 46.494C88.3187 46.746 87.9287 47.088 87.6407 47.52C87.3647 47.952 87.2267 48.432 87.2267 48.96V54H85.3547V48.6C85.3547 47.868 85.1627 47.268 84.7787 46.8C84.3947 46.332 83.7647 46.098 82.8887 46.098C82.3127 46.098 81.7967 46.236 81.3407 46.512C80.8967 46.776 80.5487 47.112 80.2967 47.52C80.0447 47.916 79.9187 48.312 79.9187 48.708V54H78.0467V44.55H79.9187V46.08C80.2787 45.648 80.7827 45.258 81.4307 44.91C82.0787 44.562 82.8227 44.388 83.6627 44.388ZM105.553 44.388C106.561 44.388 107.449 44.598 108.217 45.018C108.985 45.426 109.585 45.996 110.017 46.728C110.449 47.46 110.665 48.306 110.665 49.266C110.665 50.214 110.449 51.06 110.017 51.804C109.585 52.536 108.985 53.112 108.217 53.532C107.461 53.952 106.591 54.162 105.607 54.162C104.767 54.162 104.011 54.006 103.339 53.694C102.667 53.382 102.151 53.034 101.791 52.65V57.96H99.9189V44.532H101.791V45.99C101.995 45.726 102.289 45.474 102.673 45.234C103.057 44.982 103.495 44.778 103.987 44.622C104.479 44.466 105.001 44.388 105.553 44.388ZM105.301 46.098C104.593 46.098 103.969 46.236 103.429 46.512C102.889 46.788 102.463 47.166 102.151 47.646C101.851 48.114 101.701 48.654 101.701 49.266C101.701 49.866 101.851 50.406 102.151 50.886C102.463 51.366 102.889 51.75 103.429 52.038C103.969 52.314 104.593 52.452 105.301 52.452C106.009 52.452 106.627 52.314 107.155 52.038C107.695 51.75 108.115 51.366 108.415 50.886C108.727 50.406 108.883 49.866 108.883 49.266C108.883 48.654 108.727 48.114 108.415 47.646C108.115 47.166 107.695 46.788 107.155 46.512C106.627 46.236 106.009 46.098 105.301 46.098Z" fill="black"/>
<defs>
<filter id="filter0_d" x="139" y="69" width="95" height="238" filterUnits="userSpaceOnUse" color-interpolation-filters="sRGB">
<feFlood flood-opacity="0" result="BackgroundImageFix"/>
<feColorMatrix in="SourceAlpha" type="matrix" values="0 0 0 0 0 0 0 0 0 0 0 0 0 0 0 0 0 0 127 0"/>
<feOffset dy="4"/>
<feGaussianBlur stdDeviation="2"/>
<feColorMatrix type="matrix" values="0 0 0 0 0 0 0 0 0 0 0 0 0 0 0 0 0 0 0.25 0"/>
<feBlend mode="normal" in2="BackgroundImageFix" result="effect1_dropShadow"/>
<feBlend mode="normal" in="SourceGraphic" in2="effect1_dropShadow" result="shape"/>
</filter>
<filter id="filter1_d" x="0" y="0" width="139" height="136" filterUnits="userSpaceOnUse" color-interpolation-filters="sRGB">
<feFlood flood-opacity="0" result="BackgroundImageFix"/>
<feColorMatrix in="SourceAlpha" type="matrix" values="0 0 0 0 0 0 0 0 0 0 0 0 0 0 0 0 0 0 127 0"/>
<feOffset dy="4"/>
<feGaussianBlur stdDeviation="2"/>
<feColorMatrix type="matrix" values="0 0 0 0 0 0 0 0 0 0 0 0 0 0 0 0 0 0 0.25 0"/>
<feBlend mode="normal" in2="BackgroundImageFix" result="effect1_dropShadow"/>
<feBlend mode="normal" in="SourceGraphic" in2="effect1_dropShadow" result="shape"/>
</filter>
<linearGradient id="paint0_linear" x1="137.941" y1="269.789" x2="169.645" y2="295.716" gradientUnits="userSpaceOnUse">
<stop stop-color="#237CA1" stop-opacity="0.2"/>
<stop offset="1" stop-color="#237CA1"/>
</linearGradient>
<radialGradient id="paint1_radial" cx="0" cy="0" r="1" gradientUnits="userSpaceOnUse" gradientTransform="translate(188.466 100.497) rotate(24.1888) scale(44.8859 46.9852)">
<stop stop-color="#DEB36E"/>
<stop offset="1" stop-color="#997945"/>
</radialGradient>
<clipPath id="clip0">
<rect width="87" height="230" fill="white" transform="translate(143 69)"/>
</clipPath>
</defs>
</svg>
