<svg width="343" height="63" viewBox="0 0 343 63" fill="none" xmlns="http://www.w3.org/2000/svg">
<path fill-rule="evenodd" clip-rule="evenodd" d="M321.058 0C336.311 7.07371 332.639 4.90998 342.632 19.1505L332.574 28.5809L330.405 26.9871L330.469 63H291.794L291.858 26.9871L289.689 28.5809L279.632 19.1505C289.625 4.90998 285.952 7.07371 301.205 0C302.675 1.08924 306.752 9.75936 310.88 9.78107C315.176 9.80366 319.528 1.13354 321.058 0Z" fill="#77BD43"/>
<path fill-rule="evenodd" clip-rule="evenodd" d="M249.625 4.42102C263.807 10.9983 260.392 8.98645 269.684 22.2276L260.333 30.9963L258.316 29.5143L258.375 63H222.414L222.474 29.5143L220.457 30.9963L211.105 22.2276C220.397 8.98645 216.983 10.9983 231.165 4.42102C232.532 5.43382 236.322 13.4955 240.161 13.5157C244.155 13.5367 248.202 5.47501 249.625 4.42102Z" fill="#77BD43"/>
<path fill-rule="evenodd" clip-rule="evenodd" d="M183.748 12.1578C196.057 17.8664 193.093 16.1203 201.158 27.6126L193.041 35.2231L191.291 33.9369L191.343 62.9999H160.131L160.183 33.9369L158.432 35.2231L150.316 27.6126C158.38 16.1203 155.417 17.8664 167.726 12.1578C168.912 13.0369 172.202 20.0338 175.534 20.0513C179.001 20.0696 182.513 13.0726 183.748 12.1578Z" fill="#77BD43"/>
<path fill-rule="evenodd" clip-rule="evenodd" d="M123.715 14.3684C135.489 19.8288 132.654 18.1586 140.368 29.1512L132.605 36.4309L130.93 35.2005L130.98 63H101.125L101.175 35.2005L99.5003 36.4309L91.7368 29.1512C99.4507 18.1586 96.6159 19.8288 108.39 14.3684C109.525 15.2092 112.671 21.902 115.858 21.9187C119.174 21.9361 122.534 15.2434 123.715 14.3684Z" fill="#77BD43"/>
<path fill-rule="evenodd" clip-rule="evenodd" d="M68.5428 24.3158C77.9086 28.6593 75.6534 27.3307 81.7897 36.0749L75.614 41.8655L74.2822 40.8868L74.3215 63H50.5735L50.613 40.8868L49.281 41.8655L43.1055 36.0749C49.2415 27.3307 46.9866 28.6593 56.3522 24.3158C57.255 24.9846 59.758 30.3084 62.2929 30.3217C64.9309 30.3356 67.6034 25.0118 68.5428 24.3158Z" fill="#77BD43"/>
<path fill-rule="evenodd" clip-rule="evenodd" d="M21.8034 29.8422C29.8312 33.5652 27.8983 32.4264 33.1579 39.9214L27.8645 44.8847L26.7229 44.0459L26.7566 63.0001H6.40119L6.43499 44.0459L5.29327 44.8847L0 39.9214C5.25947 32.4264 3.32666 33.5652 11.3543 29.8422C12.1281 30.4154 14.2736 34.9787 16.4464 34.9901C18.7075 35.002 20.9982 30.4388 21.8034 29.8422Z" fill="#77BD43"/>
</svg>
