<svg width="101" height="241" viewBox="0 0 101 241" fill="none" xmlns="http://www.w3.org/2000/svg">
<g filter="url(#filter0_d)">
<path d="M46.9884 221.11V232.61H4C4 232.61 4.26012 229.066 8.28515 224.874C12.3102 220.683 30.5871 226.253 30.5871 226.253L36.8574 220.738C36.8574 220.738 37.7746 224.998 46.9884 221.11Z" fill="url(#paint0_linear)"/>
<path d="M48.4259 194.981L47.0569 221.055H46.9199C37.7062 224.943 36.7889 220.724 36.7889 220.724L35.0092 194.926L48.4259 194.981Z" fill="#FFEBC7"/>
<path d="M97 232.61H54.0253V221.179C63.2254 225.067 64.1427 220.848 64.1427 220.848L70.4266 226.363C70.4266 226.363 88.7035 220.751 92.7285 224.984C96.7536 229.218 97 232.61 97 232.61Z" fill="#237CA1"/>
<path d="M96.028 67.6167C93.6047 75.7105 85.3904 75.7105 85.3904 75.7105C85.3904 75.7105 96.9589 84.4111 90.6339 92.0637C85.4999 98.2822 79.8457 92.9875 79.6814 92.7944C79.832 93.2495 81.7898 98.9855 79.3939 101.44L78.3124 100.061C76.4641 97.7169 72.3433 94.8351 69.4135 92.9461C67.5379 91.7327 66.1415 90.933 66.1415 90.933V83.7906C71.9599 80.4538 73.6439 73.1321 73.6439 69.0231L75.0129 28.3472C53.464 27.1613 50.5479 10.2153 50.5479 10.2153C50.5479 10.2153 47.536 27.1613 26.0418 28.3472L27.4109 69.0231C27.4109 73.1597 30.0121 81.7085 34.927 83.7906V90.933C34.927 90.933 33.6264 91.6914 31.8329 92.8358C28.8894 94.7248 24.6317 97.6618 22.7561 100.061L21.6745 101.44C19.265 98.9855 21.2227 93.2495 21.3733 92.7944C21.1543 92.9875 15.5138 98.3098 10.4209 92.0637C4 84.4111 15.6233 75.7105 15.6233 75.7105C15.6233 75.7105 7.40895 75.7105 4.98572 67.6167C2.56249 59.5229 13.7066 57.7579 13.7066 57.7579C11.634 57.5672 9.68519 56.6804 8.17314 55.2401C6.66108 53.7997 5.67352 51.8894 5.36905 49.8158C2.84999 37.9991 16.8007 34.5106 16.8007 34.5106C6.06727 26.8442 13.4191 12.7386 22.3453 15.7169C31.299 4.93433 34.6121 0.963257 50.5479 0.963257C66.4837 0.963257 69.7147 4.93433 78.6683 15.7169C87.5809 12.7386 94.9327 26.8442 84.2541 34.5106C84.2541 34.5106 98.2185 37.9991 95.6994 49.8158C95.3925 51.8979 94.397 53.8147 92.874 55.2561C91.3509 56.6974 89.3894 57.579 87.3071 57.7579C87.3071 57.7579 98.4649 59.5229 96.028 67.6167Z" fill="url(#paint1_radial)"/>
<path d="M87.2112 194.981H13.7888L23.4406 155.435H77.5731L87.2112 194.981Z" fill="#0D395E"/>
<path d="M65.9224 194.981L64.1426 220.779C64.1426 220.779 63.2253 224.998 54.0253 221.11H53.8747L52.5878 195.036L65.9224 194.981Z" fill="#FFEBC7"/>
<path d="M50.5479 10.2153C50.5479 10.2153 47.536 27.1613 26.0418 28.3471L27.4109 69.0231C27.4109 73.1596 30.0531 81.8602 34.927 83.7905V90.933C34.927 90.933 40.4032 104.184 49.5074 105.094C49.8402 105.115 50.174 105.115 50.5068 105.094C50.8853 105.115 51.2647 105.115 51.6432 105.094C60.72 104.06 66.0867 90.9468 66.0867 90.9468V83.7905C71.9736 80.5227 73.5891 73.132 73.5891 69.0231L74.9582 28.3471C53.464 27.1613 50.5479 10.2153 50.5479 10.2153Z" fill="#FFEBC7"/>
<path d="M88.2654 112.774L85.4178 114.649L77.5731 119.792V135.732H57.9545C57.9545 135.732 55.6545 136.711 57.9545 137.938H61.1034C61.1034 137.938 58.3652 139.413 60.0903 140.378C60.0903 140.378 59.2414 143.812 63.8278 143.936C63.8278 143.936 62.6367 145.315 65.854 145.397H77.5731V155.394H23.4406V145.356H35.1461C38.377 145.232 37.1859 143.895 37.1859 143.895C41.7723 143.77 40.9235 140.337 40.9235 140.337C42.6211 139.372 39.9104 137.897 39.9104 137.897H43.0592C45.3455 136.669 43.0592 135.69 43.0592 135.69H23.4406V119.792L15.5959 114.649L12.7483 112.774L21.6745 101.44L22.7561 100.061C24.6317 97.6618 28.8895 94.7248 31.8329 92.8358C32.3532 96.2691 36.1865 117.848 49.5075 105.094C49.8403 105.115 50.1741 105.115 50.5069 105.094C50.8854 105.115 51.2647 105.115 51.6432 105.094C64.704 117.379 68.7427 96.6966 69.3588 92.9599C72.2886 94.8489 76.4094 97.7307 78.2576 100.075L79.3392 101.454L88.2654 112.774Z" fill="#EB3825"/>
<path d="M43.0592 135.732H23.4406V119.792L15.5959 114.649L4.54761 145.397H35.146C38.377 145.273 37.1859 143.936 37.1859 143.936C41.7723 143.812 40.9234 140.378 40.9234 140.378C42.6211 139.413 39.9103 137.938 39.9103 137.938H43.0592C45.3455 136.711 43.0592 135.732 43.0592 135.732Z" fill="#FFEBC7"/>
<path d="M85.4177 114.649L77.5731 119.792V135.732H57.9545C57.9545 135.732 55.6545 136.711 57.9545 137.938H61.1033C61.1033 137.938 58.3652 139.413 60.0902 140.378C60.0902 140.378 59.2414 143.812 63.8277 143.936C63.8277 143.936 62.6367 145.315 65.8539 145.397H96.4523L85.4177 114.649Z" fill="#FFEBC7"/>
<path d="M49.5074 105.094C36.1865 117.848 32.3531 96.2691 31.8329 92.8358C33.6263 91.6914 34.927 90.933 34.927 90.933C34.927 90.933 40.3484 104.184 49.5074 105.094Z" fill="#951F1E"/>
<path d="M69.3588 92.9461C68.7427 96.6828 64.704 117.365 51.6432 105.08C60.72 104.046 66.0867 90.933 66.0867 90.933C66.0867 90.933 67.4832 91.7327 69.3588 92.9461Z" fill="#951F1E"/>
<path d="M62 70.4365C60.5052 69.0464 58.7538 68.011 56.8604 67.398C54.9644 66.7538 52.9887 66.4204 51 66.409C49.0125 66.4226 47.0377 66.751 45.1396 67.3836C43.2456 68.0021 41.4943 69.0424 40 70.4365C41.7195 69.5442 43.5356 68.8846 45.4066 68.4729C49.0944 67.6321 52.9056 67.6321 56.5934 68.4729C58.4644 68.8846 60.2805 69.5442 62 70.4365Z" fill="#E30613"/>
<path d="M55 42.2444C55.8154 43.6345 56.7707 44.6699 57.8034 45.2829C58.8376 45.9272 59.9153 46.2606 61 46.2719C62.0841 46.2583 63.1612 45.9299 64.1966 45.2973C65.2297 44.6788 66.1849 43.6386 67 42.2444C66.0621 43.1367 65.0715 43.7963 64.051 44.208C62.0394 45.0488 59.9606 45.0488 57.949 44.208C56.9285 43.7963 55.9379 43.1367 55 42.2444Z" fill="black"/>
<path d="M34 42.2444C34.8154 43.6345 35.7707 44.6699 36.8034 45.2829C37.8376 45.9272 38.9153 46.2606 40 46.2719C41.0841 46.2583 42.1612 45.9299 43.1966 45.2973C44.2297 44.6788 45.1849 43.6386 46 42.2444C45.0621 43.1367 44.0715 43.7963 43.051 44.208C41.0394 45.0488 38.9606 45.0488 36.949 44.208C35.9285 43.7963 34.9379 43.1367 34 42.2444Z" fill="black"/>
<path d="M22.0305 224.336C22.4324 225.478 22.6721 226.671 22.7424 227.88" stroke="white" stroke-linecap="round" stroke-linejoin="round"/>
<path d="M25.1245 225.04C25.6989 226.075 25.8974 227.279 25.6858 228.445" stroke="white" stroke-linecap="round" stroke-linejoin="round"/>
<path d="M78.9832 224.336C78.5836 225.479 78.3395 226.671 78.2576 227.88" stroke="white" stroke-linecap="round" stroke-linejoin="round"/>
<path d="M75.8892 225.04C75.3166 226.075 75.1136 227.277 75.3142 228.445" stroke="white" stroke-linecap="round" stroke-linejoin="round"/>
<path d="M67.3913 52.4987C67.0213 53.0247 66.5212 53.3199 66 53.3199C65.4788 53.3199 64.9787 53.0247 64.6087 52.4987L64.394 52.1707C63.9901 51.5533 63.8881 50.7142 64.128 49.981L66 44.2581L67.872 49.9809C68.1119 50.7141 68.0099 51.5532 67.606 52.1706L67.3913 52.4987Z" fill="#247BA0"/>
</g>
<defs>
<filter id="filter0_d" x="0" y="0.963257" width="101" height="239.646" filterUnits="userSpaceOnUse" color-interpolation-filters="sRGB">
<feFlood flood-opacity="0" result="BackgroundImageFix"/>
<feColorMatrix in="SourceAlpha" type="matrix" values="0 0 0 0 0 0 0 0 0 0 0 0 0 0 0 0 0 0 127 0"/>
<feOffset dy="4"/>
<feGaussianBlur stdDeviation="2"/>
<feColorMatrix type="matrix" values="0 0 0 0 0 0 0 0 0 0 0 0 0 0 0 0 0 0 0.25 0"/>
<feBlend mode="normal" in2="BackgroundImageFix" result="effect1_dropShadow"/>
<feBlend mode="normal" in="SourceGraphic" in2="effect1_dropShadow" result="shape"/>
</filter>
<linearGradient id="paint0_linear" x1="-1.40777" y1="203.13" x2="30.8396" y2="231.127" gradientUnits="userSpaceOnUse">
<stop stop-color="#237CA1" stop-opacity="0.2"/>
<stop offset="1" stop-color="#237CA1"/>
</linearGradient>
<radialGradient id="paint1_radial" cx="0" cy="0" r="1" gradientUnits="userSpaceOnUse" gradientTransform="translate(52.6015 32.6767) rotate(22.9325) scale(47.5249 47.7619)">
<stop stop-color="#997945" stop-opacity="0.2"/>
<stop offset="1" stop-color="#997945"/>
</radialGradient>
</defs>
</svg>
