<svg width="103" height="116" viewBox="0 0 103 116" fill="none" xmlns="http://www.w3.org/2000/svg">
<path d="M54.589 108.004C37.029 110.034 19.0899 100.558 13.8219 97.8523H10C15.268 103.434 27.9128 117.348 54.589 115.11C78.4691 113.108 90.4153 100.891 94.22 93.2799H103L87.7123 83.1321L70.8611 93.2799H80.7055C78.5629 97.9929 72.1491 105.975 54.589 108.004Z" fill="#4CAF50"/>
<path d="M45.6124 8.41458C62.0697 6.18199 79.0979 15.3537 84.097 17.9713L87.6871 17.9235C82.6343 12.4546 70.4964 -1.18527 45.4797 1.36745C23.0852 3.65261 12.0917 15.9174 8.65994 23.5125L0.412362 23.6225L14.9625 33.4943L30.6022 23.22L21.3549 23.3433C23.2795 18.6427 29.1552 10.6472 45.6124 8.41458Z" fill="#4CAF50"/>
<path d="M54.589 105.99C37.029 108.02 19.0899 98.5446 13.8219 95.8385H10C15.268 101.42 27.9128 115.334 54.589 113.097C78.4691 111.094 90.4153 98.877 94.22 91.2662H103L87.7123 81.1184L70.8611 91.2662H80.7055C78.5629 95.9792 72.1491 103.961 54.589 105.99Z" fill="#388E3C"/>
<path d="M45.6503 10.4283C62.1075 8.19573 79.1357 17.3675 84.1348 19.9851L87.725 19.9372C82.6722 14.4684 70.5342 0.828462 45.5175 3.38119C23.123 5.66635 12.1295 17.9312 8.69778 25.5263L0.450204 25.6362L15.0004 35.5081L30.6401 25.2337L21.3927 25.357C23.3173 20.6564 29.193 12.6609 45.6503 10.4283Z" fill="#388E3C"/>
<path d="M34.3115 74.4003C30.1585 75.8895 20.8557 78.3573 16.8689 76.315C15.623 75.8568 16.2459 53.9772 16.2459 53.339C16.2459 52.7008 15.623 50.5733 15 49.5096L41.7869 41.851C41.7869 43.3401 43.0328 45.0421 43.6557 46.3185C44.3244 47.6885 50.5082 59.9339 53 66.7417C49.2623 69.2946 41.0393 74.0174 38.0492 72.4857L33 64.0018L34.3115 74.4003Z" fill="#247BA0"/>
<path fill-rule="evenodd" clip-rule="evenodd" d="M71.2206 25.7413C83.0839 31.2808 80.2274 29.5863 88 40.7382L80.1775 48.1233L78.4905 46.8752L78.5402 75.0773H48.4595L48.5095 46.8752L46.8223 48.1233L39 40.7382C46.7723 29.5863 43.9161 31.2808 55.7791 25.7413C56.9227 26.5943 60.0932 33.3839 63.304 33.4009C66.6455 33.4186 70.0307 26.629 71.2206 25.7413Z" fill="#EE5D5D"/>
<path d="M52.8482 80.4619L56.3932 82.0331L62.2843 78.6949L58.9689 72.7635L52.4888 76.4354L48.3144 74.5712C46.4096 73.7273 44.0901 74.3358 43.0309 76.1392C42.2464 77.4746 42.311 79.043 42.9908 80.2593C43.4059 81.0018 44.055 81.621 44.8896 81.9911L45.9461 82.4595C47.3666 80.1975 50.2988 79.3321 52.8482 80.4619ZM64.6407 77.3597C65.0475 77.1292 65.4885 77.0291 65.9254 77.0232C65.8969 76.9115 65.8779 76.7977 65.8189 76.6921L63.1666 71.9469C62.8004 71.2919 61.9759 71.0596 61.3253 71.4283L60.1471 72.0959L63.4625 78.0273L64.6407 77.3597ZM69.7973 83.8098L67.145 79.0647C66.7789 78.4096 65.9543 78.1773 65.3037 78.546L64.1255 79.2136L68.104 86.3313L69.2822 85.6637C69.9328 85.295 70.1635 84.4648 69.7973 83.8098ZM56.4672 83.5532L52.3036 81.7082C50.3989 80.8643 48.0794 81.4728 47.0202 83.2762C46.2356 84.6116 46.2894 86.1607 46.9693 87.377C47.3843 88.1195 48.0334 88.7387 48.8681 89.1088L54.4363 91.5768C55.2047 91.9174 56.0413 92.0732 56.8798 92.0318C57.7184 91.9905 58.5358 91.7531 59.2675 91.3385L66.9258 86.9989L62.9473 79.8812L56.4672 83.5532Z" fill="#029C66"/>
</svg>
