<?xml version="1.0" encoding="utf-8"?>
<!-- Generator: Adobe Illustrator 25.0.1, SVG Export Plug-In . SVG Version: 6.00 Build 0)  -->
<svg version="1.1" id="Layer_2" xmlns="http://www.w3.org/2000/svg" xmlns:xlink="http://www.w3.org/1999/xlink" x="0px" y="0px"
	 viewBox="0 0 484.2 14668" style="enable-background:new 0 0 484.2 14668;" xml:space="preserve">
<style type="text/css">
	.st0{fill:none;stroke:#000000;stroke-width:3.2488;stroke-miterlimit:10;}
</style>
<path class="st0" d="M189.1,183c0,379.1,289.5,329.7,289.5,640.9S10,1212.6,10,1593.4c0,401.5,467.1,324,467.1,678.1
	S5.6,2633.5,5.6,3005.4s471.6,339.8,471.6,704.3S7.8,3997.3,7.8,4441.8s459.6,366.3,469.7,754.5S3.3,5608.4,3.3,5988.6
	c0,380.2,473.8,280.9,473.8,700.2c0,419.3-471.6,408.9-471.6,777.9c0,368.9,471.7,420.3,471.7,682.6C477.3,8411.5,0,8532,0,8896.5
	c0,364.5,478.6,427.7,478.6,695.9c0,268.2-470.8,366.5-470.8,754.7c0,388.2,470.4,372.9,470.4,679.6s-467.1,402-467.1,788.7
	c0,386.7,467.5,347.7,467.5,676.6S5.6,12861.5,5.6,13249.7c0,388.2,471.5,412.9,471.5,697.4c0,284.5-471.5,406.5-471.5,763.6
	s472,414.4,472,730c0,315.6-470.8,379.8-470.8,776.9c0,397.1,469.7,337.3,469.7,687S6.7,17327.3,6.7,17674s477.5,479.6,477.5,635.1"
	/>
</svg>
