<svg width="387" height="14668" viewBox="0 0 387 14668" fill="none" xmlns="http://www.w3.org/2000/svg">
<path d="M380 7779C363 7820 330.5 7896.44 212 7973C123 8030.5 17.5 8186 2 8286.5" stroke="#B9B9B9" stroke-width="2"/>
<path d="M377 8789.5C311.926 8683 165.509 8662.67 75.2192 8526.74C6.02203 8422.56 1.73972 8359.05 2.01086 8340.5" stroke="#B9B9B9" stroke-width="2"/>
<path d="M380 8947C363 8988 330.5 9064.44 212 9141C123 9198.5 17.5 9354 2 9454.5" stroke="#B9B9B9" stroke-width="2"/>
<path d="M377 9957.5C311.926 9851 165.509 9830.67 75.2192 9694.74C6.02203 9590.56 1.73972 9527.05 2.01086 9508.5" stroke="#B9B9B9" stroke-width="2"/>
<path d="M380 10115C363 10156 330.5 10232.4 212 10309C123 10366.5 17.5 10522 2 10622.5" stroke="#B9B9B9" stroke-width="2"/>
<path d="M377 11125.5C311.926 11019 165.509 10998.7 75.2192 10862.7C6.02203 10758.6 1.73972 10695.1 2.01086 10676.5" stroke="#B9B9B9" stroke-width="2"/>
<path d="M380 11283C363 11324 330.5 11400.4 212 11477C123 11534.5 17.5 11690 2 11790.5" stroke="#B9B9B9" stroke-width="2"/>
<path d="M377 12293.5C311.926 12187 165.509 12166.7 75.2192 12030.7C6.02203 11926.6 1.73972 11863.1 2.01086 11844.5" stroke="#B9B9B9" stroke-width="2"/>
<path d="M380 12488C363 12529 330.5 12605.4 212 12682C123 12739.5 17.5 12895 2 12995.5" stroke="#B9B9B9" stroke-width="2"/>
<path d="M377 13498.5C311.926 13392 165.509 13371.7 75.2192 13235.7C6.02203 13131.6 1.73972 13068.1 2.01086 13049.5" stroke="#B9B9B9" stroke-width="2"/>
<path d="M380 13656C363 13697 330.5 13773.4 212 13850C123 13907.5 17.5 14063 2 14163.5" stroke="#B9B9B9" stroke-width="2"/>
<path d="M377 14666.5C311.926 14560 165.509 14539.7 75.2192 14403.7C6.02203 14299.6 1.73972 14236.1 2.01086 14217.5" stroke="#B9B9B9" stroke-width="2"/>
<path d="M381 6624C364 6665 331.5 6741.44 213 6818C124 6875.5 18.5 7031 3 7131.5" stroke="#B9B9B9" stroke-width="2"/>
<path d="M378 7634.5C312.926 7528 166.509 7507.67 76.2192 7371.74C7.02203 7267.56 2.73972 7204.05 3.01086 7185.5" stroke="#B9B9B9" stroke-width="2"/>
<path d="M380 5475C363 5516 330.5 5592.44 212 5669C123 5726.5 17.5 5882 2 5982.5" stroke="#B9B9B9" stroke-width="2"/>
<path d="M377 6485.5C311.926 6379 165.509 6358.67 75.2192 6222.74C6.02203 6118.56 1.73972 6055.05 2.01086 6036.5" stroke="#B9B9B9" stroke-width="2"/>
<path d="M380 4321C363 4362 330.5 4438.44 212 4515C123 4572.5 17.5 4728 2 4828.5" stroke="#B9B9B9" stroke-width="2"/>
<path d="M377 5331.5C311.926 5225 165.509 5204.67 75.2192 5068.74C6.02203 4964.56 1.73972 4901.05 2.01086 4882.5" stroke="#B9B9B9" stroke-width="2"/>
<path d="M381 3082C364 3123 331.5 3199.44 213 3276C124 3333.5 18.5 3489 3 3589.5" stroke="#B9B9B9" stroke-width="2"/>
<path d="M378 4092.5C312.926 3986 166.509 3965.67 76.2192 3829.74C7.02203 3725.56 2.73972 3662.05 3.01086 3643.5" stroke="#B9B9B9" stroke-width="2"/>
<path d="M379 1905C362 1946 329.5 2022.44 211 2099C122 2156.5 16.5 2312 1 2412.5" stroke="#B9B9B9" stroke-width="2"/>
<path d="M376 2915.5C310.926 2809 164.509 2788.67 74.2192 2652.74C5.02203 2548.56 0.739717 2485.05 1.01086 2466.5" stroke="#B9B9B9" stroke-width="2"/>
<path d="M381 774C364 815 331.5 891.441 213 968C124 1025.5 18.5 1181 3 1281.5" stroke="#B9B9B9" stroke-width="2"/>
<path d="M378 1784.5C312.926 1678 166.509 1657.67 76.2192 1521.74C7.02203 1417.56 2.73972 1354.05 3.01086 1335.5" stroke="#B9B9B9" stroke-width="2"/>
<path d="M385.5 602.5C345.5 503 255.5 484 200 357C157.465 259.669 154.833 200.333 155 183" stroke="#B9B9B9" stroke-width="2"/>
<g filter="url(#filter0_d)">
<path d="M144.092 74.5126L120.443 59.8035L132.686 47.4045L144.092 74.5126Z" fill="#F6E7CB"/>
<path d="M164.648 87.2482L152.823 79.8936L137.187 42.8462L144.569 35.3704L148.034 38.7913L164.648 87.2482Z" fill="#F6E7CB"/>
<path d="M96.6458 136.42L76.224 116.255L73.2699 107.576L85.6934 94.9946L96.6458 136.42Z" fill="#F6E7CB"/>
<path d="M185.206 100.346L172.652 92.2712L157.515 48.1538L175.202 65.6186L185.206 100.346Z" fill="#F6E7CB"/>
<path d="M119.802 159.287L104.851 144.523L90.5545 90.0717L99.7371 80.7725L119.802 159.287Z" fill="#F6E7CB"/>
<path d="M207.036 113.979L192.846 105.009L183.954 74.261L203.829 93.8864L207.036 113.979Z" fill="#F6E7CB"/>
<path d="M217.504 107.39L213.003 111.949L211.123 101.089L217.504 107.39Z" fill="#F6E7CB"/>
<path d="M120.486 66.6891L205.261 119.789L196.438 128.724L124.571 82.2466L120.486 66.6891Z" fill="#F6E7CB"/>
<path d="M126.618 90.75L192.117 133.1L182.215 143.128L131.265 109.384L126.618 90.75Z" fill="#F6E7CB"/>
<path d="M133.495 118.068L177.893 147.504L166.19 159.356L139.624 141.767L133.495 118.068Z" fill="#F6E7CB"/>
<path d="M141.853 150.45L162.05 163.551L148.725 177.044L141.853 150.45Z" fill="#F6E7CB"/>
<path d="M143.864 181.966L143.324 182.513L128.008 167.389L104.778 75.6671L114.141 66.1855L143.864 181.966Z" fill="#F6E7CB"/>
<path d="M143.794 27.4026L225.299 107.885C230.04 112.566 237.65 112.518 242.331 107.777C247.013 103.036 247.147 95.6063 242.406 90.925L160.719 10.2629C156.161 5.76162 148.368 5.62963 143.687 10.3704C139.006 15.1112 139.236 22.9014 143.794 27.4026Z" fill="#247BA0"/>
<path d="M145.923 192.282L60.5887 108.019C55.8479 103.337 48.2378 103.385 43.5565 108.126C38.8752 112.867 38.9232 120.477 43.664 125.158L129.18 209.602C133.921 214.283 141.531 214.235 146.213 209.494C150.712 204.573 150.663 196.963 145.923 192.282Z" fill="#247BA0"/>
</g>
<defs>
<filter id="filter0_d" x="31.0002" y="0" width="225.226" height="225.225" filterUnits="userSpaceOnUse" color-interpolation-filters="sRGB">
<feFlood flood-opacity="0" result="BackgroundImageFix"/>
<feColorMatrix in="SourceAlpha" type="matrix" values="0 0 0 0 0 0 0 0 0 0 0 0 0 0 0 0 0 0 127 0"/>
<feOffset dy="4"/>
<feGaussianBlur stdDeviation="2"/>
<feColorMatrix type="matrix" values="0 0 0 0 0 0 0 0 0 0 0 0 0 0 0 0 0 0 0.25 0"/>
<feBlend mode="normal" in2="BackgroundImageFix" result="effect1_dropShadow"/>
<feBlend mode="normal" in="SourceGraphic" in2="effect1_dropShadow" result="shape"/>
</filter>
</defs>
</svg>
