<svg width="204" height="238" viewBox="0 0 204 238" fill="none" xmlns="http://www.w3.org/2000/svg">
<path fill-rule="evenodd" clip-rule="evenodd" d="M39.4877 210.084H62.1544V172.744H87.9228V154.014H113.691V172.744H139.46V135.046H164.512V87.4456L171.551 92.5754L204 62.0351C171.67 15.8667 183.481 22.9053 134.091 0C129.081 3.69825 115.004 31.7333 101.165 31.614C87.8035 31.614 74.5614 3.57895 69.9088 0C20.5193 22.9053 32.3298 15.986 0 62.0351L32.5684 92.5754L39.607 87.4456L39.4877 210.084Z" fill="#029C66"/>
<path d="M164.035 143.039H143.635V163.439H164.035V143.039Z" fill="#029C66"/>
<path d="M108.919 172.148H92.4562V188.611H108.919V172.148Z" fill="#029C66"/>
<path d="M79.2139 176.92H68.9542V187.18H79.2139V176.92Z" fill="#029C66"/>
<path d="M133.733 183.6H123.474V193.86H133.733V183.6Z" fill="#029C66"/>
<path d="M77.3051 202.21H68.9542V210.561H77.3051V202.21Z" fill="#029C66"/>
<path d="M106.295 215.333H95.0806V226.547H106.295V215.333Z" fill="#029C66"/>
<path d="M85.7753 229.888H79.0946V236.568H85.7753V229.888Z" fill="#029C66"/>
<path d="M164.154 180.26H157.474V186.941H164.154V180.26Z" fill="#029C66"/>
<path d="M106.295 195.769H95.0806V206.983H106.295V195.769Z" fill="#029C66"/>
<path d="M55.593 224.997H43.0667V237.523H55.593V224.997Z" fill="#029C66"/>
</svg>
