<svg width="194" height="204" viewBox="0 0 194 204" fill="none" xmlns="http://www.w3.org/2000/svg">
<path d="M28.9974 0.499878H21.748V18.6263H28.9974V0.499878Z" fill="#102C37"/>
<path d="M97.8753 0.499878H68.8779V18.6263H97.8753V0.499878Z" fill="#102C37"/>
<path d="M61.6286 0.499878H36.2529V18.6263H61.6286V0.499878Z" fill="#102C37"/>
<path d="M112.374 0.499878H105.125V18.6263H112.374V0.499878Z" fill="#102C37"/>
<path d="M112.374 110.555H112.558V25.8755H20.3349L0 79.2332L20.8793 203.5H114.081C112.965 201.469 112.378 199.191 112.374 196.874V110.555Z" fill="#102C37"/>
<path d="M178.205 83.0873L119.844 114.77V120.135H119.623V196.874C119.623 198.225 120.038 199.542 120.81 200.649C121.582 201.757 122.675 202.601 123.942 203.067C125.209 203.534 126.589 203.601 127.895 203.26C129.201 202.918 130.371 202.184 131.247 201.157L193.817 107.741L178.205 83.0873Z" fill="#102C37"/>
</svg>
