<svg width="217" height="227" viewBox="0 0 217 227" fill="none" xmlns="http://www.w3.org/2000/svg">
<path d="M32.4658 0H24.3494V20.2695H32.4658V0Z" fill="#102C37"/>
<path d="M109.582 0H77.1165V20.2695H109.582V0Z" fill="#102C37"/>
<path d="M69.0001 0H40.5891V20.2695H69.0001V0Z" fill="#102C37"/>
<path d="M125.815 0H117.699V20.2695H125.815V0Z" fill="#102C37"/>
<path d="M125.815 123.067H126.021V28.3757H22.7671L0 88.0417L23.3767 227H127.726C126.477 224.73 125.82 222.182 125.815 219.591V123.067Z" fill="#102C37"/>
<path d="M199.52 92.3514L134.178 127.78V133.78H133.931V219.591C133.932 221.101 134.395 222.574 135.26 223.813C136.125 225.051 137.349 225.995 138.767 226.517C140.185 227.038 141.73 227.113 143.192 226.731C144.654 226.349 145.964 225.529 146.945 224.38L217 119.92L199.52 92.3514Z" fill="#102C37"/>
<path d="M53.0775 94.944H47.6055V102H40.0215V94.944H21.9255V89.712L37.7655 68.4H45.9255L31.2375 88.608H40.2615V82.32H47.6055V88.608H53.0775V94.944ZM66.8295 81.024C71.5655 81.024 75.0535 81.968 77.2935 83.856C79.5655 85.744 80.7015 88.272 80.7015 91.44C80.7015 93.488 80.1895 95.36 79.1655 97.056C78.1415 98.72 76.5735 100.064 74.4615 101.088C72.3815 102.08 69.8055 102.576 66.7335 102.576C64.3655 102.576 62.0295 102.272 59.7255 101.664C57.4535 101.024 55.5175 100.128 53.9175 98.976L56.9895 93.024C58.2695 93.984 59.7415 94.736 61.4055 95.28C63.0695 95.792 64.7815 96.048 66.5415 96.048C68.4935 96.048 70.0295 95.664 71.1495 94.896C72.2695 94.128 72.8295 93.056 72.8295 91.68C72.8295 90.24 72.2375 89.152 71.0535 88.416C69.9015 87.68 67.8855 87.312 65.0055 87.312H56.4135L58.1415 68.4H78.6375V74.64H64.6215L64.0935 81.024H66.8295ZM98.2564 102.576C95.4724 102.576 92.9924 101.888 90.8164 100.512C88.6404 99.136 86.9284 97.152 85.6804 94.56C84.4644 91.936 83.8564 88.816 83.8564 85.2C83.8564 81.584 84.4644 78.48 85.6804 75.888C86.9284 73.264 88.6404 71.264 90.8164 69.888C92.9924 68.512 95.4724 67.824 98.2564 67.824C101.04 67.824 103.52 68.512 105.696 69.888C107.872 71.264 109.568 73.264 110.784 75.888C112.032 78.48 112.656 81.584 112.656 85.2C112.656 88.816 112.032 91.936 110.784 94.56C109.568 97.152 107.872 99.136 105.696 100.512C103.52 101.888 101.04 102.576 98.2564 102.576ZM98.2564 96C100.304 96 101.904 95.12 103.056 93.36C104.24 91.6 104.832 88.88 104.832 85.2C104.832 81.52 104.24 78.8 103.056 77.04C101.904 75.28 100.304 74.4 98.2564 74.4C96.2404 74.4 94.6404 75.28 93.4564 77.04C92.3044 78.8 91.7284 81.52 91.7284 85.2C91.7284 88.88 92.3044 91.6 93.4564 93.36C94.6404 95.12 96.2404 96 98.2564 96Z" fill="white"/>
<path d="M37.4666 40.172C38.9666 40.172 40.1186 40.532 40.9226 41.252C41.7266 41.96 42.1286 43.034 42.1286 44.474V50H39.5006V48.794C38.9726 49.694 37.9886 50.144 36.5486 50.144C35.8046 50.144 35.1566 50.018 34.6046 49.766C34.0646 49.514 33.6506 49.166 33.3626 48.722C33.0746 48.278 32.9306 47.774 32.9306 47.21C32.9306 46.31 33.2666 45.602 33.9386 45.086C34.6226 44.57 35.6726 44.312 37.0886 44.312H39.3206C39.3206 43.7 39.1346 43.232 38.7626 42.908C38.3906 42.572 37.8326 42.404 37.0886 42.404C36.5726 42.404 36.0626 42.488 35.5586 42.656C35.0666 42.812 34.6466 43.028 34.2986 43.304L33.2906 41.342C33.8186 40.97 34.4486 40.682 35.1806 40.478C35.9246 40.274 36.6866 40.172 37.4666 40.172ZM37.2506 48.254C37.7306 48.254 38.1566 48.146 38.5286 47.93C38.9006 47.702 39.1646 47.372 39.3206 46.94V45.95H37.3946C36.2426 45.95 35.6666 46.328 35.6666 47.084C35.6666 47.444 35.8046 47.732 36.0806 47.948C36.3686 48.152 36.7586 48.254 37.2506 48.254ZM50.394 40.172C51.294 40.172 52.11 40.382 52.842 40.802C53.586 41.21 54.168 41.792 54.588 42.548C55.008 43.292 55.218 44.162 55.218 45.158C55.218 46.154 55.008 47.03 54.588 47.786C54.168 48.53 53.586 49.112 52.842 49.532C52.11 49.94 51.294 50.144 50.394 50.144C49.158 50.144 48.186 49.754 47.478 48.974V53.492H44.67V40.316H47.352V41.432C48.048 40.592 49.062 40.172 50.394 40.172ZM49.908 47.84C50.628 47.84 51.216 47.6 51.672 47.12C52.14 46.628 52.374 45.974 52.374 45.158C52.374 44.342 52.14 43.694 51.672 43.214C51.216 42.722 50.628 42.476 49.908 42.476C49.188 42.476 48.594 42.722 48.126 43.214C47.67 43.694 47.442 44.342 47.442 45.158C47.442 45.974 47.67 46.628 48.126 47.12C48.594 47.6 49.188 47.84 49.908 47.84ZM62.8218 40.172C63.7218 40.172 64.5378 40.382 65.2698 40.802C66.0138 41.21 66.5958 41.792 67.0158 42.548C67.4358 43.292 67.6458 44.162 67.6458 45.158C67.6458 46.154 67.4358 47.03 67.0158 47.786C66.5958 48.53 66.0138 49.112 65.2698 49.532C64.5378 49.94 63.7218 50.144 62.8218 50.144C61.5858 50.144 60.6138 49.754 59.9058 48.974V53.492H57.0978V40.316H59.7798V41.432C60.4758 40.592 61.4898 40.172 62.8218 40.172ZM62.3358 47.84C63.0558 47.84 63.6438 47.6 64.0998 47.12C64.5678 46.628 64.8018 45.974 64.8018 45.158C64.8018 44.342 64.5678 43.694 64.0998 43.214C63.6438 42.722 63.0558 42.476 62.3358 42.476C61.6158 42.476 61.0218 42.722 60.5538 43.214C60.0978 43.694 59.8698 44.342 59.8698 45.158C59.8698 45.974 60.0978 46.628 60.5538 47.12C61.0218 47.6 61.6158 47.84 62.3358 47.84ZM72.2075 41.594C72.5435 41.126 72.9935 40.772 73.5575 40.532C74.1335 40.292 74.7935 40.172 75.5375 40.172V42.764C75.2255 42.74 75.0155 42.728 74.9075 42.728C74.1035 42.728 73.4735 42.956 73.0175 43.412C72.5615 43.856 72.3335 44.528 72.3335 45.428V50H69.5255V40.316H72.2075V41.594ZM81.7272 50.144C80.7072 50.144 79.7892 49.934 78.9732 49.514C78.1692 49.082 77.5392 48.488 77.0832 47.732C76.6272 46.976 76.3992 46.118 76.3992 45.158C76.3992 44.198 76.6272 43.34 77.0832 42.584C77.5392 41.828 78.1692 41.24 78.9732 40.82C79.7892 40.388 80.7072 40.172 81.7272 40.172C82.7472 40.172 83.6592 40.388 84.4632 40.82C85.2672 41.24 85.8972 41.828 86.3532 42.584C86.8092 43.34 87.0372 44.198 87.0372 45.158C87.0372 46.118 86.8092 46.976 86.3532 47.732C85.8972 48.488 85.2672 49.082 84.4632 49.514C83.6592 49.934 82.7472 50.144 81.7272 50.144ZM81.7272 47.84C82.4472 47.84 83.0352 47.6 83.4912 47.12C83.9592 46.628 84.1932 45.974 84.1932 45.158C84.1932 44.342 83.9592 43.694 83.4912 43.214C83.0352 42.722 82.4472 42.476 81.7272 42.476C81.0072 42.476 80.4132 42.722 79.9452 43.214C79.4772 43.694 79.2432 44.342 79.2432 45.158C79.2432 45.974 79.4772 46.628 79.9452 47.12C80.4132 47.6 81.0072 47.84 81.7272 47.84ZM94.7713 50L92.6473 47.03L90.4513 50H87.3913L91.1173 45.122L87.5173 40.316H90.6673L92.7193 43.142L94.8253 40.316H97.8133L94.2133 45.05L97.9573 50H94.7713ZM100.382 50.144C99.8904 50.144 99.4764 49.976 99.1404 49.64C98.8044 49.304 98.6364 48.884 98.6364 48.38C98.6364 47.864 98.8044 47.45 99.1404 47.138C99.4764 46.814 99.8904 46.652 100.382 46.652C100.874 46.652 101.288 46.814 101.624 47.138C101.96 47.45 102.128 47.864 102.128 48.38C102.128 48.884 101.96 49.304 101.624 49.64C101.288 49.976 100.874 50.144 100.382 50.144Z" fill="white"/>
<path d="M52.5953 149L52.5553 132.2L44.3153 146.04H41.3953L33.1953 132.56V149H27.1153V121H32.4753L42.9553 138.4L53.2753 121H58.5953L58.6753 149H52.5953ZM63.9184 121H70.3984V149H63.9184V121ZM75.6434 121H82.1234V143.72H96.1634V149H75.6434V121ZM98.3841 121H104.864V143.72H118.904V149H98.3841V121ZM36.6302 170H43.1102V198H36.6302V170ZM61.9152 198.48C59.0085 198.48 56.3818 197.853 54.0352 196.6C51.7152 195.347 49.8885 193.627 48.5552 191.44C47.2485 189.227 46.5952 186.747 46.5952 184C46.5952 181.253 47.2485 178.787 48.5552 176.6C49.8885 174.387 51.7152 172.653 54.0352 171.4C56.3818 170.147 59.0085 169.52 61.9152 169.52C64.8218 169.52 67.4352 170.147 69.7552 171.4C72.0752 172.653 73.9018 174.387 75.2352 176.6C76.5685 178.787 77.2352 181.253 77.2352 184C77.2352 186.747 76.5685 189.227 75.2352 191.44C73.9018 193.627 72.0752 195.347 69.7552 196.6C67.4352 197.853 64.8218 198.48 61.9152 198.48ZM61.9152 192.96C63.5685 192.96 65.0618 192.587 66.3952 191.84C67.7285 191.067 68.7685 190 69.5152 188.64C70.2885 187.28 70.6752 185.733 70.6752 184C70.6752 182.267 70.2885 180.72 69.5152 179.36C68.7685 178 67.7285 176.947 66.3952 176.2C65.0618 175.427 63.5685 175.04 61.9152 175.04C60.2618 175.04 58.7685 175.427 57.4352 176.2C56.1018 176.947 55.0485 178 54.2752 179.36C53.5285 180.72 53.1552 182.267 53.1552 184C53.1552 185.733 53.5285 187.28 54.2752 188.64C55.0485 190 56.1018 191.067 57.4352 191.84C58.7685 192.587 60.2618 192.96 61.9152 192.96ZM106.385 170V198H101.065L87.1052 181V198H80.7052V170H86.0652L99.9852 187V170H106.385Z" fill="white"/>
</svg>
