<svg width="171" height="171" viewBox="0 0 171 171" fill="none" xmlns="http://www.w3.org/2000/svg">
<path fill-rule="evenodd" clip-rule="evenodd" d="M112.443 0C153.844 19.2001 143.875 13.3271 171 51.9798L143.701 77.5768L137.814 73.2506L137.987 171H33.0118L33.1862 73.2506L27.2982 77.5768L0 51.9798C27.1238 13.3271 17.1561 19.2001 58.5558 0C62.5466 2.9565 73.6109 26.4897 84.8162 26.5486C96.4772 26.6099 108.291 3.07675 112.443 0Z" fill="#EE5D5D"/>
<path d="M57.083 96.44C58.8696 96.44 60.4963 96.8 61.963 97.52C63.4296 98.24 64.5896 99.2667 65.443 100.6C66.2963 101.907 66.723 103.427 66.723 105.16C66.723 107.027 66.2563 108.667 65.323 110.08C64.3896 111.493 63.1096 112.587 61.483 113.36C59.883 114.107 58.0963 114.48 56.123 114.48C52.203 114.48 49.1363 113.28 46.923 110.88C44.7096 108.48 43.603 105.053 43.603 100.6C43.603 97.4267 44.203 94.7067 45.403 92.44C46.603 90.1733 48.2696 88.4533 50.403 87.28C52.563 86.1067 55.0563 85.52 57.883 85.52C59.3763 85.52 60.803 85.6933 62.163 86.04C63.5496 86.36 64.723 86.8267 65.683 87.44L63.283 92.2C61.8963 91.2667 60.1496 90.8 58.043 90.8C55.6696 90.8 53.7896 91.4933 52.403 92.88C51.0163 94.2667 50.2696 96.28 50.163 98.92C51.8163 97.2667 54.123 96.44 57.083 96.44ZM55.763 109.64C57.1496 109.64 58.2696 109.267 59.123 108.52C60.003 107.773 60.443 106.76 60.443 105.48C60.443 104.2 60.003 103.187 59.123 102.44C58.2696 101.667 57.123 101.28 55.683 101.28C54.2696 101.28 53.1096 101.68 52.203 102.48C51.2963 103.253 50.843 104.253 50.843 105.48C50.843 106.707 51.283 107.707 52.163 108.48C53.043 109.253 54.243 109.64 55.763 109.64ZM94.7117 108.12H90.1517V114H83.8317V108.12H68.7517V103.76L81.9517 86H88.7517L76.5117 102.84H84.0317V97.6H90.1517V102.84H94.7117V108.12ZM101.919 101.12C99.8656 101.12 98.1856 100.427 96.8789 99.04C95.5989 97.6267 94.9589 95.7467 94.9589 93.4C94.9589 91.0533 95.5989 89.1867 96.8789 87.8C98.1856 86.3867 99.8656 85.68 101.919 85.68C103.972 85.68 105.639 86.3867 106.919 87.8C108.199 89.1867 108.839 91.0533 108.839 93.4C108.839 95.7467 108.199 97.6267 106.919 99.04C105.639 100.427 103.972 101.12 101.919 101.12ZM118.599 86H123.359L104.239 114H99.4789L118.599 86ZM101.919 97.84C102.826 97.84 103.532 97.4667 104.039 96.72C104.572 95.9733 104.839 94.8667 104.839 93.4C104.839 91.9333 104.572 90.8267 104.039 90.08C103.532 89.3333 102.826 88.96 101.919 88.96C101.039 88.96 100.332 89.3467 99.7989 90.12C99.2656 90.8667 98.9989 91.96 98.9989 93.4C98.9989 94.84 99.2656 95.9467 99.7989 96.72C100.332 97.4667 101.039 97.84 101.919 97.84ZM120.919 114.32C119.586 114.32 118.386 114.013 117.319 113.4C116.279 112.76 115.466 111.853 114.879 110.68C114.292 109.507 113.999 108.147 113.999 106.6C113.999 105.053 114.292 103.693 114.879 102.52C115.466 101.347 116.279 100.453 117.319 99.84C118.386 99.2 119.586 98.88 120.919 98.88C122.972 98.88 124.639 99.5867 125.919 101C127.226 102.387 127.879 104.253 127.879 106.6C127.879 108.947 127.226 110.827 125.919 112.24C124.639 113.627 122.972 114.32 120.919 114.32ZM120.919 111.04C121.826 111.04 122.532 110.667 123.039 109.92C123.572 109.147 123.839 108.04 123.839 106.6C123.839 105.16 123.572 104.067 123.039 103.32C122.532 102.547 121.826 102.16 120.919 102.16C120.039 102.16 119.332 102.533 118.799 103.28C118.266 104.027 117.999 105.133 117.999 106.6C117.999 108.067 118.266 109.173 118.799 109.92C119.332 110.667 120.039 111.04 120.919 111.04Z" fill="white"/>
</svg>
