<svg width="101" height="239" viewBox="0 0 101 239" fill="none" xmlns="http://www.w3.org/2000/svg">
<g filter="url(#filter0_d)">
<path d="M46.9884 218.647V230.068H4C4 230.068 4.26012 226.549 8.28515 222.386C12.3102 218.223 30.5871 223.755 30.5871 223.755L36.8574 218.277C36.8574 218.277 37.7746 222.509 46.9884 218.647Z" fill="url(#paint0_linear)"/>
<path d="M48.4259 192.696L47.0569 218.592H46.9199C37.7062 222.454 36.7889 218.264 36.7889 218.264L35.0092 192.641L48.4259 192.696Z" fill="#FFEBC7"/>
<path d="M97 230.068H54.0253V218.716C63.2253 222.578 64.1426 218.387 64.1426 218.387L70.4266 223.865C70.4266 223.865 88.7035 218.291 92.7285 222.495C96.7535 226.7 97 230.068 97 230.068Z" fill="#237CA1"/>
<path d="M96.0279 66.1995C93.6047 74.2382 85.3903 74.2382 85.3903 74.2382C85.3903 74.2382 96.9588 82.8794 90.6338 90.4799C85.4998 96.6562 79.8456 91.3974 79.6814 91.2057C79.832 91.6576 81.7897 97.3546 79.3939 99.7922L78.3123 98.4228C76.4641 96.0947 72.3432 93.2325 69.4134 91.3564C67.5378 90.1512 66.1414 89.357 66.1414 89.357V82.2632C71.9599 78.9491 73.6438 71.6773 73.6438 67.5963L75.0129 27.1974C53.4639 26.0196 50.5478 9.18904 50.5478 9.18904C50.5478 9.18904 47.5359 26.0196 26.0417 27.1974L27.4108 67.5963C27.4108 71.7047 30.012 80.1953 34.9269 82.2632V89.357C34.9269 89.357 33.6263 90.1102 31.8328 91.2468C28.8894 93.1229 24.6316 96.0399 22.756 98.4228L21.6744 99.7922C19.2649 97.3546 21.2227 91.6576 21.3733 91.2057C21.1542 91.3974 15.5137 96.6835 10.4208 90.4799C3.99993 82.8794 15.6232 74.2382 15.6232 74.2382C15.6232 74.2382 7.40888 74.2382 4.98565 66.1995C2.56243 58.1608 13.7065 56.4079 13.7065 56.4079C11.6339 56.2184 9.68513 55.3377 8.17307 53.9071C6.66102 52.4766 5.67346 50.5792 5.36899 48.5198C2.84993 36.7836 16.8006 33.3188 16.8006 33.3188C6.06721 25.7047 13.419 11.6951 22.3453 14.6532C31.2989 3.94403 34.612 0 50.5478 0C66.4837 0 69.7146 3.94403 78.6683 14.6532C87.5808 11.6951 94.9326 25.7047 84.254 33.3188C84.254 33.3188 98.2184 36.7836 95.6993 48.5198C95.3925 50.5877 94.397 52.4915 92.8739 53.923C91.3508 55.3546 89.3894 56.2301 87.307 56.4079C87.307 56.4079 98.4648 58.1608 96.0279 66.1995Z" fill="url(#paint1_radial)"/>
<path d="M87.2113 192.696H13.7888L23.4407 153.42H77.5732L87.2113 192.696Z" fill="#0D395E"/>
<path d="M65.9224 192.696L64.1426 218.319C64.1426 218.319 63.2253 222.509 54.0253 218.647H53.8747L52.5878 192.751L65.9224 192.696Z" fill="#FFEBC7"/>
<path d="M50.5479 9.18896C50.5479 9.18896 47.5359 26.0196 26.0417 27.1973L27.4108 67.5962C27.4108 71.7046 30.0531 80.3459 34.9269 82.2631V89.3569C34.9269 89.3569 40.4032 102.517 49.5074 103.421C49.8402 103.442 50.174 103.442 50.5068 103.421C50.8853 103.442 51.2646 103.442 51.6431 103.421C60.7199 102.394 66.0866 89.3706 66.0866 89.3706V82.2631C71.9736 79.0175 73.5891 71.6772 73.5891 67.5962L74.9581 27.1973C53.464 26.0196 50.5479 9.18896 50.5479 9.18896Z" fill="#FFEBC7"/>
<path d="M88.2654 111.049L85.4178 112.912L77.5731 118.02V133.851H57.9545C57.9545 133.851 55.6545 134.823 57.9545 136.042H61.1034C61.1034 136.042 58.3652 137.507 60.0903 138.466C60.0903 138.466 59.2414 141.876 63.8278 141.999C63.8278 141.999 62.6367 143.368 65.854 143.45H77.5731V153.379H23.4406V143.409H35.1461C38.377 143.286 37.1859 141.958 37.1859 141.958C41.7723 141.835 40.9235 138.425 40.9235 138.425C42.6211 137.466 39.9104 136.001 39.9104 136.001H43.0592C45.3455 134.782 43.0592 133.81 43.0592 133.81H23.4406V118.02L15.5959 112.912L12.7483 111.049L21.6745 99.7922L22.7561 98.4228C24.6317 96.0399 28.8895 93.123 31.8329 91.2468C32.3532 94.6568 36.1865 116.089 49.5075 103.421C49.8403 103.442 50.1741 103.442 50.5069 103.421C50.8854 103.442 51.2647 103.442 51.6432 103.421C64.704 115.623 68.7427 95.0813 69.3588 91.3701C72.2886 93.2462 76.4094 96.1084 78.2576 98.4365L79.3392 99.8059L88.2654 111.049Z" fill="#EB3825"/>
<path d="M43.0592 133.851H23.4406V118.02L15.5959 112.912L4.54761 143.45H35.146C38.377 143.327 37.1859 141.999 37.1859 141.999C41.7723 141.876 40.9234 138.466 40.9234 138.466C42.6211 137.507 39.9103 136.042 39.9103 136.042H43.0592C45.3455 134.823 43.0592 133.851 43.0592 133.851Z" fill="#FFEBC7"/>
<path d="M85.4177 112.912L77.5731 118.02V133.851H57.9545C57.9545 133.851 55.6545 134.823 57.9545 136.042H61.1033C61.1033 136.042 58.3652 137.507 60.0902 138.466C60.0902 138.466 59.2414 141.876 63.8277 141.999C63.8277 141.999 62.6367 143.368 65.8539 143.45H96.4523L85.4177 112.912Z" fill="#FFEBC7"/>
<path d="M49.5074 103.421C36.1865 116.089 32.3531 94.6567 31.8329 91.2468C33.6263 90.1101 34.927 89.3569 34.927 89.3569C34.927 89.3569 40.3484 102.517 49.5074 103.421Z" fill="#951F1E"/>
<path d="M69.3588 91.3563C68.7427 95.0676 64.704 115.609 51.6432 103.408C60.72 102.38 66.0867 89.3569 66.0867 89.3569C66.0867 89.3569 67.4832 90.1512 69.3588 91.3563Z" fill="#951F1E"/>
<path d="M62 69C60.5052 67.6194 58.7538 66.5911 56.8604 65.9822C54.9644 65.3424 52.9887 65.0112 51 65C49.0125 65.0134 47.0377 65.3396 45.1396 65.968C43.2456 66.5822 41.4943 67.6154 40 69C41.7195 68.1138 43.5356 67.4587 45.4066 67.0498C49.0944 66.2147 52.9056 66.2147 56.5934 67.0498C58.4644 67.4587 60.2805 68.1138 62 69Z" fill="#E30613"/>
<path d="M55 41C55.8154 42.3806 56.7707 43.4089 57.8034 44.0178C58.8376 44.6576 59.9153 44.9888 61 45C62.0841 44.9866 63.1612 44.6604 64.1966 44.032C65.2297 43.4178 66.1849 42.3846 67 41C66.0621 41.8862 65.0715 42.5413 64.051 42.9502C62.0394 43.7853 59.9606 43.7853 57.949 42.9502C56.9285 42.5413 55.9379 41.8862 55 41Z" fill="black"/>
<path d="M34 41C34.8154 42.3806 35.7707 43.4089 36.8034 44.0178C37.8376 44.6576 38.9153 44.9888 40 45C41.0841 44.9866 42.1612 44.6604 43.1966 44.032C44.2297 43.4178 45.1849 42.3846 46 41C45.0621 41.8862 44.0715 42.5413 43.051 42.9502C41.0394 43.7853 38.9606 43.7853 36.949 42.9502C35.9285 42.5413 34.9379 41.8862 34 41Z" fill="black"/>
<path d="M22.0305 221.852C22.4324 222.986 22.6721 224.17 22.7424 225.371" stroke="white" stroke-linecap="round" stroke-linejoin="round"/>
<path d="M25.1245 222.55C25.6989 223.578 25.8974 224.774 25.6858 225.933" stroke="white" stroke-linecap="round" stroke-linejoin="round"/>
<path d="M78.9832 221.852C78.5835 222.987 78.3395 224.171 78.2576 225.371" stroke="white" stroke-linecap="round" stroke-linejoin="round"/>
<path d="M75.8892 222.55C75.3166 223.579 75.1136 224.773 75.3142 225.933" stroke="white" stroke-linecap="round" stroke-linejoin="round"/>
<path d="M67.3913 51.1844C67.0213 51.7069 66.5212 52 66 52C65.4788 52 64.9787 51.7069 64.6087 51.1844L64.394 50.8587C63.9901 50.2455 63.8881 49.4121 64.128 48.6838L66 43L67.872 48.6837C68.1119 49.412 68.0099 50.2454 67.606 50.8586L67.3913 51.1844Z" fill="#247BA0"/>
</g>
<defs>
<filter id="filter0_d" x="0" y="0" width="101" height="238.068" filterUnits="userSpaceOnUse" color-interpolation-filters="sRGB">
<feFlood flood-opacity="0" result="BackgroundImageFix"/>
<feColorMatrix in="SourceAlpha" type="matrix" values="0 0 0 0 0 0 0 0 0 0 0 0 0 0 0 0 0 0 127 0"/>
<feOffset dy="4"/>
<feGaussianBlur stdDeviation="2"/>
<feColorMatrix type="matrix" values="0 0 0 0 0 0 0 0 0 0 0 0 0 0 0 0 0 0 0.25 0"/>
<feBlend mode="normal" in2="BackgroundImageFix" result="effect1_dropShadow"/>
<feBlend mode="normal" in="SourceGraphic" in2="effect1_dropShadow" result="shape"/>
</filter>
<linearGradient id="paint0_linear" x1="-1.40777" y1="200.79" x2="30.6499" y2="228.813" gradientUnits="userSpaceOnUse">
<stop stop-color="#237CA1" stop-opacity="0.2"/>
<stop offset="1" stop-color="#237CA1"/>
</linearGradient>
<radialGradient id="paint1_radial" cx="0" cy="0" r="1" gradientUnits="userSpaceOnUse" gradientTransform="translate(52.6014 31.4975) rotate(22.7923) scale(47.4759 47.4856)">
<stop stop-color="#997945" stop-opacity="0.2"/>
<stop offset="1" stop-color="#997945"/>
</radialGradient>
</defs>
</svg>
