<svg width="51" height="79" viewBox="0 0 51 79" fill="none" xmlns="http://www.w3.org/2000/svg">
<path d="M12.2831 30.507L3.99915 53.645L5.99873 66.4995L12.2831 68.499L22.281 70.213L23.995 53.645L12.2831 30.507Z" fill="white"/>
<path d="M25.5463 0.5C3.19975 27.5349 -0.866197 44.7941 0.138432 54.9708C1.0444 67.9084 11.8781 78.1312 25.1479 78.1312C38.6663 78.1312 49.6584 67.5178 50.1934 54.23C51.9266 31.8302 25.5463 0.5 25.5463 0.5ZM17.4391 65.8695C17.4391 65.8695 11.677 68.4431 8.02842 60.8193C8.02842 60.8193 1.20947 52.529 13.0222 31.3746C13.0222 31.3746 7.45164 47.1945 18.7843 60.5331C18.7843 60.5331 20.8002 64.1544 17.4391 65.8695Z" fill="#62B8DB"/>
</svg>
