<svg width="88" height="136" viewBox="0 0 88 136" fill="none" xmlns="http://www.w3.org/2000/svg">
<path d="M44.7154 0C5.60073 47.3209 -1.51616 77.5309 0.242306 95.3438C1.82808 117.989 20.791 135.883 44.018 135.883C67.6801 135.883 86.9203 117.306 87.8568 94.0471C90.8905 54.8392 44.7154 0 44.7154 0Z" fill="#62B8DB"/>
<path d="M38.6733 53V74H33.8133V56.9H29.6133V53H38.6733ZM58.7614 53V56.15L50.9614 74H45.6814L53.2114 56.96H46.2514V60.38H41.9314V53H58.7614ZM37.8783 104L37.8483 91.4L31.6683 101.78H29.4783L23.3283 91.67V104H18.7683V83H22.7883L30.6483 96.05L38.3883 83H42.3783L42.4383 104H37.8783ZM47.4207 83H52.2807V104H47.4207V83ZM57.2644 83H62.1244V100.04H72.6544V104H57.2644V83Z" fill="white"/>
</svg>
