<svg width="305" height="79" viewBox="0 0 305 79" fill="none" xmlns="http://www.w3.org/2000/svg">
<path d="M266.283 30.007L257.999 53.145L259.999 65.9995L266.283 67.999L276.281 69.713L277.995 53.145L266.283 30.007Z" fill="white"/>
<path d="M279.546 0C257.2 27.0349 253.134 44.2941 254.138 54.4708C255.044 67.4084 265.878 77.6312 279.148 77.6312C292.666 77.6312 303.658 67.0178 304.193 53.73C305.927 31.3302 279.546 0 279.546 0ZM271.439 65.3695C271.439 65.3695 265.677 67.9431 262.028 60.3193C262.028 60.3193 255.209 52.029 267.022 30.8746C267.022 30.8746 261.452 46.6945 272.784 60.0331C272.784 60.0331 274.8 63.6544 271.439 65.3695Z" fill="#62B8DB"/>
<path d="M202.084 38.6351L195.283 57.6311L196.925 68.1844L202.084 69.8261L210.292 71.2332L211.699 57.6311L202.084 38.6351Z" fill="white"/>
<path d="M212.973 14C194.627 36.1953 191.289 50.3648 192.114 58.7198C192.857 69.3413 201.752 77.7341 212.646 77.7341C223.744 77.7341 232.769 69.0206 233.208 58.1116C234.631 39.7216 212.973 14 212.973 14ZM206.317 67.6674C206.317 67.6674 201.587 69.7803 198.591 63.5213C198.591 63.5213 192.993 56.7151 202.691 39.3476C202.691 39.3476 198.118 52.3355 207.422 63.2863C207.422 63.2863 209.077 66.2593 206.317 67.6674Z" fill="#62B8DB"/>
<path d="M145.307 45.2928L139.705 60.9406L141.057 69.6338L145.307 70.986L152.068 72.1451L153.227 60.9406L145.307 45.2928Z" fill="white"/>
<path d="M154.276 25C139.164 43.2831 136.414 54.9551 137.094 61.8374C137.706 70.5868 145.033 77.5003 154.007 77.5003C163.149 77.5003 170.583 70.3226 170.945 61.3364C172.117 46.1879 154.276 25 154.276 25ZM148.794 69.2079C148.794 69.2079 144.897 70.9484 142.429 65.7926C142.429 65.7926 137.818 60.1861 145.807 45.8798C145.807 45.8798 142.039 56.5785 149.703 65.5991C149.703 65.5991 151.067 68.048 148.794 69.2079Z" fill="#62B8DB"/>
<path d="M93.4365 49.1667L88.4211 63.1751L89.6317 70.9575L93.4365 72.1681L99.4895 73.2058L100.527 63.1751L93.4365 49.1667Z" fill="white"/>
<path d="M101.466 31C87.9372 47.3676 85.4756 57.8168 86.0838 63.9781C86.6323 71.8108 93.1913 78 101.225 78C109.41 78 116.064 71.5743 116.388 63.5296C117.438 49.9681 101.466 31 101.466 31ZM96.5581 70.5764C96.5581 70.5764 93.0695 72.1345 90.8606 67.5189C90.8606 67.5189 86.7322 62.4997 93.884 49.6923C93.884 49.6923 90.5114 59.2701 97.3725 67.3456C97.3725 67.3456 98.593 69.5381 96.5581 70.5764Z" fill="#62B8DB"/>
<path d="M46.5966 52.1149L42.1477 64.541L43.2216 71.4444L46.5966 72.5183L51.9659 73.4387L52.8863 64.541L46.5966 52.1149Z" fill="white"/>
<path d="M53.7195 36C41.7184 50.5189 39.5348 59.7879 40.0743 65.2532C40.5609 72.2013 46.379 77.6914 53.5055 77.6914C60.7655 77.6914 66.6687 71.9915 66.9561 64.8554C67.8869 52.8257 53.7195 36 53.7195 36ZM49.3656 71.1063C49.3656 71.1063 46.271 72.4884 44.3116 68.3941C44.3116 68.3941 40.6495 63.9419 46.9935 52.581C46.9935 52.581 44.0019 61.077 50.088 68.2404C50.088 68.2404 51.1706 70.1852 49.3656 71.1063Z" fill="#62B8DB"/>
<path d="M5.13064 58.5337L1.67041 68.1985L2.50564 73.5678L5.13064 74.403L9.30678 75.1189L10.0227 68.1985L5.13064 58.5337Z" fill="white"/>
<path d="M10.6707 46C1.33654 57.2925 -0.361811 64.5017 0.0578231 68.7525C0.436247 74.1566 4.96148 78.4266 10.5043 78.4266C16.1509 78.4266 20.7423 73.9934 20.9658 68.4431C21.6898 59.0866 10.6707 46 10.6707 46ZM7.28433 73.3049C7.28433 73.3049 4.87747 74.3799 3.35348 71.1954C3.35348 71.1954 0.505195 67.7326 5.43936 58.8963C5.43936 58.8963 3.11255 65.5043 7.84622 71.0759C7.84622 71.0759 8.68826 72.5885 7.28433 73.3049Z" fill="#62B8DB"/>
</svg>
