<svg width="93" height="94" viewBox="0 0 93 94" fill="none" xmlns="http://www.w3.org/2000/svg">
<path d="M34.3706 67.7714V81.6143C34.3706 88.077 39.8044 93.333 46.5049 93.333C53.195 93.333 58.6294 88.076 58.6294 81.6143V67.8535C67.916 63.3834 73.7248 54.271 73.7248 44.373C73.7248 37.2659 70.8215 30.6116 65.5454 25.6365C60.054 20.4582 52.4913 17.7482 44.7943 18.2002C37.9688 18.5937 31.5354 21.5187 26.7518 26.4033C21.9504 31.3022 19.2985 37.651 19.2746 44.2803C19.2393 54.303 25.084 63.4175 34.3706 67.7714ZM55.597 73.389V78.5061H37.4029V73.389H55.597ZM46.4949 90.2186C41.4782 90.2186 37.3965 86.466 37.3933 81.5385H55.6063C55.6029 86.466 51.5223 90.2186 46.4949 90.2186ZM28.9186 28.5256C33.1756 24.1793 38.9005 21.5769 44.9741 21.2271C45.4703 21.1979 45.9656 21.1833 46.46 21.1833C52.8048 21.1833 58.9342 23.5677 63.4673 27.8423C68.1296 32.2392 70.6972 38.1091 70.6972 44.3726C70.6972 53.3912 65.1232 61.6839 56.5043 65.499C56.2351 65.6176 56.0062 65.8118 55.8451 66.0579C55.6841 66.3041 55.5979 66.5916 55.597 66.8858V70.3567H48.0162V62.222L53.2621 52.0841C54.5167 52.4395 55.8383 52.4885 57.1157 52.2269C58.3931 51.9653 59.5891 51.4008 60.6029 50.5809C61.6168 49.761 62.419 48.7096 62.9421 47.5152C63.4652 46.3208 63.6938 45.0182 63.6087 43.7171L62.9162 32.9687C62.9162 32.9602 62.9134 32.952 62.9128 32.9437C62.9087 32.8967 62.9024 32.85 62.8938 32.8036C62.8914 32.7906 62.8899 32.7771 62.8872 32.764C62.8756 32.7075 62.8609 32.6516 62.843 32.5967C62.8391 32.5842 62.8338 32.5722 62.8294 32.5599C62.8142 32.5171 62.7974 32.475 62.7784 32.4337C62.771 32.4176 62.7633 32.4017 62.7551 32.3857C62.7352 32.3456 62.7132 32.3067 62.6895 32.2684C62.6825 32.257 62.6761 32.2455 62.6689 32.2343C62.6363 32.1844 62.6009 32.1364 62.5627 32.0906L62.5591 32.0869C62.5225 32.0438 62.4834 32.0029 62.442 31.9642C62.4308 31.9536 62.4191 31.9438 62.4077 31.9335C62.3747 31.9042 62.3403 31.8763 62.3044 31.8498C62.2902 31.8393 62.2762 31.8287 62.2616 31.8185C62.2222 31.7916 62.1812 31.7663 62.1388 31.7427C62.1301 31.7378 62.1221 31.7317 62.1134 31.727C62.1113 31.7258 62.109 31.7253 62.1071 31.7241C62.1052 31.723 62.1022 31.7211 62.0995 31.7198C62.0489 31.6937 61.9968 31.6705 61.9436 31.6504C61.9314 31.6458 61.9193 31.6422 61.907 31.6381C61.8621 31.622 61.8166 31.6081 61.7709 31.5966C61.7556 31.5928 61.7404 31.5894 61.7249 31.586C61.6788 31.5759 61.6326 31.5679 61.5861 31.5625C61.5738 31.5609 61.5615 31.5589 61.5492 31.5577C61.4322 31.5463 61.3144 31.5486 61.198 31.5645C61.1819 31.5668 61.166 31.5698 61.1499 31.5725C61.1076 31.5797 61.0659 31.5886 61.0244 31.5992C61.0073 31.6036 60.9901 31.6077 60.9732 31.6129C60.9212 31.628 60.8701 31.6459 60.8201 31.6665C60.8165 31.668 60.8127 31.669 60.8091 31.6705C60.7549 31.694 60.7021 31.7205 60.6508 31.7499C60.6459 31.7527 60.6406 31.7546 60.6359 31.7575L51.3216 37.2113C49.741 38.1431 48.5207 39.5807 47.8581 41.2918C47.1955 43.0028 47.1293 44.8873 47.6701 46.6406L47.6724 46.648C48.1797 48.2736 49.183 49.6997 50.5417 50.7264L45.1373 61.1546C45.1233 61.1819 45.1125 61.2103 45.0994 61.2384L44.3375 59.8202C45.3551 58.99 46.1566 57.9259 46.6735 56.7187C47.1904 55.5114 47.4074 54.197 47.3059 52.8877C47.2044 51.5784 46.7874 50.3131 46.0907 49.2C45.3939 48.0868 44.438 47.1589 43.3046 46.4955L33.9991 41.0463C33.9919 41.042 33.9841 41.0391 33.9769 41.0351C33.9359 41.012 33.8939 40.9909 33.8511 40.9718C33.8393 40.9667 33.8278 40.9605 33.8158 40.9555C33.7634 40.9336 33.7098 40.9146 33.6553 40.8987C33.639 40.8939 33.6223 40.8905 33.6057 40.8864C33.5655 40.8761 33.5251 40.8674 33.4842 40.8604C33.4652 40.8572 33.4463 40.8543 33.4273 40.8519C33.3832 40.8462 33.3388 40.8426 33.2947 40.8407C33.2816 40.8407 33.2687 40.8388 33.2556 40.8386C33.1969 40.8377 33.1382 40.8401 33.0797 40.846C33.0712 40.846 33.0629 40.8487 33.0545 40.8496C33.0051 40.8555 32.9558 40.864 32.9067 40.8748C32.8904 40.8784 32.8741 40.8826 32.8578 40.8867C32.8159 40.8975 32.7743 40.9101 32.7331 40.9247C32.7166 40.9305 32.6999 40.9358 32.6834 40.9423C32.6346 40.9614 32.5868 40.983 32.5402 41.0069C32.5343 41.0099 32.5282 41.0118 32.5224 41.0151L32.5197 41.0168L32.5163 41.0183C32.4648 41.0463 32.415 41.0772 32.3669 41.1108C32.3546 41.1195 32.3429 41.1297 32.3307 41.1381C32.294 41.1653 32.2587 41.1938 32.225 41.2239C32.2124 41.2346 32.2004 41.2456 32.1892 41.2569C32.1543 41.2901 32.1215 41.3244 32.0904 41.3602C32.083 41.3687 32.0751 41.3769 32.0679 41.3856C32.0296 41.4314 31.9941 41.4795 31.9616 41.5296C31.9589 41.5334 31.9568 41.5378 31.9544 41.5417C31.9263 41.5863 31.9005 41.6323 31.8772 41.6795C31.8694 41.6951 31.8624 41.7108 31.8552 41.7265C31.8376 41.7644 31.8219 41.8046 31.8075 41.8446C31.8018 41.8607 31.7957 41.8766 31.7904 41.8931C31.7726 41.9481 31.7578 42.0041 31.7463 42.0608C31.7463 42.0644 31.7463 42.0682 31.7447 42.0716C31.7345 42.1265 31.7273 42.182 31.7231 42.2377C31.7231 42.2441 31.7212 42.2502 31.7209 42.2566L31.0291 52.9995C30.9572 54.1115 31.1139 55.2264 31.4895 56.2755C31.865 57.3246 32.4515 58.2856 33.2128 59.0993C33.9741 59.9131 34.894 60.5622 35.9158 61.0067C36.9376 61.4512 38.0396 61.6817 39.1539 61.684C40.0149 61.6833 40.8703 61.5466 41.6886 61.2789L44.9838 67.3982V70.3567H37.4029V66.7904C37.4019 66.493 37.3137 66.2023 37.1492 65.9545C36.9846 65.7067 36.751 65.5125 36.4773 65.3961C27.837 61.7061 22.2726 53.4221 22.3054 44.2911C22.3263 38.4563 24.6733 32.8575 28.9186 28.5259V28.5256ZM50.5685 45.7463C50.2297 44.645 50.2717 43.4617 50.6878 42.3871C51.1038 41.3126 51.8696 40.4096 52.8617 39.8235L57.6439 37.0241L51.97 47.9722C51.3176 47.3646 50.8346 46.5976 50.5685 45.7467V45.7463ZM60.2403 38.6047L60.5815 43.9183C60.63 44.6822 60.5067 45.4473 60.2205 46.1572C59.9344 46.8671 59.4927 47.5038 58.928 48.0205C58.3632 48.5372 57.6898 48.9206 56.9573 49.1427C56.2248 49.3647 55.4519 49.4197 54.6953 49.3036L60.2403 38.6047ZM44.0692 55.0319C43.8308 55.796 43.4172 56.4939 42.8612 57.0697L37.1222 46.3888L41.7655 49.1078C42.7596 49.6925 43.5277 50.5951 43.9456 51.67C44.3636 52.7449 44.4071 53.9293 44.0692 55.0319ZM34.0546 53.2008L34.4064 47.7406L40.2096 58.5417C39.3678 58.7206 38.4943 58.6814 37.6719 58.428L37.6643 58.4257C36.5574 58.0963 35.5961 57.3988 34.9397 56.4486C34.2833 55.4985 33.971 54.3526 34.0546 53.2008Z" fill="#4E9B14"/>
<path d="M46.5001 14.6017C46.9022 14.6017 47.2878 14.442 47.5722 14.1576C47.8565 13.8733 48.0162 13.4877 48.0162 13.0856V1.51618C48.0162 1.11406 47.8565 0.728416 47.5722 0.444078C47.2878 0.159739 46.9022 0 46.5001 0C46.0979 0 45.7123 0.159739 45.428 0.444078C45.1436 0.728416 44.9839 1.11406 44.9839 1.51618V13.0856C44.9839 13.4877 45.1436 13.8733 45.428 14.1576C45.7123 14.442 46.0979 14.6017 46.5001 14.6017Z" fill="#4E9B14"/>
<path d="M13.5569 43.2554H1.51618C1.11406 43.2554 0.728416 43.4151 0.444078 43.6995C0.159739 43.9838 0 44.3695 0 44.7716C0 45.1737 0.159739 45.5593 0.444078 45.8437C0.728416 46.128 1.11406 46.2878 1.51618 46.2878H13.5569C13.959 46.2878 14.3447 46.128 14.629 45.8437C14.9133 45.5593 15.0731 45.1737 15.0731 44.7716C15.0731 44.3695 14.9133 43.9838 14.629 43.6995C14.3447 43.4151 13.959 43.2554 13.5569 43.2554Z" fill="#4E9B14"/>
<path d="M91.4837 43.2554H79.4429C79.0408 43.2554 78.6552 43.4151 78.3708 43.6995C78.0865 43.9838 77.9268 44.3695 77.9268 44.7716C77.9268 45.1737 78.0865 45.5593 78.3708 45.8437C78.6552 46.128 79.0408 46.2878 79.4429 46.2878H91.4837C91.8858 46.2878 92.2714 46.128 92.5558 45.8437C92.8401 45.5593 92.9998 45.1737 92.9998 44.7716C92.9998 44.3695 92.8401 43.9838 92.5558 43.6995C92.2714 43.4151 91.8858 43.2554 91.4837 43.2554Z" fill="#4E9B14"/>
<path d="M22.2413 23.4403C22.5328 23.7173 22.9225 23.8672 23.3245 23.8569C23.7265 23.8466 24.1079 23.677 24.3849 23.3855C24.6619 23.0939 24.8117 22.7043 24.8014 22.3023C24.7911 21.9003 24.6216 21.5189 24.33 21.2419L15.7574 13.0974C15.4658 12.8204 15.0762 12.6706 14.6742 12.6809C14.2722 12.6911 13.8908 12.8607 13.6138 13.1522C13.3368 13.4438 13.187 13.8334 13.1973 14.2354C13.2076 14.6374 13.3771 15.0188 13.6687 15.2958L22.2413 23.4403Z" fill="#4E9B14"/>
<path d="M69.7148 23.8575C70.1035 23.8579 70.4774 23.7086 70.7589 23.4405L79.3317 15.2958C79.6233 15.0188 79.7928 14.6374 79.8031 14.2354C79.8134 13.8334 79.6636 13.4438 79.3866 13.1522C79.1096 12.8607 78.7282 12.6911 78.3262 12.6809C77.9242 12.6706 77.5345 12.8204 77.243 13.0974L68.6702 21.2419C68.4503 21.4507 68.2982 21.7207 68.2333 22.0169C68.1685 22.3131 68.1939 22.6219 68.3064 22.9035C68.4189 23.1851 68.6132 23.4265 68.8643 23.5965C69.1153 23.7665 69.4116 23.8574 69.7148 23.8573V23.8575Z" fill="#4E9B14"/>
</svg>
