<svg width="59" height="136" viewBox="0 0 59 136" fill="none" xmlns="http://www.w3.org/2000/svg">
<g clip-path="url(#clip0)" filter="url(#filter0_d)">
<path d="M27.5743 121.682V128.038H4C4 128.038 4.14265 126.079 6.34992 123.763C8.55719 121.446 18.58 124.525 18.58 124.525L22.0185 121.476C22.0185 121.476 22.5216 123.831 27.5743 121.682Z" fill="url(#paint0_linear)"/>
<path d="M28.3626 107.24L27.6118 121.651H27.5367C22.484 123.801 21.981 121.469 21.981 121.469L21.005 107.209L28.3626 107.24Z" fill="#FFEBC7"/>
<path d="M55 128.038H31.4332V121.72C36.4784 123.869 36.9814 121.537 36.9814 121.537L40.4275 124.586C40.4275 124.586 50.4503 121.484 52.6576 123.824C54.8648 126.163 55 128.038 55 128.038Z" fill="#237CA1"/>
<path d="M54.4669 36.8414C53.138 41.3152 48.6334 41.3152 48.6334 41.3152C48.6334 41.3152 54.9774 46.1242 51.5089 50.354C48.6935 53.7912 45.5928 50.8647 45.5027 50.758C45.5853 51.0095 46.6589 54.1799 45.345 55.5365L44.7519 54.7744C43.7384 53.4788 41.4785 51.8859 39.8719 50.8418C38.8433 50.1711 38.0775 49.7291 38.0775 49.7291V45.7812C41.2683 43.9369 42.1918 39.89 42.1918 37.6188L42.9425 15.1359C31.1254 14.4805 29.5262 5.1139 29.5262 5.1139C29.5262 5.1139 27.8745 14.4805 16.0874 15.1359L16.8382 37.6188C16.8382 39.9052 18.2646 44.6304 20.9599 45.7812V49.7291C20.9599 49.7291 20.2467 50.1483 19.2632 50.7808C17.649 51.8249 15.3141 53.4483 14.2855 54.7744L13.6924 55.5365C12.3711 54.1799 13.4447 51.0095 13.5273 50.758C13.4071 50.8647 10.314 53.8065 7.52108 50.354C3.99996 46.1242 10.374 41.3152 10.374 41.3152C10.374 41.3152 5.86938 41.3152 4.54052 36.8414C3.21165 32.3677 9.32294 31.3922 9.32294 31.3922C8.18635 31.2868 7.11765 30.7966 6.28846 30.0005C5.45926 29.2044 4.9177 28.1484 4.75073 27.0023C3.36931 20.4709 11.0197 18.5427 11.0197 18.5427C5.13363 14.3052 9.16528 6.5086 14.0603 8.15481C18.9704 2.19494 20.7872 0 29.5262 0C38.2652 0 40.0371 2.19494 44.9471 8.15481C49.8346 6.5086 53.8663 14.3052 48.0103 18.5427C48.0103 18.5427 55.6681 20.4709 54.2867 27.0023C54.1185 28.1531 53.5725 29.2127 52.7373 30.0093C51.9021 30.806 50.8264 31.2933 49.6845 31.3922C49.6845 31.3922 55.8033 32.3677 54.4669 36.8414Z" fill="url(#paint1_radial)"/>
<path d="M49.632 107.24H9.36804L14.661 85.3816H44.3466L49.632 107.24Z" fill="#0D395E"/>
<path d="M37.9575 107.24L36.9815 121.499C36.9815 121.499 36.4785 123.831 31.4333 121.682H31.3507L30.645 107.27L37.9575 107.24Z" fill="#FFEBC7"/>
<path d="M29.5263 5.11386C29.5263 5.11386 27.8746 14.4805 16.0875 15.1359L16.8382 37.6188C16.8382 39.9052 18.2872 44.7142 20.96 45.7812V49.729C20.96 49.729 23.9631 57.0531 28.9557 57.5561C29.1382 57.5677 29.3213 57.5677 29.5038 57.5561C29.7113 57.5677 29.9194 57.5677 30.1269 57.5561C35.1045 56.9845 38.0476 49.7367 38.0476 49.7367V45.7812C41.2759 43.975 42.1618 39.8899 42.1618 37.6188L42.9126 15.1359C31.1254 14.4805 29.5263 5.11386 29.5263 5.11386Z" fill="#FFEBC7"/>
<path d="M50.21 61.8013L48.6484 62.8378L44.3465 65.6805V74.4908H33.5879C33.5879 74.4908 32.3266 75.0319 33.5879 75.7102H35.3147C35.3147 75.7102 33.8132 76.5257 34.7591 77.0592C34.7591 77.0592 34.2937 78.9569 36.8088 79.0255C36.8088 79.0255 36.1556 79.7876 37.9199 79.8333H44.3465V85.3588H14.661V79.8105H21.0801C22.8519 79.7419 22.1987 79.0026 22.1987 79.0026C24.7138 78.934 24.2483 77.0363 24.2483 77.0363C25.1793 76.5028 23.6928 75.6873 23.6928 75.6873H25.4195C26.6733 75.009 25.4195 74.4679 25.4195 74.4679H14.661V65.6805L10.359 62.8378L8.79742 61.8013L13.6925 55.5366L14.2856 54.7744C15.3141 53.4483 17.649 51.825 19.2632 50.7809C19.5485 52.6786 21.6507 64.6059 28.9557 57.5562C29.1382 57.5678 29.3212 57.5678 29.5037 57.5562C29.7113 57.5678 29.9193 57.5678 30.1269 57.5562C37.2892 64.3468 39.504 52.9148 39.8419 50.8495C41.4485 51.8936 43.7084 53.4864 44.7219 54.7821L45.315 55.5442L50.21 61.8013Z" fill="#EB3825"/>
<path d="M25.4196 74.4907H14.661V65.6805L10.3591 62.8378L4.30035 79.8333H21.0801C22.852 79.7647 22.1988 79.0254 22.1988 79.0254C24.7139 78.9568 24.2484 77.0591 24.2484 77.0591C25.1793 76.5256 23.6928 75.7101 23.6928 75.7101H25.4196C26.6734 75.0319 25.4196 74.4907 25.4196 74.4907Z" fill="#FFEBC7"/>
<path d="M48.6484 62.8378L44.3465 65.6805V74.4907H33.5879C33.5879 74.4907 32.3266 75.0319 33.5879 75.7101H35.3147C35.3147 75.7101 33.8132 76.5256 34.7591 77.0591C34.7591 77.0591 34.2936 78.9568 36.8087 79.0254C36.8087 79.0254 36.1556 79.7876 37.9199 79.8333H54.6997L48.6484 62.8378Z" fill="#FFEBC7"/>
<path d="M28.9557 57.5562C21.6506 64.6059 19.5485 52.6786 19.2632 50.7809C20.2467 50.1483 20.9599 49.7291 20.9599 49.7291C20.9599 49.7291 23.933 57.0532 28.9557 57.5562Z" fill="#951F1E"/>
<path d="M39.8419 50.8418C39.504 52.9072 37.2893 64.3392 30.1269 57.5486C35.1045 56.977 38.0475 49.7291 38.0475 49.7291C38.0475 49.7291 38.8133 50.1711 39.8419 50.8418Z" fill="#951F1E"/>
<path d="M36.0655 35.8964C35.2249 36.6355 34.2399 37.1861 33.1751 37.5121C32.1088 37.8546 30.9976 38.0319 29.8792 38.0379C28.7614 38.0307 27.6508 37.8561 26.5833 37.5197C25.5181 37.1908 24.5332 36.6377 23.6928 35.8964C24.6599 36.3708 25.6812 36.7216 26.7334 36.9405C28.8075 37.3876 30.9509 37.3876 33.0249 36.9405C34.0771 36.7216 35.0985 36.3708 36.0655 35.8964Z" fill="#E30613"/>
<path d="M21.6732 27.0938C21.4176 25.8387 21.3973 24.5459 21.6131 23.2831C21.7161 22.6073 21.9732 21.9653 22.3639 21.4083C22.5841 21.1087 22.8701 20.8654 23.1992 20.6978C23.5283 20.5302 23.8914 20.4429 24.2596 20.4429C24.6278 20.4429 24.9909 20.5302 25.32 20.6978C25.6492 20.8654 25.9352 21.1087 26.1553 21.4083C26.5459 21.9682 26.8029 22.6127 26.9061 23.2907C27.1061 24.5561 27.073 25.8482 26.8085 27.1014C26.7868 25.8502 26.6281 24.6054 26.3355 23.3898C26.0277 22.2161 25.3445 21.1034 24.2483 21.172C23.1522 21.2406 22.469 22.2238 22.1462 23.3898C21.8583 24.6037 21.6997 25.8455 21.6732 27.0938Z" fill="#51524F"/>
<path d="M33.0024 27.0938C32.7468 25.8387 32.7264 24.5459 32.9423 23.2832C33.0453 22.6074 33.3024 21.9654 33.6931 21.4083C33.913 21.1146 34.1968 20.8764 34.5224 20.7125C34.848 20.5485 35.2066 20.4632 35.57 20.4632C35.9335 20.4632 36.292 20.5485 36.6176 20.7125C36.9432 20.8764 37.227 21.1146 37.4469 21.4083C37.84 21.9669 38.0972 22.612 38.1977 23.2908C38.3977 24.5562 38.3646 25.8483 38.1001 27.1014C38.0784 25.8503 37.9198 24.6055 37.6271 23.3899C37.3193 22.2162 36.6361 21.1035 35.54 21.1721C34.4438 21.2407 33.7531 22.2238 33.4378 23.3899C33.1626 24.6052 33.0166 25.8469 33.0024 27.0938Z" fill="#51524F"/>
<path d="M13.8876 123.465C14.108 124.096 14.2395 124.756 14.278 125.424" stroke="white" stroke-linecap="round" stroke-linejoin="round"/>
<path d="M15.5844 123.854C15.8994 124.426 16.0082 125.092 15.8922 125.736" stroke="white" stroke-linecap="round" stroke-linejoin="round"/>
<path d="M45.1198 123.465C44.9007 124.097 44.7668 124.756 44.7219 125.424" stroke="white" stroke-linecap="round" stroke-linejoin="round"/>
<path d="M43.4231 123.854C43.1091 124.426 42.9978 125.091 43.1078 125.736" stroke="white" stroke-linecap="round" stroke-linejoin="round"/>
</g>
<defs>
<filter id="filter0_d" x="0" y="0" width="59" height="136" filterUnits="userSpaceOnUse" color-interpolation-filters="sRGB">
<feFlood flood-opacity="0" result="BackgroundImageFix"/>
<feColorMatrix in="SourceAlpha" type="matrix" values="0 0 0 0 0 0 0 0 0 0 0 0 0 0 0 0 0 0 127 0"/>
<feOffset dy="4"/>
<feGaussianBlur stdDeviation="2"/>
<feColorMatrix type="matrix" values="0 0 0 0 0 0 0 0 0 0 0 0 0 0 0 0 0 0 0.25 0"/>
<feBlend mode="normal" in2="BackgroundImageFix" result="effect1_dropShadow"/>
<feBlend mode="normal" in="SourceGraphic" in2="effect1_dropShadow" result="shape"/>
</filter>
<linearGradient id="paint0_linear" x1="1.03445" y1="111.744" x2="18.8383" y2="127.08" gradientUnits="userSpaceOnUse">
<stop stop-color="#237CA1" stop-opacity="0.2"/>
<stop offset="1" stop-color="#237CA1"/>
</linearGradient>
<radialGradient id="paint1_radial" cx="0" cy="0" r="1" gradientUnits="userSpaceOnUse" gradientTransform="translate(30.6524 17.529) rotate(23.0952) scale(26.0935 26.3677)">
<stop stop-color="#DEB36E"/>
<stop offset="1" stop-color="#997945"/>
</radialGradient>
<clipPath id="clip0">
<rect width="51" height="128" fill="white" transform="translate(4)"/>
</clipPath>
</defs>
</svg>
