<svg width="147" height="177" viewBox="0 0 147 177" fill="none" xmlns="http://www.w3.org/2000/svg">
<g clip-path="url(#clip0)" filter="url(#filter0_d)">
<path d="M19.2539 142.354V146.525H4C4 146.525 4.0923 145.24 5.52054 143.719C6.94877 142.199 13.4341 144.219 13.4341 144.219L15.6591 142.219C15.6591 142.219 15.9845 143.764 19.2539 142.354Z" fill="url(#paint0_linear)"/>
<path d="M19.764 132.876L19.2782 142.334H19.2296C15.9603 143.744 15.6348 142.214 15.6348 142.214L15.0032 132.856L19.764 132.876Z" fill="#FFEBC7"/>
<path d="M37 146.525H21.7509V142.379C25.0155 143.789 25.3409 142.259 25.3409 142.259L27.5707 144.259C27.5707 144.259 34.0561 142.224 35.4843 143.759C36.9125 145.295 37 146.525 37 146.525Z" fill="#237CA1"/>
<path d="M36.6551 86.6772C35.7952 89.6131 32.8804 89.6131 32.8804 89.6131C32.8804 89.6131 36.9854 92.769 34.741 95.5448C32.9193 97.8005 30.913 95.8799 30.8547 95.8099C30.9081 95.975 31.6028 98.0556 30.7527 98.9458L30.3689 98.4457C29.7131 97.5954 28.2508 96.5501 27.2112 95.8649C26.5457 95.4248 26.0502 95.1347 26.0502 95.1347V92.5439C28.1148 91.3336 28.7123 88.6778 28.7123 87.1873L29.1981 72.433C21.5517 72.0028 20.517 65.856 20.517 65.856C20.517 65.856 19.4482 72.0028 11.8213 72.433L12.3071 87.1873C12.3071 88.6878 13.2301 91.7887 14.9741 92.5439V95.1347C14.9741 95.1347 14.5126 95.4098 13.8762 95.8249C12.8317 96.5101 11.3209 97.5754 10.6554 98.4457L10.2716 98.9458C9.41659 98.0556 10.1113 95.975 10.1647 95.8099C10.087 95.8799 8.08552 97.8105 6.27836 95.5448C3.99999 92.769 8.12438 89.6131 8.12438 89.6131C8.12438 89.6131 5.20962 89.6131 4.34976 86.6772C3.4899 83.7413 7.44427 83.1011 7.44427 83.1011C6.70883 83.0319 6.01732 82.7103 5.48078 82.1878C4.94424 81.6654 4.59382 80.9724 4.48578 80.2203C3.59192 75.934 8.54216 74.6686 8.54216 74.6686C4.73354 71.8878 7.34225 66.7713 10.5096 67.8516C13.6867 63.9404 14.8623 62.5 20.517 62.5C26.1716 62.5 27.3181 63.9404 30.4952 67.8516C33.6577 66.7713 36.2664 71.8878 32.4772 74.6686C32.4772 74.6686 37.4323 75.934 36.5385 80.2203C36.4296 80.9755 36.0763 81.6708 35.5359 82.1936C34.9955 82.7165 34.2995 83.0362 33.5606 83.1011C33.5606 83.1011 37.5198 83.7413 36.6551 86.6772Z" fill="url(#paint1_radial)"/>
<path d="M33.5266 132.876H7.47345L10.8983 118.532H30.1066L33.5266 132.876Z" fill="#0D395E"/>
<path d="M25.9725 132.876L25.3409 142.234C25.3409 142.234 25.0155 143.764 21.7509 142.354H21.6975L21.2408 132.896L25.9725 132.876Z" fill="#FFEBC7"/>
<path d="M20.517 65.856C20.517 65.856 19.4483 72.0028 11.8213 72.4329L12.3071 87.1873C12.3071 88.6878 13.2447 91.8437 14.9741 92.5439V95.1347C14.9741 95.1347 16.9173 99.9411 20.1478 100.271C20.2659 100.279 20.3843 100.279 20.5024 100.271C20.6367 100.279 20.7713 100.279 20.9056 100.271C24.1265 99.8961 26.0308 95.1397 26.0308 95.1397V92.5439C28.1197 91.3585 28.6929 88.6778 28.6929 87.1873L29.1787 72.4329C21.5517 72.0028 20.517 65.856 20.517 65.856Z" fill="#FFEBC7"/>
<path d="M33.9007 103.057L32.8902 103.737L30.1066 105.603V111.385H23.1452C23.1452 111.385 22.329 111.74 23.1452 112.185H24.2625C24.2625 112.185 23.2909 112.72 23.903 113.07C23.903 113.07 23.6018 114.315 25.2292 114.36C25.2292 114.36 24.8066 114.861 25.9482 114.891H30.1066V118.517H10.8983V114.876H15.0518C16.1983 114.831 15.7757 114.345 15.7757 114.345C17.4031 114.3 17.1019 113.055 17.1019 113.055C17.7043 112.705 16.7424 112.17 16.7424 112.17H17.8597C18.671 111.725 17.8597 111.37 17.8597 111.37H10.8983V105.603L8.1147 103.737L7.10425 103.057L10.2716 98.9459L10.6554 98.4457C11.3209 97.5754 12.8318 96.5101 13.8762 95.8249C14.0608 97.0703 15.421 104.898 20.1478 100.271C20.2659 100.279 20.3844 100.279 20.5025 100.271C20.6368 100.279 20.7714 100.279 20.9057 100.271C25.5401 104.728 26.9732 97.2253 27.1918 95.8699C28.2314 96.5551 29.6937 97.6004 30.3495 98.4507L30.7333 98.9509L33.9007 103.057Z" fill="#EB3825"/>
<path d="M17.8597 111.385H10.8983V105.603L8.1147 103.737L4.19434 114.891H15.0518C16.1983 114.846 15.7757 114.36 15.7757 114.36C17.4031 114.315 17.1019 113.07 17.1019 113.07C17.7043 112.72 16.7424 112.185 16.7424 112.185H17.8597C18.671 111.74 17.8597 111.385 17.8597 111.385Z" fill="#FFEBC7"/>
<path d="M32.8902 103.737L30.1066 105.603V111.385H23.1451C23.1451 111.385 22.329 111.74 23.1451 112.185H24.2625C24.2625 112.185 23.2909 112.72 23.903 113.07C23.903 113.07 23.6018 114.315 25.2292 114.36C25.2292 114.36 24.8066 114.861 25.9482 114.891H36.8057L32.8902 103.737Z" fill="#FFEBC7"/>
<path d="M20.1478 100.271C15.421 104.898 14.0608 97.0703 13.8762 95.8249C14.5126 95.4098 14.9741 95.1347 14.9741 95.1347C14.9741 95.1347 16.8979 99.9412 20.1478 100.271Z" fill="#951F1E"/>
<path d="M27.1918 95.865C26.9732 97.2204 25.5401 104.723 20.9056 100.266C24.1265 99.8911 26.0308 95.1347 26.0308 95.1347C26.0308 95.1347 26.5263 95.4248 27.1918 95.865Z" fill="#951F1E"/>
<path d="M24.7483 86.057C24.2043 86.542 23.5669 86.9034 22.878 87.1173C22.188 87.3421 21.469 87.4584 20.7453 87.4624C20.0221 87.4577 19.3034 87.3431 18.6127 87.1223C17.9234 86.9065 17.2862 86.5435 16.7424 86.057C17.3681 86.3683 18.029 86.5985 18.7098 86.7422C20.0519 87.0356 21.4388 87.0356 22.7808 86.7422C23.4616 86.5985 24.1225 86.3683 24.7483 86.057Z" fill="#E30613"/>
<path d="M15.4356 80.2803C15.2702 79.4566 15.257 78.6082 15.3967 77.7795C15.4633 77.3361 15.6297 76.9148 15.8825 76.5492C16.0249 76.3526 16.21 76.1929 16.423 76.0829C16.6359 75.9729 16.8709 75.9156 17.1091 75.9156C17.3474 75.9156 17.5823 75.9729 17.7953 76.0829C18.0082 76.1929 18.1933 76.3526 18.3358 76.5492C18.5885 76.9167 18.7548 77.3396 18.8215 77.7845C18.951 78.615 18.9295 79.4629 18.7584 80.2853C18.7443 79.4642 18.6417 78.6473 18.4523 77.8496C18.2532 77.0793 17.8111 76.3491 17.1018 76.3941C16.3926 76.4391 15.9505 77.0843 15.7416 77.8496C15.5553 78.6462 15.4527 79.4611 15.4356 80.2803Z" fill="#51524F"/>
<path d="M22.7663 80.2803C22.6009 79.4566 22.5877 78.6083 22.7274 77.7796C22.794 77.3361 22.9604 76.9148 23.2132 76.5492C23.3555 76.3564 23.5391 76.2001 23.7498 76.0925C23.9605 75.9849 24.1925 75.929 24.4277 75.929C24.6628 75.929 24.8948 75.9849 25.1055 76.0925C25.3162 76.2001 25.4999 76.3564 25.6422 76.5492C25.8965 76.9158 26.0629 77.3391 26.128 77.7846C26.2574 78.615 26.2359 79.4629 26.0648 80.2853C26.0507 79.4642 25.9481 78.6473 25.7588 77.8496C25.5596 77.0793 25.1175 76.3491 24.4082 76.3941C23.699 76.4392 23.252 77.0844 23.048 77.8496C22.8699 78.6471 22.7754 79.462 22.7663 80.2803Z" fill="#51524F"/>
<path d="M10.3979 143.524C10.5405 143.938 10.6256 144.371 10.6505 144.809" stroke="white" stroke-linecap="round" stroke-linejoin="round"/>
<path d="M11.4958 143.779C11.6996 144.155 11.77 144.591 11.695 145.015" stroke="white" stroke-linecap="round" stroke-linejoin="round"/>
<path d="M30.607 143.524C30.4652 143.939 30.3785 144.371 30.3495 144.809" stroke="white" stroke-linecap="round" stroke-linejoin="round"/>
<path d="M29.5091 143.779C29.3059 144.155 29.2339 144.591 29.305 145.015" stroke="white" stroke-linecap="round" stroke-linejoin="round"/>
</g>
<g clip-path="url(#clip1)" filter="url(#filter1_d)">
<path d="M86.6407 87.0082V91.5271H70C70 91.5271 70.1007 90.1346 71.6588 88.4874C73.2168 86.8403 80.2918 89.0292 80.2918 89.0292L82.719 86.8619C82.719 86.8619 83.074 88.5362 86.6407 87.0082Z" fill="url(#paint2_linear)"/>
<path d="M87.1971 76.7406L86.6672 86.9866H86.6142C83.0476 88.5145 82.6925 86.8565 82.6925 86.8565L82.0035 76.7189L87.1971 76.7406Z" fill="#FFEBC7"/>
<path d="M106 91.5272H89.3646V87.0354C92.9259 88.5634 93.281 86.9054 93.281 86.9054L95.7135 89.0727C95.7135 89.0727 102.788 86.8674 104.347 88.5309C105.905 90.1943 106 91.5272 106 91.5272Z" fill="#237CA1"/>
<path d="M105.624 26.692C104.686 29.8725 101.506 29.8725 101.506 29.8725C101.506 29.8725 105.984 33.2914 103.536 36.2986C101.548 38.7422 99.3596 36.6616 99.296 36.5857C99.3543 36.7645 100.112 39.0185 99.1847 39.983L98.7661 39.4412C98.0506 38.5201 96.4555 37.3876 95.3214 36.6453C94.5953 36.1685 94.0548 35.8543 94.0548 35.8543V33.0476C96.3071 31.7364 96.9589 28.8593 96.9589 27.2446L97.4889 11.2607C89.1474 10.7947 88.0185 4.13567 88.0185 4.13567C88.0185 4.13567 86.8526 10.7947 78.5323 11.2607L79.0623 27.2446C79.0623 28.8701 80.0692 32.2294 81.9717 33.0476V35.8543C81.9717 35.8543 81.4683 36.1523 80.774 36.602C79.6346 37.3443 77.9865 38.4984 77.2604 39.4412L76.8418 39.983C75.909 39.0185 76.6669 36.7645 76.7252 36.5857C76.6404 36.6616 74.4569 38.7531 72.4855 36.2986C70 33.2914 74.4993 29.8725 74.4993 29.8725C74.4993 29.8725 71.3196 29.8725 70.3816 26.692C69.4435 23.5114 73.7574 22.8179 73.7574 22.8179C72.9551 22.7429 72.2007 22.3945 71.6154 21.8285C71.0301 21.2625 70.6478 20.5118 70.53 19.697C69.5548 15.0535 74.9551 13.6827 74.9551 13.6827C70.8002 10.6701 73.6461 5.12721 77.1014 6.29756C80.5673 2.06046 81.8498 0.5 88.0185 0.5C94.1873 0.5 95.4379 2.06046 98.9039 6.29756C102.354 5.12721 105.2 10.6701 101.066 13.6827C101.066 13.6827 106.472 15.0535 105.497 19.697C105.378 20.5151 104.992 21.2684 104.403 21.8348C103.813 22.4012 103.054 22.7476 102.248 22.8179C102.248 22.8179 106.567 23.5114 105.624 26.692Z" fill="url(#paint3_radial)"/>
<path d="M102.211 76.7406H73.7892L77.5254 61.201H98.4799L102.211 76.7406Z" fill="#0D395E"/>
<path d="M93.97 76.7406L93.281 86.8782C93.281 86.8782 92.9259 88.5362 89.3646 87.0083H89.3063L88.8082 76.7623L93.97 76.7406Z" fill="#FFEBC7"/>
<path d="M88.0185 4.13562C88.0185 4.13562 86.8526 10.7947 78.5323 11.2607L79.0622 27.2446C79.0622 28.8701 80.0851 32.289 81.9717 33.0476V35.8542C81.9717 35.8542 84.0915 41.0612 87.6158 41.4188C87.7446 41.427 87.8738 41.427 88.0026 41.4188C88.1491 41.427 88.296 41.427 88.4425 41.4188C91.9561 41.0124 94.0335 35.8596 94.0335 35.8596V33.0476C96.3123 31.7634 96.9377 28.8592 96.9377 27.2446L97.4677 11.2607C89.1473 10.7947 88.0185 4.13562 88.0185 4.13562Z" fill="#FFEBC7"/>
<path d="M102.619 44.4369L101.517 45.1737L98.4799 47.1948V53.4583H90.8857C90.8857 53.4583 89.9953 53.843 90.8857 54.3252H92.1046C92.1046 54.3252 91.0446 54.905 91.7124 55.2843C91.7124 55.2843 91.3838 56.6334 93.1592 56.6822C93.1592 56.6822 92.6981 57.224 93.9435 57.2565H98.4799V61.1848H77.5254V57.2403H82.0566C83.3073 57.1915 82.8462 56.6659 82.8462 56.6659C84.6216 56.6172 84.293 55.268 84.293 55.268C84.9501 54.8887 83.9008 54.309 83.9008 54.309H85.1197C86.0048 53.8267 85.1197 53.442 85.1197 53.442H77.5254V47.1948L74.4888 45.1737L73.3865 44.4369L76.8418 39.983L77.2605 39.4412C77.9865 38.4984 79.6347 37.3443 80.7741 36.602C80.9755 37.9512 82.4593 46.4308 87.6158 41.4189C87.7447 41.4271 87.8739 41.4271 88.0027 41.4189C88.1492 41.4271 88.296 41.4271 88.4426 41.4189C93.4984 46.2466 95.0617 38.1191 95.3002 36.6508C96.4343 37.3931 98.0295 38.5255 98.7449 39.4466L99.1636 39.9884L102.619 44.4369Z" fill="#EB3825"/>
<path d="M85.1197 53.4583H77.5254V47.1947L74.4887 45.1737L70.212 57.2565H82.0565C83.3072 57.2077 82.8462 56.6821 82.8462 56.6821C84.6215 56.6334 84.2929 55.2842 84.2929 55.2842C84.9501 54.9049 83.9008 54.3252 83.9008 54.3252H85.1197C86.0047 53.8429 85.1197 53.4583 85.1197 53.4583Z" fill="#FFEBC7"/>
<path d="M101.517 45.1737L98.4799 47.1947V53.4583H90.8856C90.8856 53.4583 89.9953 53.8429 90.8856 54.3252H92.1045C92.1045 54.3252 91.0446 54.9049 91.7124 55.2842C91.7124 55.2842 91.3838 56.6334 93.1591 56.6821C93.1591 56.6821 92.6981 57.224 93.9435 57.2565H105.788L101.517 45.1737Z" fill="#FFEBC7"/>
<path d="M87.6158 41.4188C82.4593 46.4307 80.9754 37.9511 80.774 36.602C81.4683 36.1523 81.9718 35.8543 81.9718 35.8543C81.9718 35.8543 84.0704 41.0612 87.6158 41.4188Z" fill="#951F1E"/>
<path d="M95.3002 36.6453C95.0617 38.1137 93.4983 46.2411 88.4425 41.4134C91.9561 41.0071 94.0336 35.8543 94.0336 35.8543C94.0336 35.8543 94.5741 36.1685 95.3002 36.6453Z" fill="#951F1E"/>
<path d="M92.6345 26.0201C92.041 26.5455 91.3458 26.937 90.5941 27.1687C89.8414 27.4123 89.0571 27.5383 88.2676 27.5426C87.4786 27.5375 86.6946 27.4133 85.9411 27.1741C85.1892 26.9403 84.494 26.5471 83.9008 26.0201C84.5834 26.3574 85.3043 26.6067 86.0471 26.7624C87.5111 27.0802 89.0241 27.0802 90.4881 26.7624C91.2309 26.6067 91.9518 26.3574 92.6345 26.0201Z" fill="#E30613"/>
<path d="M82.4752 19.762C82.2948 18.8697 82.2804 17.9506 82.4328 17.0529C82.5055 16.5724 82.687 16.116 82.9628 15.72C83.1182 15.507 83.3201 15.334 83.5524 15.2148C83.7847 15.0957 84.041 15.0336 84.3009 15.0336C84.5608 15.0336 84.8171 15.0957 85.0495 15.2148C85.2818 15.334 85.4837 15.507 85.6391 15.72C85.9147 16.1181 86.0962 16.5762 86.169 17.0583C86.3102 17.9579 86.2868 18.8765 86.1001 19.7674C86.0848 18.8779 85.9728 17.9929 85.7662 17.1287C85.549 16.2943 85.0667 15.5032 84.293 15.552C83.5192 15.6008 83.037 16.2997 82.8091 17.1287C82.6059 17.9917 82.4939 18.8745 82.4752 19.762Z" fill="#51524F"/>
<path d="M90.4723 19.762C90.2919 18.8697 90.2775 17.9506 90.4299 17.0529C90.5026 16.5724 90.6841 16.116 90.9598 15.72C91.1151 15.5111 91.3154 15.3418 91.5453 15.2252C91.7751 15.1087 92.0282 15.048 92.2847 15.048C92.5413 15.048 92.7944 15.1087 93.0242 15.2252C93.254 15.3418 93.4544 15.5111 93.6096 15.72C93.8871 16.1171 94.0686 16.5757 94.1396 17.0583C94.2808 17.9579 94.2574 18.8765 94.0707 19.7674C94.0554 18.8779 93.9434 17.9929 93.7368 17.1287C93.5195 16.2943 93.0373 15.5032 92.2635 15.552C91.4898 15.6008 91.0022 16.2997 90.7797 17.1287C90.5854 17.9927 90.4823 18.8755 90.4723 19.762Z" fill="#51524F"/>
<path d="M76.9796 88.2761C77.1351 88.7247 77.2279 89.1935 77.2551 89.6686" stroke="white" stroke-linecap="round" stroke-linejoin="round"/>
<path d="M78.1772 88.5524C78.3996 88.9592 78.4764 89.4324 78.3945 89.8908" stroke="white" stroke-linecap="round" stroke-linejoin="round"/>
<path d="M99.0258 88.2761C98.8711 88.7252 98.7766 89.1936 98.7449 89.6686" stroke="white" stroke-linecap="round" stroke-linejoin="round"/>
<path d="M97.8281 88.5524C97.6064 88.9594 97.5279 89.4317 97.6055 89.8908" stroke="white" stroke-linecap="round" stroke-linejoin="round"/>
</g>
<g clip-path="url(#clip2)" filter="url(#filter2_d)">
<path d="M49.0183 90.1929V93.5199H37C37 93.5199 37.0727 92.4947 38.198 91.282C39.3233 90.0692 44.4329 91.6809 44.4329 91.6809L46.1859 90.0852C46.1859 90.0852 46.4424 91.3179 49.0183 90.1929Z" fill="url(#paint4_linear)"/>
<path d="M49.4201 82.6332L49.0374 90.1769H48.9991C46.4232 91.3019 46.1668 90.0812 46.1668 90.0812L45.6692 82.6172L49.4201 82.6332Z" fill="#FFEBC7"/>
<path d="M63 93.52H50.9856V90.2129C53.5577 91.3379 53.8141 90.1172 53.8141 90.1172L55.5709 91.7129C55.5709 91.7129 60.6806 90.0892 61.8058 91.3139C62.9311 92.5387 63 93.52 63 93.52Z" fill="#237CA1"/>
<path d="M62.7283 45.7842C62.0508 48.1259 59.7543 48.1259 59.7543 48.1259C59.7543 48.1259 62.9885 50.6431 61.2202 52.8572C59.7849 54.6564 58.2042 53.1245 58.1583 53.0686C58.2004 53.2003 58.7477 54.8598 58.0779 55.5699L57.7755 55.171C57.2588 54.4928 56.1067 53.659 55.2877 53.1125C54.7633 52.7614 54.3729 52.5301 54.3729 52.5301V50.4636C55.9996 49.4982 56.4703 47.3799 56.4703 46.1911L56.8531 34.4227C50.8287 34.0796 50.0134 29.1768 50.0134 29.1768C50.0134 29.1768 49.1714 34.0796 43.1622 34.4227L43.545 46.1911C43.545 47.3879 44.2722 49.8612 45.6463 50.4636V52.5301C45.6463 52.5301 45.2827 52.7495 44.7813 53.0806C43.9584 53.6271 42.768 54.4768 42.2436 55.171L41.9413 55.5699C41.2676 54.8598 41.815 53.2003 41.8571 53.0686C41.7958 53.1245 40.2189 54.6643 38.7951 52.8572C37 50.6431 40.2495 48.1259 40.2495 48.1259C40.2495 48.1259 37.9531 48.1259 37.2756 45.7842C36.5981 43.4425 39.7137 42.9319 39.7137 42.9319C39.1343 42.8767 38.5894 42.6201 38.1667 42.2034C37.744 41.7867 37.4679 41.234 37.3828 40.634C36.6785 37.2152 40.5787 36.2059 40.5787 36.2059C37.578 33.9879 39.6333 29.9068 42.1288 30.7685C44.632 27.6489 45.5582 26.5 50.0134 26.5C54.4686 26.5 55.3719 27.6489 57.875 30.7685C60.3667 29.9068 62.4221 33.9879 59.4366 36.2059C59.4366 36.2059 63.3407 37.2152 62.6364 40.634C62.5506 41.2364 62.2723 41.791 61.8465 42.208C61.4207 42.625 60.8723 42.8801 60.2902 42.9319C60.2902 42.9319 63.4095 43.4425 62.7283 45.7842Z" fill="url(#paint5_radial)"/>
<path d="M60.2634 82.6332H39.7366L42.435 71.192H57.5688L60.2634 82.6332Z" fill="#0D395E"/>
<path d="M54.3116 82.6332L53.8141 90.0972C53.8141 90.0972 53.5576 91.3179 50.9856 90.1929H50.9435L50.5837 82.6492L54.3116 82.6332Z" fill="#FFEBC7"/>
<path d="M50.0134 29.1768C50.0134 29.1768 49.1714 34.0796 43.1622 34.4227L43.545 46.191C43.545 47.3878 44.2837 49.9051 45.6463 50.4636V52.53C45.6463 52.53 47.1772 56.3637 49.7225 56.627C49.8156 56.6331 49.9089 56.6331 50.0019 56.627C50.1077 56.6331 50.2138 56.6331 50.3196 56.627C52.8572 56.3278 54.3576 52.534 54.3576 52.534V50.4636C56.0034 49.5181 56.455 47.3799 56.455 46.191L56.8378 34.4227C50.8287 34.0796 50.0134 29.1768 50.0134 29.1768Z" fill="#FFEBC7"/>
<path d="M60.5581 58.8491L59.762 59.3916L57.5689 60.8796V65.4913H52.0841C52.0841 65.4913 51.4411 65.7745 52.0841 66.1295H52.9644C52.9644 66.1295 52.1989 66.5564 52.6812 66.8357C52.6812 66.8357 52.4439 67.829 53.7261 67.8649C53.7261 67.8649 53.3931 68.2638 54.2926 68.2878H57.5689V71.18H42.4351V68.2758H45.7075C46.6108 68.2399 46.2778 67.8529 46.2778 67.8529C47.56 67.817 47.3227 66.8237 47.3227 66.8237C47.7973 66.5444 47.0395 66.1176 47.0395 66.1176H47.9198C48.559 65.7625 47.9198 65.4793 47.9198 65.4793H42.4351V60.8796L40.2419 59.3916L39.4458 58.8491L41.9413 55.5699L42.2437 55.171C42.768 54.4768 43.9584 53.6271 44.7813 53.0806C44.9267 54.0739 45.9984 60.3172 49.7226 56.6271C49.8156 56.6331 49.9089 56.6331 50.002 56.6271C50.1078 56.6331 50.2138 56.6331 50.3196 56.6271C53.971 60.1815 55.1002 54.1976 55.2724 53.1165C56.0915 53.663 57.2435 54.4968 57.7602 55.175L58.0626 55.5739L60.5581 58.8491Z" fill="#EB3825"/>
<path d="M47.9197 65.4912H42.435V60.8796L40.2418 59.3916L37.1531 68.2877H45.7075C46.6108 68.2518 46.2778 67.8649 46.2778 67.8649C47.56 67.829 47.3227 66.8356 47.3227 66.8356C47.7973 66.5564 47.0394 66.1295 47.0394 66.1295H47.9197C48.5589 65.7745 47.9197 65.4912 47.9197 65.4912Z" fill="#FFEBC7"/>
<path d="M59.762 59.3916L57.5688 60.8796V65.4912H52.0841C52.0841 65.4912 51.441 65.7745 52.0841 66.1295H52.9644C52.9644 66.1295 52.1989 66.5564 52.6811 66.8356C52.6811 66.8356 52.4438 67.829 53.726 67.8649C53.726 67.8649 53.3931 68.2638 54.2925 68.2877H62.8469L59.762 59.3916Z" fill="#FFEBC7"/>
<path d="M49.7225 56.6271C45.9984 60.3172 44.9267 54.0739 44.7812 53.0806C45.2826 52.7495 45.6463 52.5301 45.6463 52.5301C45.6463 52.5301 47.1619 56.3638 49.7225 56.6271Z" fill="#951F1E"/>
<path d="M55.2723 53.1125C55.1001 54.1936 53.971 60.1775 50.3196 56.6231C52.8572 56.3239 54.3576 52.5301 54.3576 52.5301C54.3576 52.5301 54.748 52.7615 55.2723 53.1125Z" fill="#951F1E"/>
<path d="M53.3471 45.2895C52.9185 45.6764 52.4164 45.9646 51.8735 46.1352C51.3299 46.3145 50.7634 46.4073 50.1933 46.4105C49.6234 46.4067 49.0572 46.3153 48.513 46.1392C47.97 45.9671 47.4679 45.6775 47.0394 45.2895C47.5324 45.5378 48.0531 45.7214 48.5896 45.836C49.6469 46.0701 50.7396 46.0701 51.797 45.836C52.3334 45.7214 52.8541 45.5378 53.3471 45.2895Z" fill="#E30613"/>
<path d="M46.0098 40.6819C45.8796 40.0249 45.8692 39.3483 45.9792 38.6873C46.0317 38.3335 46.1628 37.9975 46.362 37.7059C46.4742 37.5491 46.62 37.4217 46.7878 37.334C46.9556 37.2463 47.1407 37.2006 47.3284 37.2006C47.5161 37.2006 47.7012 37.2463 47.869 37.334C48.0368 37.4217 48.1826 37.5491 48.2948 37.7059C48.4939 37.999 48.625 38.3363 48.6776 38.6913C48.7795 39.3536 48.7627 40.03 48.6278 40.6859C48.6168 40.031 48.5359 39.3794 48.3867 38.7431C48.2298 38.1288 47.8815 37.5463 47.3227 37.5822C46.7639 37.6181 46.4156 38.1328 46.251 38.7431C46.1042 39.3785 46.0234 40.0285 46.0098 40.6819Z" fill="#51524F"/>
<path d="M51.7855 40.6819C51.6552 40.0249 51.6449 39.3482 51.7549 38.6873C51.8074 38.3335 51.9385 37.9975 52.1377 37.7059C52.2498 37.5521 52.3945 37.4275 52.5605 37.3417C52.7265 37.2558 52.9092 37.2112 53.0945 37.2112C53.2798 37.2112 53.4626 37.2558 53.6286 37.3417C53.7946 37.4275 53.9393 37.5521 54.0514 37.7059C54.2518 37.9983 54.3829 38.3359 54.4342 38.6912C54.5361 39.3536 54.5192 40.0299 54.3844 40.6859C54.3733 40.031 54.2924 39.3794 54.1433 38.7431C53.9863 38.1288 53.638 37.5463 53.0792 37.5822C52.5204 37.6181 52.1683 38.1327 52.0075 38.7431C51.8672 39.3792 51.7928 40.0292 51.7855 40.6819Z" fill="#51524F"/>
<path d="M42.0408 91.1263C42.1531 91.4566 42.2201 91.8018 42.2398 92.1516" stroke="white" stroke-linecap="round" stroke-linejoin="round"/>
<path d="M42.9058 91.3298C43.0663 91.6292 43.1218 91.9777 43.0627 92.3151" stroke="white" stroke-linecap="round" stroke-linejoin="round"/>
<path d="M57.963 91.1263C57.8513 91.457 57.7831 91.8019 57.7602 92.1516" stroke="white" stroke-linecap="round" stroke-linejoin="round"/>
<path d="M57.0981 91.3298C56.938 91.6294 56.8812 91.9772 56.9373 92.3151" stroke="white" stroke-linecap="round" stroke-linejoin="round"/>
</g>
<g clip-path="url(#clip3)" filter="url(#filter3_d)">
<path d="M126.867 124.847V128.522H113C113 128.522 113.084 127.39 114.382 126.05C115.681 124.711 121.576 126.491 121.576 126.491L123.599 124.728C123.599 124.728 123.895 126.09 126.867 124.847Z" fill="url(#paint6_linear)"/>
<path d="M127.331 116.498L126.889 124.83H126.845C123.873 126.072 123.577 124.724 123.577 124.724L123.003 116.48L127.331 116.498Z" fill="#FFEBC7"/>
<path d="M143 128.522H129.137V124.869C132.105 126.112 132.401 124.764 132.401 124.764L134.428 126.526C134.428 126.526 140.324 124.733 141.622 126.086C142.921 127.438 143 128.522 143 128.522Z" fill="#237CA1"/>
<path d="M142.686 75.799C141.905 78.3853 139.255 78.3853 139.255 78.3853C139.255 78.3853 142.987 81.1656 140.946 83.6109C139.29 85.5981 137.466 83.9061 137.413 83.8444C137.462 83.9898 138.093 85.8228 137.321 86.6071L136.972 86.1664C136.375 85.4174 135.046 84.4965 134.101 83.8929C133.496 83.5052 133.046 83.2496 133.046 83.2496V80.9673C134.923 79.901 135.466 77.5614 135.466 76.2484L135.907 63.2505C128.956 62.8715 128.015 57.4565 128.015 57.4565C128.015 57.4565 127.044 62.8715 120.11 63.2505L120.552 76.2484C120.552 77.5702 121.391 80.302 122.976 80.9673V83.2496C122.976 83.2496 122.557 83.492 121.978 83.8577C121.029 84.4613 119.655 85.3998 119.05 86.1664L118.701 86.6071C117.924 85.8228 118.556 83.9898 118.604 83.8444C118.534 83.9061 116.714 85.6069 115.071 83.6109C113 81.1656 116.749 78.3853 116.749 78.3853C116.749 78.3853 114.1 78.3853 113.318 75.799C112.536 73.2126 116.131 72.6486 116.131 72.6486C115.463 72.5877 114.834 72.3043 114.346 71.844C113.858 71.3838 113.54 70.7733 113.442 70.1107C112.629 66.3347 117.129 65.22 117.129 65.22C113.667 62.7702 116.038 58.2628 118.918 59.2145C121.806 55.7689 122.875 54.5 128.015 54.5C133.156 54.5 134.198 55.7689 137.087 59.2145C139.962 58.2628 142.333 62.7702 138.888 65.22C138.888 65.22 143.393 66.3347 142.58 70.1107C142.481 70.776 142.16 71.3886 141.669 71.8491C141.178 72.3097 140.545 72.5914 139.873 72.6486C139.873 72.6486 143.473 73.2126 142.686 75.799Z" fill="url(#paint7_radial)"/>
<path d="M139.842 116.498H116.158L119.271 103.861H136.733L139.842 116.498Z" fill="#0D395E"/>
<path d="M132.975 116.498L132.401 124.742C132.401 124.742 132.105 126.09 129.137 124.847H129.089L128.674 116.516L132.975 116.498Z" fill="#FFEBC7"/>
<path d="M128.015 57.4565C128.015 57.4565 127.044 62.8715 120.11 63.2504L120.552 76.2484C120.552 77.5702 121.404 80.3504 122.976 80.9673V83.2496C122.976 83.2496 124.743 87.4838 127.68 87.7746C127.787 87.7813 127.895 87.7813 128.002 87.7746C128.124 87.7813 128.247 87.7813 128.369 87.7746C131.297 87.4442 133.028 83.254 133.028 83.254V80.9673C134.927 79.923 135.448 77.5614 135.448 76.2484L135.89 63.2504C128.956 62.8715 128.015 57.4565 128.015 57.4565Z" fill="#FFEBC7"/>
<path d="M140.182 90.2288L139.264 90.8281L136.733 92.4715V97.565H130.405C130.405 97.565 129.663 97.8778 130.405 98.2699H131.42C131.42 98.2699 130.537 98.7414 131.094 99.0498C131.094 99.0498 130.82 100.147 132.299 100.187C132.299 100.187 131.915 100.627 132.953 100.654H136.733V103.848H119.271V100.64H123.047C124.089 100.601 123.705 100.173 123.705 100.173C125.185 100.134 124.911 99.0366 124.911 99.0366C125.458 98.7282 124.584 98.2567 124.584 98.2567H125.6C126.337 97.8646 125.6 97.5517 125.6 97.5517H119.271V92.4715L116.741 90.8281L115.822 90.2288L118.701 86.6071L119.05 86.1665C119.655 85.3998 121.029 84.4613 121.978 83.8577C122.146 84.9548 123.383 91.8503 127.68 87.7747C127.787 87.7814 127.895 87.7814 128.002 87.7747C128.124 87.7814 128.247 87.7814 128.369 87.7747C132.582 91.7005 133.885 85.0914 134.083 83.8973C135.029 84.501 136.358 85.4218 136.954 86.1709L137.303 86.6115L140.182 90.2288Z" fill="#EB3825"/>
<path d="M125.6 97.5649H119.271V92.4715L116.741 90.8281L113.177 100.654H123.047C124.089 100.614 123.705 100.187 123.705 100.187C125.185 100.147 124.911 99.0498 124.911 99.0498C125.458 98.7414 124.584 98.2699 124.584 98.2699H125.6C126.337 97.8778 125.6 97.5649 125.6 97.5649Z" fill="#FFEBC7"/>
<path d="M139.264 90.8281L136.733 92.4715V97.5649H130.405C130.405 97.5649 129.663 97.8778 130.405 98.2699H131.42C131.42 98.2699 130.537 98.7414 131.094 99.0498C131.094 99.0498 130.82 100.147 132.299 100.187C132.299 100.187 131.915 100.627 132.953 100.654H142.823L139.264 90.8281Z" fill="#FFEBC7"/>
<path d="M127.68 87.7747C123.383 91.8503 122.146 84.9548 121.978 83.8577C122.557 83.492 122.976 83.2496 122.976 83.2496C122.976 83.2496 124.725 87.4839 127.68 87.7747Z" fill="#951F1E"/>
<path d="M134.083 83.8929C133.885 85.087 132.582 91.6961 128.369 87.7703C131.297 87.4398 133.028 83.2496 133.028 83.2496C133.028 83.2496 133.478 83.5052 134.083 83.8929Z" fill="#951F1E"/>
<path d="M131.862 75.2526C131.368 75.6799 130.788 75.9982 130.162 76.1866C129.535 76.3847 128.881 76.4872 128.223 76.4907C127.566 76.4865 126.912 76.3856 126.284 76.1911C125.658 76.0009 125.078 75.6811 124.584 75.2526C125.153 75.5269 125.754 75.7296 126.373 75.8562C127.593 76.1147 128.853 76.1147 130.073 75.8562C130.692 75.7296 131.293 75.5269 131.862 75.2526Z" fill="#E30613"/>
<path d="M123.396 70.1636C123.246 69.438 123.234 68.6906 123.361 67.9605C123.421 67.5699 123.572 67.1987 123.802 66.8767C123.932 66.7034 124.1 66.5628 124.294 66.4659C124.487 66.369 124.701 66.3185 124.917 66.3185C125.134 66.3185 125.348 66.369 125.541 66.4659C125.735 66.5628 125.903 66.7034 126.033 66.8767C126.262 67.2004 126.413 67.573 126.474 67.965C126.592 68.6965 126.572 69.4435 126.417 70.168C126.404 69.4447 126.311 68.725 126.139 68.0222C125.957 67.3437 125.556 66.7004 124.911 66.7401C124.266 66.7797 123.864 67.3481 123.674 68.0222C123.505 68.724 123.412 69.4419 123.396 70.1636Z" fill="#51524F"/>
<path d="M130.06 70.1636C129.91 69.438 129.898 68.6906 130.025 67.9606C130.085 67.5699 130.237 67.1987 130.467 66.8767C130.596 66.7068 130.763 66.5692 130.954 66.4744C131.146 66.3796 131.357 66.3303 131.571 66.3303C131.784 66.3303 131.995 66.3796 132.187 66.4744C132.378 66.5692 132.545 66.7068 132.675 66.8767C132.906 67.1996 133.057 67.5725 133.116 67.965C133.234 68.6965 133.214 69.4435 133.059 70.168C133.046 69.4447 132.953 68.725 132.781 68.0222C132.6 67.3437 132.198 66.7004 131.553 66.7401C130.908 66.7797 130.502 67.3481 130.316 68.0222C130.154 68.7248 130.069 69.4427 130.06 70.1636Z" fill="#51524F"/>
<path d="M118.816 125.878C118.946 126.243 119.023 126.624 119.046 127.011" stroke="white" stroke-linecap="round" stroke-linejoin="round"/>
<path d="M119.814 126.103C120 126.434 120.064 126.819 119.995 127.191" stroke="white" stroke-linecap="round" stroke-linejoin="round"/>
<path d="M137.188 125.878C137.059 126.244 136.98 126.624 136.954 127.011" stroke="white" stroke-linecap="round" stroke-linejoin="round"/>
<path d="M136.19 126.103C136.005 126.434 135.94 126.818 136.005 127.191" stroke="white" stroke-linecap="round" stroke-linejoin="round"/>
</g>
<g clip-path="url(#clip4)" filter="url(#filter4_d)">
<path d="M70.7162 164.156V168.526H55C55 168.526 55.0951 167.18 56.5666 165.587C58.0381 163.994 64.72 166.111 64.72 166.111L67.0124 164.015C67.0124 164.015 67.3477 165.634 70.7162 164.156Z" fill="url(#paint8_linear)"/>
<path d="M71.2417 154.227L70.7412 164.135H70.6912C67.3227 165.613 66.9873 164.01 66.9873 164.01L66.3367 154.206L71.2417 154.227Z" fill="#FFEBC7"/>
<path d="M89 168.526H73.2888V164.183C76.6523 165.66 76.9876 164.057 76.9876 164.057L79.285 166.153C79.285 166.153 85.9669 164.02 87.4384 165.629C88.9099 167.237 89 168.526 89 168.526Z" fill="#237CA1"/>
<path d="M88.6446 105.828C87.7587 108.904 84.7556 108.904 84.7556 108.904C84.7556 108.904 88.985 112.21 86.6726 115.118C84.7957 117.481 82.7285 115.469 82.6685 115.396C82.7235 115.569 83.4393 117.749 82.5634 118.681L82.168 118.157C81.4923 117.267 79.9857 116.172 78.9146 115.454C78.2289 114.993 77.7184 114.689 77.7184 114.689V111.975C79.8456 110.707 80.4612 107.924 80.4612 106.363L80.9617 90.906C73.0836 90.4553 72.0175 84.0158 72.0175 84.0158C72.0175 84.0158 70.9164 90.4553 63.0583 90.906L63.5588 106.363C63.5588 107.935 64.5098 111.183 66.3066 111.975V114.689C66.3066 114.689 65.8311 114.977 65.1755 115.412C64.0994 116.13 62.5428 117.246 61.8571 118.157L61.4616 118.681C60.5807 117.749 61.2965 115.569 61.3515 115.396C61.2714 115.469 59.2093 117.492 57.3474 115.118C55 112.21 59.2494 108.904 59.2494 108.904C59.2494 108.904 56.2463 108.904 55.3604 105.828C54.4745 102.753 58.5486 102.082 58.5486 102.082C57.7909 102.01 57.0785 101.673 56.5257 101.125C55.9729 100.578 55.6118 99.8521 55.5005 99.0641C54.5796 94.5737 59.6798 93.2481 59.6798 93.2481C55.7558 90.3348 58.4435 84.9747 61.7069 86.1064C64.9803 82.009 66.1915 80.5 72.0175 80.5C77.8435 80.5 79.0247 82.009 82.2981 86.1064C85.5564 84.9747 88.2442 90.3348 84.3402 93.2481C84.3402 93.2481 89.4454 94.5737 88.5245 99.0641C88.4123 99.8553 88.0484 100.584 87.4915 101.131C86.9347 101.679 86.2176 102.014 85.4563 102.082C85.4563 102.082 89.5355 102.753 88.6446 105.828Z" fill="url(#paint9_radial)"/>
<path d="M85.4213 154.227H58.5787L62.1073 139.2H81.8977L85.4213 154.227Z" fill="#0D395E"/>
<path d="M77.6383 154.227L76.9877 164.031C76.9877 164.031 76.6523 165.634 73.2888 164.156H73.2338L72.7633 154.248L77.6383 154.227Z" fill="#FFEBC7"/>
<path d="M72.0175 84.0158C72.0175 84.0158 70.9164 90.4553 63.0583 90.9059L63.5588 106.363C63.5588 107.935 64.5248 111.241 66.3066 111.975V114.689C66.3066 114.689 68.3087 119.724 71.6371 120.07C71.7588 120.078 71.8808 120.078 72.0025 120.07C72.1409 120.078 72.2795 120.078 72.4179 120.07C75.7363 119.677 77.6984 114.694 77.6984 114.694V111.975C79.8506 110.733 80.4412 107.924 80.4412 106.363L80.9417 90.9059C73.0836 90.4553 72.0175 84.0158 72.0175 84.0158Z" fill="#FFEBC7"/>
<path d="M85.8067 122.988L84.7656 123.701L81.8977 125.655V131.712H74.7253C74.7253 131.712 73.8844 132.084 74.7253 132.551H75.8765C75.8765 132.551 74.8755 133.111 75.5061 133.478C75.5061 133.478 75.1958 134.783 76.8725 134.83C76.8725 134.83 76.4371 135.354 77.6133 135.385H81.8977V139.184H62.1073V135.37H66.3867C67.5679 135.323 67.1325 134.814 67.1325 134.814C68.8092 134.767 68.4989 133.462 68.4989 133.462C69.1195 133.096 68.1285 132.535 68.1285 132.535H69.2797C70.1156 132.069 69.2797 131.697 69.2797 131.697H62.1073V125.655L59.2394 123.701L58.1983 122.988L61.4617 118.681L61.8571 118.157C62.5428 117.246 64.0994 116.13 65.1755 115.412C65.3657 116.717 66.7671 124.917 71.6371 120.07C71.7588 120.078 71.8808 120.078 72.0025 120.07C72.1409 120.078 72.2796 120.078 72.4179 120.07C77.1929 124.738 78.6694 116.879 78.8946 115.459C79.9657 116.177 81.4723 117.272 82.148 118.163L82.5434 118.687L85.8067 122.988Z" fill="#EB3825"/>
<path d="M69.2797 131.712H62.1073V125.655L59.2394 123.701L55.2002 135.385H66.3867C67.5679 135.338 67.1325 134.83 67.1325 134.83C68.8092 134.783 68.4989 133.478 68.4989 133.478C69.1195 133.111 68.1285 132.551 68.1285 132.551H69.2797C70.1155 132.084 69.2797 131.712 69.2797 131.712Z" fill="#FFEBC7"/>
<path d="M84.7656 123.701L81.8977 125.655V131.712H74.7253C74.7253 131.712 73.8844 132.084 74.7253 132.551H75.8765C75.8765 132.551 74.8754 133.111 75.5061 133.478C75.5061 133.478 75.1958 134.783 76.8725 134.83C76.8725 134.83 76.437 135.354 77.6133 135.385H88.7998L84.7656 123.701Z" fill="#FFEBC7"/>
<path d="M71.6371 120.07C66.7671 124.917 65.3657 116.716 65.1755 115.412C65.8312 114.977 66.3066 114.689 66.3066 114.689C66.3066 114.689 68.2887 119.724 71.6371 120.07Z" fill="#951F1E"/>
<path d="M78.8946 115.454C78.6693 116.874 77.1928 124.733 72.4179 120.065C75.7363 119.672 77.6983 114.689 77.6983 114.689C77.6983 114.689 78.2089 114.993 78.8946 115.454Z" fill="#951F1E"/>
<path d="M76.377 105.179C75.8166 105.687 75.1599 106.065 74.4501 106.29C73.7392 106.525 72.9984 106.647 72.2528 106.651C71.5076 106.646 70.7672 106.526 70.0555 106.295C69.3454 106.069 68.6888 105.688 68.1285 105.179C68.7732 105.505 69.4542 105.746 70.1556 105.897C71.5383 106.204 72.9673 106.204 74.3499 105.897C75.0514 105.746 75.7323 105.505 76.377 105.179Z" fill="#E30613"/>
<path d="M66.7821 99.127C66.6117 98.2641 66.5981 97.3753 66.7421 96.5072C66.8107 96.0426 66.9821 95.6012 67.2426 95.2182C67.3893 95.0122 67.58 94.845 67.7994 94.7297C68.0188 94.6145 68.2609 94.5545 68.5064 94.5545C68.7519 94.5545 68.9939 94.6145 69.2133 94.7297C69.4328 94.845 69.6234 95.0122 69.7702 95.2182C70.0306 95.6032 70.2019 96.0462 70.2707 96.5124C70.404 97.3824 70.382 98.2707 70.2056 99.1322C70.1912 98.2721 70.0854 97.4162 69.8903 96.5805C69.6851 95.7736 69.2296 95.0086 68.4989 95.0558C67.7681 95.1029 67.3127 95.7788 67.0974 96.5805C66.9055 97.4151 66.7998 98.2688 66.7821 99.127Z" fill="#51524F"/>
<path d="M74.3349 99.127C74.1645 98.2641 74.1509 97.3753 74.2949 96.5072C74.3635 96.0426 74.5349 95.6012 74.7954 95.2182C74.942 95.0163 75.1312 94.8525 75.3483 94.7398C75.5653 94.6271 75.8044 94.5685 76.0467 94.5685C76.289 94.5685 76.528 94.6271 76.7451 94.7398C76.9621 94.8525 77.1514 95.0163 77.298 95.2182C77.56 95.6023 77.7315 96.0457 77.7985 96.5124C77.9318 97.3824 77.9097 98.2707 77.7334 99.1322C77.7189 98.2721 77.6132 97.4162 77.4181 96.5805C77.2129 95.7736 76.7574 95.0086 76.0267 95.0558C75.2959 95.103 74.8354 95.7789 74.6252 96.5805C74.4417 97.416 74.3444 98.2698 74.3349 99.127Z" fill="#51524F"/>
<path d="M61.5918 165.382C61.7387 165.816 61.8264 166.27 61.8521 166.729" stroke="white" stroke-linecap="round" stroke-linejoin="round"/>
<path d="M62.723 165.65C62.933 166.043 63.0055 166.501 62.9282 166.944" stroke="white" stroke-linecap="round" stroke-linejoin="round"/>
<path d="M82.4132 165.382C82.2671 165.817 82.1779 166.27 82.1479 166.729" stroke="white" stroke-linecap="round" stroke-linejoin="round"/>
<path d="M81.2821 165.65C81.0727 166.043 80.9985 166.5 81.0718 166.944" stroke="white" stroke-linecap="round" stroke-linejoin="round"/>
</g>
<defs>
<filter id="filter0_d" x="0" y="62.5" width="41" height="92" filterUnits="userSpaceOnUse" color-interpolation-filters="sRGB">
<feFlood flood-opacity="0" result="BackgroundImageFix"/>
<feColorMatrix in="SourceAlpha" type="matrix" values="0 0 0 0 0 0 0 0 0 0 0 0 0 0 0 0 0 0 127 0"/>
<feOffset dy="4"/>
<feGaussianBlur stdDeviation="2"/>
<feColorMatrix type="matrix" values="0 0 0 0 0 0 0 0 0 0 0 0 0 0 0 0 0 0 0.25 0"/>
<feBlend mode="normal" in2="BackgroundImageFix" result="effect1_dropShadow"/>
<feBlend mode="normal" in="SourceGraphic" in2="effect1_dropShadow" result="shape"/>
</filter>
<filter id="filter1_d" x="66" y="0.5" width="44" height="99" filterUnits="userSpaceOnUse" color-interpolation-filters="sRGB">
<feFlood flood-opacity="0" result="BackgroundImageFix"/>
<feColorMatrix in="SourceAlpha" type="matrix" values="0 0 0 0 0 0 0 0 0 0 0 0 0 0 0 0 0 0 127 0"/>
<feOffset dy="4"/>
<feGaussianBlur stdDeviation="2"/>
<feColorMatrix type="matrix" values="0 0 0 0 0 0 0 0 0 0 0 0 0 0 0 0 0 0 0.25 0"/>
<feBlend mode="normal" in2="BackgroundImageFix" result="effect1_dropShadow"/>
<feBlend mode="normal" in="SourceGraphic" in2="effect1_dropShadow" result="shape"/>
</filter>
<filter id="filter2_d" x="33" y="26.5" width="34" height="75" filterUnits="userSpaceOnUse" color-interpolation-filters="sRGB">
<feFlood flood-opacity="0" result="BackgroundImageFix"/>
<feColorMatrix in="SourceAlpha" type="matrix" values="0 0 0 0 0 0 0 0 0 0 0 0 0 0 0 0 0 0 127 0"/>
<feOffset dy="4"/>
<feGaussianBlur stdDeviation="2"/>
<feColorMatrix type="matrix" values="0 0 0 0 0 0 0 0 0 0 0 0 0 0 0 0 0 0 0.25 0"/>
<feBlend mode="normal" in2="BackgroundImageFix" result="effect1_dropShadow"/>
<feBlend mode="normal" in="SourceGraphic" in2="effect1_dropShadow" result="shape"/>
</filter>
<filter id="filter3_d" x="109" y="54.5" width="38" height="82" filterUnits="userSpaceOnUse" color-interpolation-filters="sRGB">
<feFlood flood-opacity="0" result="BackgroundImageFix"/>
<feColorMatrix in="SourceAlpha" type="matrix" values="0 0 0 0 0 0 0 0 0 0 0 0 0 0 0 0 0 0 127 0"/>
<feOffset dy="4"/>
<feGaussianBlur stdDeviation="2"/>
<feColorMatrix type="matrix" values="0 0 0 0 0 0 0 0 0 0 0 0 0 0 0 0 0 0 0.25 0"/>
<feBlend mode="normal" in2="BackgroundImageFix" result="effect1_dropShadow"/>
<feBlend mode="normal" in="SourceGraphic" in2="effect1_dropShadow" result="shape"/>
</filter>
<filter id="filter4_d" x="51" y="80.5" width="42" height="96" filterUnits="userSpaceOnUse" color-interpolation-filters="sRGB">
<feFlood flood-opacity="0" result="BackgroundImageFix"/>
<feColorMatrix in="SourceAlpha" type="matrix" values="0 0 0 0 0 0 0 0 0 0 0 0 0 0 0 0 0 0 127 0"/>
<feOffset dy="4"/>
<feGaussianBlur stdDeviation="2"/>
<feColorMatrix type="matrix" values="0 0 0 0 0 0 0 0 0 0 0 0 0 0 0 0 0 0 0.25 0"/>
<feBlend mode="normal" in2="BackgroundImageFix" result="effect1_dropShadow"/>
<feBlend mode="normal" in="SourceGraphic" in2="effect1_dropShadow" result="shape"/>
</filter>
<linearGradient id="paint0_linear" x1="2.08111" y1="135.832" x2="13.7393" y2="145.733" gradientUnits="userSpaceOnUse">
<stop stop-color="#237CA1" stop-opacity="0.2"/>
<stop offset="1" stop-color="#237CA1"/>
</linearGradient>
<radialGradient id="paint1_radial" cx="0" cy="0" r="1" gradientUnits="userSpaceOnUse" gradientTransform="translate(21.2457 74.0034) rotate(23.3882) scale(16.9211 17.2658)">
<stop stop-color="#DEB36E"/>
<stop offset="1" stop-color="#997945"/>
</radialGradient>
<linearGradient id="paint2_linear" x1="67.9067" y1="79.9428" x2="80.5504" y2="90.7564" gradientUnits="userSpaceOnUse">
<stop stop-color="#237CA1" stop-opacity="0.2"/>
<stop offset="1" stop-color="#237CA1"/>
</linearGradient>
<radialGradient id="paint3_radial" cx="0" cy="0" r="1" gradientUnits="userSpaceOnUse" gradientTransform="translate(88.8135 12.962) rotate(23.2431) scale(18.4393 18.7251)">
<stop stop-color="#DEB36E"/>
<stop offset="1" stop-color="#997945"/>
</radialGradient>
<linearGradient id="paint4_linear" x1="35.4881" y1="84.9909" x2="44.7678" y2="92.776" gradientUnits="userSpaceOnUse">
<stop stop-color="#237CA1" stop-opacity="0.2"/>
<stop offset="1" stop-color="#237CA1"/>
</linearGradient>
<radialGradient id="paint5_radial" cx="0" cy="0" r="1" gradientUnits="userSpaceOnUse" gradientTransform="translate(50.5875 35.6753) rotate(23.6458) scale(13.3579 13.7446)">
<stop stop-color="#DEB36E"/>
<stop offset="1" stop-color="#997945"/>
</radialGradient>
<linearGradient id="paint6_linear" x1="111.256" y1="119.102" x2="121.573" y2="128.145" gradientUnits="userSpaceOnUse">
<stop stop-color="#237CA1" stop-opacity="0.2"/>
<stop offset="1" stop-color="#237CA1"/>
</linearGradient>
<radialGradient id="paint7_radial" cx="0" cy="0" r="1" gradientUnits="userSpaceOnUse" gradientTransform="translate(128.678 64.634) rotate(22.7389) scale(15.3088 15.2839)">
<stop stop-color="#DEB36E"/>
<stop offset="1" stop-color="#997945"/>
</radialGradient>
<linearGradient id="paint8_linear" x1="53.023" y1="157.324" x2="65.2018" y2="167.497" gradientUnits="userSpaceOnUse">
<stop stop-color="#237CA1" stop-opacity="0.2"/>
<stop offset="1" stop-color="#237CA1"/>
</linearGradient>
<radialGradient id="paint9_radial" cx="0" cy="0" r="1" gradientUnits="userSpaceOnUse" gradientTransform="translate(72.7683 92.5512) rotate(23.7381) scale(17.4804 18.0399)">
<stop stop-color="#DEB36E"/>
<stop offset="1" stop-color="#997945"/>
</radialGradient>
<clipPath id="clip0">
<rect width="33" height="84" fill="white" transform="translate(4 62.5)"/>
</clipPath>
<clipPath id="clip1">
<rect width="36" height="91" fill="white" transform="translate(70 0.5)"/>
</clipPath>
<clipPath id="clip2">
<rect width="26" height="67" fill="white" transform="translate(37 26.5)"/>
</clipPath>
<clipPath id="clip3">
<rect width="30" height="74" fill="white" transform="translate(113 54.5)"/>
</clipPath>
<clipPath id="clip4">
<rect width="34" height="88" fill="white" transform="translate(55 80.5)"/>
</clipPath>
</defs>
</svg>
