<svg width="133" height="106" viewBox="0 0 133 106" fill="none" xmlns="http://www.w3.org/2000/svg">
<path d="M68.5496 48.3607C64.3396 48.3607 60.2241 49.563 56.7235 51.8155C53.223 54.0681 50.4946 57.2697 48.8835 61.0155C47.2724 64.7614 46.8509 68.8832 47.6722 72.8598C48.4935 76.8363 50.5209 80.489 53.4978 83.356C56.4748 86.2229 60.2677 88.1753 64.3969 88.9663C68.526 89.7573 72.806 89.3513 76.6956 87.7998C80.5852 86.2482 83.9097 83.6207 86.2487 80.2495C88.5877 76.8783 89.8361 72.9149 89.8361 68.8605C89.8287 63.4258 87.5837 58.2157 83.5933 54.3728C79.6029 50.5299 74.1929 48.3678 68.5496 48.3607Z" fill="#77BD43"/>
<path d="M68.5496 48.3607C64.3396 48.3607 60.2241 49.563 56.7235 51.8155C53.223 54.0681 50.4946 57.2697 48.8835 61.0155C47.2724 64.7614 46.8509 68.8832 47.6722 72.8598C48.4935 76.8363 50.5209 80.489 53.4978 83.356C56.4748 86.2229 60.2677 88.1753 64.3969 88.9663C68.526 89.7573 72.806 89.3513 76.6956 87.7998C80.5852 86.2482 83.9097 83.6207 86.2487 80.2495C88.5877 76.8783 89.8361 72.9149 89.8361 68.8605C89.8287 63.4258 87.5837 58.2157 83.5933 54.3728C79.6029 50.5299 74.1929 48.3678 68.5496 48.3607ZM49.9887 61.0077C50.0141 61.0837 50.0254 61.1635 50.022 61.2434C50.022 61.6826 50.1666 61.8969 50.734 61.9558C51.3013 62.0147 51.4904 61.2755 51.8464 61.2434C52.2024 61.2112 52.6363 61.2434 52.4471 61.5326C52.258 61.8219 51.5794 62.6843 51.991 62.7914C52.4026 62.8986 53.1035 62.4432 53.3148 62.9896C53.5262 63.536 53.2036 64.0074 53.4261 64.1466C53.6486 64.2859 53.8377 64.7198 54.0157 64.7841C54.1937 64.8484 54.4106 64.4788 54.5385 64.602C54.6665 64.7252 54.9167 64.8537 54.9946 64.8269C55.1247 64.7463 55.2459 64.6529 55.3562 64.5484C55.3562 64.5484 56.2405 63.7824 56.7022 63.9431C57.2364 64.1336 57.8013 64.2315 58.3709 64.2323C59.2107 64.2645 59.3387 64.468 59.8838 64.9555C60.4289 65.4429 59.8838 65.4001 60.9962 65.5233C62.1086 65.6465 61.5024 67.0231 62.6649 67.1303C63.4797 67.2116 64.2759 67.4177 65.0232 67.7409C65.6962 67.982 66.8309 68.3462 66.6919 69.0319C66.5528 69.7175 65.5794 70.4514 65.5794 70.9388C65.5794 71.4263 65.7018 72.9208 65.1956 73.2047C64.6895 73.4886 63.4769 73.8528 63.349 74.3403C63.2211 74.8277 63.1376 76.1508 62.4646 76.6436C61.9414 77.0483 61.4708 77.5123 61.063 78.0256C60.8683 78.2667 60.1953 78.2292 59.856 78.7113C59.5167 79.1934 58.8047 80.6611 59.0161 80.8539C59.2274 81.0467 59.9005 81.0575 59.4388 81.5021C58.9771 81.9467 59.144 82.6377 59.2274 83.109C59.3109 83.5804 60.6124 83.4733 60.3399 83.9179C60.0673 84.3625 58.026 85.4177 57.5588 82.2573C57.0916 79.0969 57.0526 78.2506 57.175 76.8311C57.2974 75.4116 57.5977 72.4173 57.264 72.1762C56.9303 71.9352 55.4118 72.4172 54.3995 69.139C53.3872 65.8608 54.5274 66.5839 54.7388 66.3429C54.9079 66.0074 55.008 65.6436 55.0336 65.2715C54.7608 65.3672 54.4642 65.3799 54.1837 65.3081C53.9032 65.2362 53.6524 65.0833 53.465 64.8698C52.7086 64.1092 52.2024 63.5038 51.5739 63.3164C50.9454 63.1289 51.1623 62.62 50.5004 62.7432C50.1272 62.7787 49.7505 62.7496 49.3879 62.6575C49.5214 62.1004 49.7439 61.5487 49.9887 61.0077ZM72.2374 49.6624C72.2988 49.7119 72.3564 49.7656 72.4098 49.8231C72.4146 50.0055 72.4484 50.1861 72.5099 50.3587C72.6211 50.648 72.9382 51.0712 73.2052 51.5908C73.4722 52.1103 72.7491 52.3782 72.0927 52.4371C71.4364 52.496 72.0927 51.6015 72.204 51.4193C72.3152 51.2372 72.1372 50.814 72.0927 50.6641C72.0482 50.5141 71.62 50.2998 71.5365 50.0266C71.5323 49.9384 71.5474 49.8504 71.581 49.7682C71.6145 49.6861 71.6657 49.6117 71.7312 49.5499L72.2374 49.6624ZM87.7058 62.4647L87.322 62.7271C85.848 63.7985 85.2417 63.5788 85.2417 63.5788C85.2417 62.304 83.2393 59.931 82.3995 59.5078C81.5596 59.0846 83.9346 62.5879 84.7578 63.6378C85.581 64.6877 86.1873 64.2056 86.9827 64.0234C87.7781 63.8413 86.4265 65.7268 85.531 66.5946C84.6355 67.4624 83.5508 67.4677 84.1015 69.4925C84.6521 71.5173 83.7233 71.737 82.9891 72.1708C82.2548 72.6047 82.6108 73.7082 82.0435 73.9492C81.4761 74.1903 82.5274 75.1491 80.4694 76.1562C78.4114 77.1632 77.9664 76.4615 77.794 75.6741C77.6215 74.8866 76.6815 74.7634 76.8095 73.7082C76.9374 72.6529 76.092 71.603 76.4702 71.1156C76.8484 70.6281 76.4702 68.8069 75.7972 68.0784C75.1241 67.3499 75.7972 66.6214 75.7137 66.2571C75.6303 65.8929 75.0852 66.2571 74.7904 65.8608C74.4956 65.4644 76.3033 64.7198 73.3164 65.5287C70.3295 66.3375 70.3295 65.5286 69.2783 64.5966C68.227 63.6645 68.6498 63.5253 68.5663 61.763C68.4829 60.0006 69.9958 59.6953 70.6243 58.7525C71.2529 57.8098 71.9314 57.3491 74.3677 56.9849C76.8039 56.6206 75.9251 57.5902 75.9251 57.949C75.9251 58.3079 78.2779 58.8865 78.2779 58.7258C78.2779 58.5651 77.9831 57.8741 78.5337 57.9544C78.8285 58.0348 81.6875 58.4901 81.6875 58.4901C82.6219 58.3615 82.5274 57.2366 82.4328 57.0652C82.3383 56.8938 82.0768 56.8402 81.2536 57.0652C80.4304 57.2902 79.9521 56.5295 79.9076 55.9939C79.8631 55.4582 81.3093 55.3457 81.7153 55.2654C82.1084 55.2538 82.4961 55.3564 82.8277 55.56C82.9065 55.5895 82.9919 55.5991 83.0756 55.5879C83.1593 55.5766 83.2387 55.5449 83.3061 55.4957C85.2642 57.4956 86.7633 59.8701 87.7058 62.4647ZM70.591 51.6336C70.779 51.3102 71.0068 51.0099 71.2695 50.7391C71.9148 50.573 71.6144 51.4408 71.4253 51.6336C71.2362 51.8264 70.591 51.7997 70.591 51.6336ZM81.6541 54.3119C81.4149 54.3119 81.2425 54.0173 81.0979 53.7762C80.9533 53.5352 80.6585 54.103 80.5695 54.2744C80.4534 54.5437 80.4039 54.8353 80.4249 55.1261C80.4583 55.4261 80.2358 55.5279 80.0689 55.6296C79.902 55.7314 79.8798 55.5921 79.7296 55.5118C79.5794 55.4314 79.2235 55.56 79.0677 55.876C78.912 56.1921 79.1233 56.9045 79.0677 56.9152C78.816 56.8559 78.5937 56.7138 78.4392 56.5135C78.1758 56.1242 77.9873 55.6923 77.883 55.2386C77.6371 54.8095 77.2438 54.4762 76.7705 54.2958C76.3422 54.1512 76.7205 54.7619 76.7705 54.8744C76.8206 54.9868 77.4102 55.3779 77.4436 55.6511C77.4769 55.9242 76.8873 56.8884 77.032 56.5403C77.1766 56.1921 76.7372 56.0367 76.6148 55.7743C76.4924 55.5118 76.003 55.2386 75.5858 54.7833C75.1686 54.328 74.9962 54.7833 74.7181 54.6387C74.44 54.494 74.2175 54.7994 73.9616 54.7404C73.7058 54.6815 73.7948 55.0243 73.7725 55.3457C73.7503 55.6671 73.6279 55.5118 73.2163 55.8814C72.8047 56.251 72.8826 56.551 72.6601 56.6902C72.2283 56.8954 71.7507 56.9947 71.2695 56.9795C70.5798 56.9795 70.6188 56.6742 70.641 56.3313C70.674 55.9023 70.789 55.4828 70.9803 55.094C71.1861 54.6708 72.3041 54.869 72.5322 54.8101C72.7602 54.7512 72.6212 54.403 72.6212 53.9905C72.6212 53.5781 72.0649 53.3638 71.8703 53.2192C71.6756 53.0745 72.0927 53.0585 72.5989 52.9353C72.7932 52.9039 72.9781 52.8326 73.1413 52.7263C73.3044 52.62 73.4419 52.4812 73.5445 52.3193C73.8269 51.9496 74.1708 51.6274 74.5623 51.3658C74.846 51.1729 75.1186 51.1033 75.3188 50.964C75.519 50.8248 75.9251 51.2051 75.9251 51.2051L76.8484 51.0604C78.6777 51.8607 80.3755 52.9146 81.8877 54.1887C81.821 54.2369 81.7709 54.3119 81.6541 54.3119ZM61.7638 50.4766C61.9244 50.6258 62.0463 50.8093 62.1198 51.0122C62.2477 51.4622 61.8027 52.1586 62.2143 52.3728C62.6259 52.5871 63.0375 53.2834 62.7205 53.2834C62.4034 53.2834 61.113 53.1335 61.2354 52.9781C61.451 52.7284 61.6186 52.4436 61.7304 52.1371C61.7304 51.9389 61.6915 52.0193 61.2465 52.1371C60.8015 52.255 59.7558 51.9925 59.5222 52.1371C59.2886 52.2818 59.4833 52.3942 59.6613 52.6139C59.8393 52.8335 59.6279 52.9085 59.7113 53.1013C59.7474 53.1949 59.8053 53.2793 59.8805 53.348C59.9557 53.4167 60.0462 53.4679 60.1452 53.4977C60.3343 53.5352 60.4177 53.2513 60.5957 53.3959C60.7737 53.5406 59.8504 54.0548 59.5945 54.2476C59.3387 54.4405 59.0383 54.4833 59.1218 54.2476C59.2052 54.0119 59.0661 53.8995 58.966 53.9744C58.8659 54.0494 58.115 54.1941 57.9593 54.6494C57.8035 55.1047 57.1972 55.185 56.9469 55.56C56.6966 55.935 56.3907 56.8992 55.8734 57.3223C55.3562 57.7455 54.266 57.858 54.3272 58.5061C54.3883 59.1543 54.1714 60.2685 54.138 60.0274C54.1047 59.7864 54.2382 59.1168 53.5818 58.9561C53.1107 58.7726 52.5886 58.7499 52.1023 58.8918C51.7889 58.9321 51.4722 58.9429 51.1567 58.924C53.5642 55.0018 57.3146 52.0094 61.7638 50.4605V50.4766Z" fill="#237CA1"/>
<path d="M19.1122 41.2023L21.2253 41.8008L19.4204 46.8284L17.3074 46.2298L19.1122 41.2023Z" fill="#388E3C"/>
<path d="M32.8446 45.0902L41.2969 47.4795L39.4971 52.5119L31.0398 50.1178L32.8446 45.0902Z" fill="#388E3C"/>
<path d="M23.3383 42.3995L30.7315 44.492L28.9267 49.5196L21.5334 47.4271L23.3383 42.3995Z" fill="#388E3C"/>
<path d="M30.5923 78.0473H30.6371L39.0645 54.5852L16.1936 48.1594L5.51388 61.4227L0 100.552L21.797 103.98C21.703 103.316 21.7746 102.64 22.0058 102.007L30.5923 78.0473Z" fill="#388E3C"/>
<path d="M56.7696 94.404L29.5781 85.3064L23.4576 102.017C23.3618 102.238 23.3139 102.475 23.317 102.715C23.3201 102.954 23.3741 103.19 23.4757 103.409C23.5773 103.627 23.7242 103.824 23.9075 103.985C24.0908 104.147 24.3066 104.271 24.5415 104.349C25.0443 104.532 25.5894 104.578 26.1176 104.483L54.1096 105.661L56.7696 94.404Z" fill="#388E3C"/>
<path d="M127.856 83.5833L113.84 43.8652L93.49 50.0899L108.674 87.0164C108.674 87.0164 90.2781 93.0112 86.037 94.3327C85.8481 94.3854 85.699 94.4381 85.5896 94.4764C82.9892 95.434 78.5791 101.721 84.5703 104.053C86.0967 104.651 88.7617 104.886 91.9536 104.895C101.271 104.895 120.209 100.332 120.224 100.323C124.162 99.4705 129.914 100.17 132.117 95.9655C135.553 89.4248 127.856 83.5833 127.856 83.5833ZM105.204 70.6551L98.273 52.6755L99.3121 52.3595L106.243 70.3487L105.204 70.6551ZM108.187 69.7502L101.256 51.7562L102.29 51.4449L109.231 69.4342L108.187 69.7502ZM111.483 68.7495L104.562 50.7602L105.597 50.449L112.528 68.4382L111.483 68.7495ZM114.78 67.7487L107.849 49.7595L108.883 49.4435L115.814 67.4375L114.78 67.7487ZM118.076 66.748L111.155 48.7444L112.189 48.4284L119.12 66.4224L118.076 66.748Z" fill="#388E3C"/>
<path d="M99.8626 3.27991L94.9205 9.09756C94.3189 7.75208 88.9542 0.234621 87.9598 0.0622464L47.1054 0C47.0408 0.143646 50.4764 1.4604 52.3558 2.19778C54.8332 3.25165 57.209 4.51426 59.4557 5.97087C65.064 9.42315 70.8911 17.8216 74.5008 23.0886C73.3174 23.4909 69.0316 24.5251 69.0316 24.5251L70.7768 33.7567L76.9171 33.9052C76.9171 33.9052 83.7138 33.4838 86.9455 32.0665C87.4421 31.8504 87.9223 31.6008 88.3824 31.3195C86.4831 29.6724 86.9704 24.8507 88.2531 23.2083C91.2363 19.4065 96.258 21.1877 100.221 22.7008C100.693 22.5603 101.141 22.3555 101.553 22.0927C103.781 20.7089 105.416 17.7833 106.266 15.6286C107.321 12.9568 109.036 8.78633 109.036 8.78633L99.8626 3.27991Z" fill="#388E3C"/>
<path d="M60.1716 8.61858C56.7708 5.82228 45.2558 0.986206 45.2558 0.986206C41.5766 3.69632 27.0088 20.139 27.0088 20.139C27.0088 20.139 37.3355 28.0059 40.5772 30.5964C43.0632 32.5787 51.1873 37.1083 51.1873 37.1083C51.1873 37.1083 52.1568 34.5945 52.2662 34.2354C53.0021 31.8413 63.4282 17.5055 66.1031 14.3022C64.2342 12.3057 62.2541 10.4084 60.1716 8.61858Z" fill="#388E3C"/>
</svg>
