<svg width="222" height="222" viewBox="0 0 222 222" fill="none" xmlns="http://www.w3.org/2000/svg">
<g filter="url(#filter0_d)">
<path d="M113.279 74.5129L89.6301 59.8037L101.873 47.4048L113.279 74.5129Z" fill="#F6E7CB"/>
<path d="M133.835 87.2483L122.011 79.8938L106.375 42.8463L113.757 35.3705L117.221 38.7914L133.835 87.2483Z" fill="#F6E7CB"/>
<path d="M65.833 136.421L45.4112 116.255L42.4572 107.576L54.8806 94.9949L65.833 136.421Z" fill="#F6E7CB"/>
<path d="M154.393 100.346L141.84 92.2715L126.703 48.1541L144.389 65.6188L154.393 100.346Z" fill="#F6E7CB"/>
<path d="M88.9897 159.287L74.0381 144.523L59.7418 90.0718L68.9243 80.7726L88.9897 159.287Z" fill="#F6E7CB"/>
<path d="M176.224 113.98L162.033 105.009L153.142 74.2612L173.016 93.8866L176.224 113.98Z" fill="#F6E7CB"/>
<path d="M186.692 107.39L182.191 111.949L180.31 101.089L186.692 107.39Z" fill="#F6E7CB"/>
<path d="M89.6735 66.6892L174.448 119.789L165.626 128.724L93.7581 82.2467L89.6735 66.6892Z" fill="#F6E7CB"/>
<path d="M95.8052 90.7501L161.305 133.1L151.402 143.128L100.453 109.384L95.8052 90.7501Z" fill="#F6E7CB"/>
<path d="M102.682 118.068L147.081 147.505L135.378 159.357L108.811 141.767L102.682 118.068Z" fill="#F6E7CB"/>
<path d="M111.04 150.45L131.237 163.551L117.913 177.044L111.04 150.45Z" fill="#F6E7CB"/>
<path d="M113.051 181.966L112.511 182.513L97.1949 167.389L73.9657 75.6671L83.3282 66.1855L113.051 181.966Z" fill="#F6E7CB"/>
<path d="M112.981 27.402L194.486 107.884C199.227 112.565 206.837 112.517 211.518 107.777C216.199 103.036 216.334 95.6057 211.593 90.9245L129.906 10.2623C125.347 5.76108 117.555 5.62908 112.873 10.3699C108.192 15.1106 108.423 22.9008 112.981 27.402Z" fill="#247BA0"/>
<path d="M115.11 192.282L29.776 108.019C25.0353 103.337 17.4251 103.385 12.7439 108.126C8.06257 112.867 8.11062 120.477 12.8514 125.158L98.3677 209.602C103.109 214.283 110.719 214.235 115.4 209.494C119.899 204.573 119.851 196.963 115.11 192.282Z" fill="#247BA0"/>
</g>
<defs>
<filter id="filter0_d" x="-4" y="0" width="229.413" height="221.278" filterUnits="userSpaceOnUse" color-interpolation-filters="sRGB">
<feFlood flood-opacity="0" result="BackgroundImageFix"/>
<feColorMatrix in="SourceAlpha" type="matrix" values="0 0 0 0 0 0 0 0 0 0 0 0 0 0 0 0 0 0 127 0"/>
<feOffset dy="4"/>
<feGaussianBlur stdDeviation="2"/>
<feColorMatrix type="matrix" values="0 0 0 0 0 0 0 0 0 0 0 0 0 0 0 0 0 0 0.25 0"/>
<feBlend mode="normal" in2="BackgroundImageFix" result="effect1_dropShadow"/>
<feBlend mode="normal" in="SourceGraphic" in2="effect1_dropShadow" result="shape"/>
</filter>
</defs>
</svg>
